<?xml version="1.0" encoding="UTF-8"?>
<svg width="80px" height="80px" viewBox="0 0 80 80" version="1.1" xmlns="http://www.w3.org/2000/svg" xmlns:xlink="http://www.w3.org/1999/xlink">
    <!-- Generator: Sketch 54.1 (76490) - https://sketchapp.com -->
    <title>electricians</title>
    <desc>Created with Sketch.</desc>
    <g id="web" stroke="none" stroke-width="1" fill="none" fill-rule="evenodd">
        <g id="electricians" transform="translate(-7.000000, 2.000000)">
            <path d="M22.6386609,11.8099157 L44.937579,16.9159155 C45.9658862,17.151377 47.0341138,17.151377 48.062421,16.9159155 L71.5255387,11.5433376 C75.2940006,10.6804363 79.0484623,13.0358586 79.9113637,16.8043205 C80.3013252,18.5073604 80.0403343,20.2946688 79.1796687,21.8150864 L72.1972383,34.1499704 C71.0205416,36.228676 70.9850426,38.763909 72.1030762,40.8747461 L78.6542415,53.2432853 C80.4004889,56.5401842 79.1434375,60.6284621 75.8465385,62.3747096 C74.1365261,63.2804409 72.120198,63.4093523 70.308766,62.7287601 L48.9620032,54.7083422 C47.3748328,54.1120097 45.6251672,54.1120097 44.0379968,54.7083422 L23.5770203,62.3959519 C20.1050048,63.7004596 16.2328677,61.9433473 14.92836,58.4713317 C14.2209375,56.5884895 14.3946708,54.4876976 15.4017857,52.7466459 L22.6359052,40.2406487 C23.9642611,37.944251 23.8803053,35.0942548 22.4190746,32.8800333 L15.4017857,22.2466459 C13.3207026,19.0931541 14.1900616,14.8496927 17.3435534,12.7686095 C18.9035239,11.7391386 20.816771,11.3927399 22.6386609,11.8099157 Z" id="Rectangle-Copy-6" fill="#484848" opacity="0.06" transform="translate(46.500000, 38.500000) rotate(-12.000000) translate(-46.500000, -38.500000) "></path>
            <g id="broken-cable" transform="translate(25.543716, 5.000000)" fill-rule="nonzero">
                <g transform="translate(0.200000, 0.000000)">
                    <path d="M9.29824561,5.333375 C8.56727953,5.333375 7.97578713,5.92975 7.97578713,6.66675 L7.97578713,12 C7.97578713,12.737 8.56727953,13.333375 9.29824561,13.333375 C10.0292117,13.333375 10.6207041,12.737 10.6207041,12 L10.6207041,6.666625 C10.6207041,5.92975 10.0292117,5.333375 9.29824561,5.333375 Z" id="Path" fill="#545454"></path>
                    <path d="M17.2327485,5.333375 C16.5017825,5.333375 15.9102901,5.92975 15.9102901,6.66675 L15.9102901,12 C15.9102901,12.737 16.5017825,13.333375 17.2327485,13.333375 C17.9637146,13.333375 18.555207,12.737 18.555207,12 L18.555207,6.666625 C18.555207,5.92975 17.9637146,5.333375 17.2327485,5.333375 Z" id="Path" fill="#545454"></path>
                    <path d="M41.0362573,32 L39.7137988,32 L39.7137988,28 C39.7137988,27.263 39.1223064,26.666625 38.3913404,26.666625 C37.6603743,26.666625 37.0690058,27.263 37.0690058,28 L37.0690058,32 L35.7465474,32 C35.0155813,32 34.4240889,32.596375 34.4240889,33.333375 L34.4240889,47.333375 C34.4240889,52.112 30.5679205,56 25.8284187,56 C21.3154222,56 17.643855,52.46275 17.2995719,48 L19.8775415,48 C20.4186994,48 20.9041918,47.668 21.1056538,47.1615 L24.6932889,38.119875 C25.885324,35.116 26.4897099,31.950625 26.4897099,28.711 L26.4897099,20 C26.4897099,18.264 25.3808632,16.797875 23.844917,16.245625 L23.844917,1.333375 C23.844793,0.596375 23.2534246,0 22.5224585,0 L4.00853567,0 C3.27756959,0 2.68607719,0.596375 2.68607719,1.333375 L2.68607719,16.245625 C1.15013099,16.797875 0.0412842105,18.264 0.0412842105,20 L0.0412842105,28.711 C0.0412842105,31.950625 0.645670175,35.116 1.83770526,38.119875 L5.42534035,47.1615 C5.62680234,47.668 6.11241871,48 6.65345263,48 L9.33184327,48 C9.6825731,56.879875 16.9368164,64 25.8285427,64 C34.9434269,64 42.3587158,56.523375 42.3587158,47.333375 L42.3587158,33.333375 C42.3587158,32.596375 41.7672234,32 41.0362573,32 Z" id="Shape" fill="#063A50"></path>
                    <polygon id="Path" fill="#FFFCFC" points="5.33099415 2.666625 21.2 2.666625 21.2 16 5.33099415 16"></polygon>
                    <path d="M7.54831579,45.333375 L4.29392982,37.13025 C3.22723509,34.4415 2.68607719,31.609375 2.68607719,28.711 L2.68607719,20 C2.68607719,19.264375 3.27880936,18.666625 4.00853567,18.666625 L22.5223345,18.666625 C23.2519368,18.666625 23.844793,19.26425 23.844793,20 L23.844793,28.711 C23.844793,31.6095 23.3036351,34.4415 22.2369404,37.13025 L18.9825544,45.333375 L7.54831579,45.333375 Z" id="Path" fill="#FFFCFC"></path>
                    <path d="M39.7137988,47.333375 C39.7137988,55.053375 33.485214,61.333375 25.8284187,61.333375 C18.3980047,61.333375 12.3631953,55.405 12.009862,48 L14.654655,48 C15.0046409,53.933375 19.8573333,58.666625 25.8284187,58.666625 C32.0260094,58.666625 37.0690058,53.582 37.0690058,47.33325 L37.0690058,34.666625 L39.7137988,34.666625 L39.7137988,47.333375 Z" id="Path" fill="#FFFCFC"></path>
                    <path d="M41.0362573,0 C40.3052912,0 39.7137988,0.596375 39.7137988,1.333375 L39.7137988,16 L37.0690058,16 L37.0690058,1.333375 C37.0690058,0.596375 36.4775135,0 35.7465474,0 C35.0155813,0 34.4240889,0.596375 34.4240889,1.333375 L34.4240889,17.333375 C34.4240889,18.070375 35.0155813,18.66675 35.7465474,18.66675 L37.0690058,18.66675 L37.0690058,22.66675 C37.0690058,23.40375 37.6604982,24.000125 38.3914643,24.000125 C39.1224304,24.000125 39.7139228,23.40375 39.7139228,22.66675 L39.7139228,18.66675 L41.0362573,18.66675 C41.7672234,18.66675 42.3587158,18.070375 42.3587158,17.333375 L42.3587158,1.333375 C42.3587158,0.596375 41.7672234,0 41.0362573,0 Z" id="Path" fill="#063A50"></path>
                </g>
            </g>
        </g>
    </g>
</svg>