<?xml version="1.0" encoding="UTF-8"?>
<svg width="24px" height="24px" viewBox="0 0 24 24" version="1.1" xmlns="http://www.w3.org/2000/svg" xmlns:xlink="http://www.w3.org/1999/xlink">
    <!-- Generator: Sketch 52.5 (67469) - http://www.bohemiancoding.com/sketch -->
    <title>ic_link</title>
    <desc>Created with Sketch.</desc>
    <g id="assets" stroke="none" stroke-width="1" fill="none" fill-rule="evenodd">
        <g id="Artboard" transform="translate(-408.000000, -24.000000)" fill="#333333">
            <g id="link" transform="translate(409.000000, 26.000000)">
                <path d="M11.6240166,8.57206208 C11.3826087,8.80709534 11.3826087,9.18403548 11.6240166,9.41906874 C12.6215321,10.3902439 12.6215321,11.9689579 11.6240166,12.940133 L6.38592133,18.0399113 C5.3884058,19.0110865 3.76687371,19.0110865 2.76935818,18.0399113 L1.98136646,17.2727273 C0.983850932,16.3015521 0.983850932,14.7228381 1.98136646,13.751663 L7.2194617,8.6518847 C7.46086957,8.41685144 7.46086957,8.03991131 7.2194617,7.80487805 C6.97805383,7.56984479 6.59089027,7.56984479 6.3494824,7.80487805 L1.11138716,12.9046563 C0.396273292,13.6008869 0,14.5277162 0,15.5121951 C0,16.4966741 0.391718427,17.4235033 1.11138716,18.1197339 L1.89937888,18.886918 C2.63726708,19.6053215 3.60745342,19.9645233 4.57763975,19.9645233 C5.54782609,19.9645233 6.51801242,19.6053215 7.25590062,18.886918 L12.4939959,13.7871397 C13.9697723,12.3503326 13.9697723,10.0088692 12.4939959,8.57206208 C12.2571429,8.33702882 11.8654244,8.33702882 11.6240166,8.57206208 Z" id="Path"></path>
                <path d="M20.884058,1.8713969 L20.0960663,1.10421286 C18.6202899,-0.332594235 16.2153209,-0.332594235 14.7395445,1.10421286 L9.50144928,6.20399113 C8.02567288,7.64079823 8.02567288,9.98226164 9.50144928,11.4190687 C9.74285714,11.654102 10.1300207,11.654102 10.3714286,11.4190687 C10.6128364,11.1840355 10.6128364,10.8070953 10.3714286,10.5720621 C9.37391304,9.60088692 9.37391304,8.02217295 10.3714286,7.05099778 L15.6095238,1.95121951 C16.6070393,0.980044346 18.2285714,0.980044346 19.226087,1.95121951 L20.0140787,2.71840355 C21.0115942,3.68957871 21.0115942,5.26829268 20.0140787,6.23946785 L14.7759834,11.3392461 C14.5345756,11.5742794 14.5345756,11.9512195 14.7759834,12.1862528 C14.8944099,12.3015521 15.0538302,12.3636364 15.2086957,12.3636364 C15.3635611,12.3636364 15.5229814,12.3059867 15.6414079,12.1862528 L20.8795031,7.0864745 C21.594617,6.3902439 21.9908903,5.46341463 21.9908903,4.4789357 C21.9908903,3.49445676 21.5991718,2.56762749 20.884058,1.8713969 Z" id="Path"></path>
            </g>
        </g>
    </g>
</svg>