<?xml version="1.0" encoding="UTF-8"?>
<svg width="32px" height="32px" viewBox="0 0 32 32" version="1.1" xmlns="http://www.w3.org/2000/svg" xmlns:xlink="http://www.w3.org/1999/xlink">
    <!-- Generator: Sketch 54.1 (76490) - https://sketchapp.com -->
    <title>ic_recomended</title>
    <desc>Created with Sketch.</desc>
    <g id="Page-1" stroke="none" stroke-width="1" fill="none" fill-rule="evenodd">
        <g id="Group-6" transform="translate(3.000000, 1.000000)">
            <polygon id="Rectangle" fill="#F42C30" transform="translate(6.473900, 23.124785) rotate(-330.000000) translate(-6.473900, -23.124785) " points="2.96156813 18.4652385 10.068711 18.4033795 9.98623238 27.7843319 6.45518953 25.2529056 2.87908952 27.8461909"></polygon>
            <polygon id="Rectangle-Copy-7" fill="#F42C30" transform="translate(19.569138, 23.124785) scale(-1, 1) rotate(-330.000000) translate(-19.569138, -23.124785) " points="16.0568062 18.4652385 23.1639491 18.4033795 23.0814705 27.7843319 19.5504276 25.2529056 15.9743276 27.8461909"></polygon>
            <circle id="Oval" stroke="#F42C30" fill="#FFFFFF" cx="12.9047619" cy="12" r="12"></circle>
            <circle id="Oval-Copy-4" fill="#F42C30" cx="12.9047619" cy="12" r="10"></circle>
            <path d="M12.8806385,15.0341797 L10.0084877,16.5139591 C9.83665376,16.6024908 9.62558573,16.534961 9.53705405,16.3631271 C9.5020678,16.2952211 9.49025812,16.2177337 9.50342705,16.1424886 L10.0501131,13.0188126 L7.74086382,10.8128701 C7.60108961,10.6793488 7.59602059,10.457799 7.72954185,10.3180248 C7.78378263,10.2612439 7.85554195,10.2243525 7.93328243,10.2132821 L11.1312776,9.75788012 L12.5680406,6.90490434 C12.6549839,6.73226129 12.8654202,6.66278793 13.0380633,6.74973123 C13.1050849,6.78348343 13.1594842,6.83788269 13.1932364,6.90490434 L14.6299994,9.75788012 L17.8279945,10.2132821 C18.0193636,10.2405335 18.1524073,10.4177604 18.1251559,10.6091295 C18.1140854,10.68687 18.0771941,10.7586293 18.0204131,10.8128701 L15.7111638,13.0188126 L16.2578499,16.1424886 C16.2911735,16.3328942 16.1638334,16.5142625 15.9734278,16.5475861 C15.8981826,16.5607551 15.8206952,16.5489454 15.7527893,16.5139591 L12.8806385,15.0341797 Z" id="Star" fill="#FFFFFF"></path>
        </g>
    </g>
</svg>