<?xml version="1.0" encoding="UTF-8"?>
<svg width="24px" height="24px" viewBox="0 0 24 24" version="1.1" xmlns="http://www.w3.org/2000/svg" xmlns:xlink="http://www.w3.org/1999/xlink">
    <!-- Generator: Sketch 53.1 (72631) - https://sketchapp.com -->
    <title>min delivery time</title>
    <desc>Created with Sketch.</desc>
    <g id="New-Designs" stroke="none" stroke-width="1" fill="none" fill-rule="evenodd">
        <g id="Seller_profile1" transform="translate(-210.000000, -704.000000)" fill="#909090" fill-rule="nonzero">
            <g id="Group-2" transform="translate(202.000000, 696.000000)">
                <g id="min-delivery-time" transform="translate(8.000000, 8.000000)">
                    <path d="M23.0420392,7.32207843 C21.7767059,4.37207843 19.6265098,2.22662745 16.6518824,0.957960784 C15.1651373,0.323882353 13.6075294,3.69482223e-13 11.9802745,3.69482223e-13 C10.3532941,3.69482223e-13 8.80717647,0.320823529 7.32207843,0.957960784 C4.37207843,2.2232549 2.21235294,4.36733333 0.944784314,7.32207843 C0.309607843,8.80239216 0,10.3532549 0,11.9802353 C0,13.6075294 0.309607843,15.1712549 0.944784314,16.6518824 C2.21235294,19.6066275 4.37235294,21.7635686 7.32207843,23.0291765 C8.80745098,23.6663137 10.3532549,23.9868235 11.9802745,23.9868235 C13.6072941,23.9868235 15.1651373,23.6629412 16.6516471,23.0291765 C19.6262745,21.7604706 21.7764706,19.6016078 23.0420784,16.6518824 C23.6791765,15.1665098 24,13.6075294 24,11.9802353 C24,10.3532549 23.679451,8.80741176 23.0420392,7.32207843 Z M21.1264314,17.2817647 C20.1844314,18.8972549 18.8939216,20.1788627 17.2685882,21.1264314 C15.653098,22.0684314 13.8830196,22.5434902 11.980549,22.5434902 C10.5503529,22.5434902 9.18564706,22.2680392 7.88643137,21.7036863 C6.5872549,21.1396078 5.46552941,20.3980392 4.52717647,19.4599608 C3.58882353,18.5216078 2.84196078,17.3889412 2.2834902,16.0875294 C1.72666667,14.7908627 1.45682353,13.4107451 1.45682353,11.9802745 C1.45682353,10.0775294 1.92431373,8.31643137 2.86101961,6.70541176 C3.80105882,5.0885098 5.09184314,3.80552941 6.70568627,2.86070588 C8.3192549,1.91592157 10.0778431,1.44337255 11.9802745,1.44337255 C13.8830196,1.44337255 15.6527843,1.91870588 17.2683137,2.86070588 C18.8936471,3.80831373 20.1813725,5.0912549 21.1261569,6.70537255 C22.0709412,8.31921569 22.5432157,10.0775294 22.5432157,11.9802353 C22.5432157,13.8830196 22.0740392,15.6561176 21.1264314,17.2817647 Z" id="Shape"></path>
                    <path d="M12.7414118,11.8752941 L12.7414118,5.07807843 C12.7414118,4.67133333 12.3870196,4.3432549 11.9802353,4.3432549 C11.5998039,4.3432549 11.258549,4.67133333 11.258549,5.07807843 L11.258549,11.9802353 C11.258549,11.9934118 11.2848627,12.0460392 11.2848627,12.0852549 C11.258549,12.3214902 11.3243529,12.5183137 11.4816863,12.6759216 L15.4053333,16.5992941 C15.6678824,16.8618431 16.1532941,16.8618431 16.4156471,16.5992941 C16.7173725,16.2975294 16.6975294,15.8596863 16.4156471,15.5758039 L12.7414118,11.8752941 Z" id="Path"></path>
                </g>
            </g>
        </g>
    </g>
</svg>