<?xml version="1.0" encoding="UTF-8"?>
<svg width="120px" height="35px" viewBox="0 0 120 35" version="1.1" xmlns="http://www.w3.org/2000/svg" xmlns:xlink="http://www.w3.org/1999/xlink">
    <!-- Generator: Sketch 54.1 (76490) - https://sketchapp.com -->
    <title>logo_royo</title>
    <desc>Created with Sketch.</desc>
    <g id="Logo" stroke="none" stroke-width="1" fill="none" fill-rule="evenodd">
        <g id="Group-5-Copy" transform="translate(0.000000, 1.000000)">
            <path d="M8.03289474,17.625 L5.98026316,17.625 L5.98026316,26.9210526 C5.98026316,28.144743 5.71052901,29.0460497 5.17105263,29.625 C4.63157625,30.2039503 3.92763592,30.4934211 3.05921053,30.4934211 C2.12499533,30.4934211 1.40131836,30.1907925 0.888157895,29.5855263 C0.374997434,28.9802601 0.118421053,28.0921111 0.118421053,26.9210526 L0.118421053,4.65789474 C0.118421053,3.39473053 0.401312961,2.48026599 0.967105263,1.91447368 C1.53289757,1.34868138 2.44736211,1.06578947 3.71052632,1.06578947 L13.2434211,1.06578947 C14.5592171,1.06578947 15.6842059,1.12170997 16.6184211,1.23355263 C17.5526363,1.3453953 18.3947331,1.57236671 19.1447368,1.91447368 C20.0526361,2.29605454 20.8552597,2.84210171 21.5526316,3.55263158 C22.2500035,4.26316145 22.7796035,5.08881109 23.1414474,6.02960526 C23.5032913,6.97039944 23.6842105,7.9671 23.6842105,9.01973684 C23.6842105,11.1776424 23.075664,12.9013093 21.8585526,14.1907895 C20.6414413,15.4802696 18.796065,16.3947341 16.3223684,16.9342105 C17.3618473,17.4868449 18.3552584,18.3026262 19.3026316,19.3815789 C20.2500047,20.4605317 21.095391,21.6085465 21.8388158,22.8256579 C22.5822406,24.0427692 23.1611821,25.1414425 23.5756579,26.1217105 C23.9901337,27.1019786 24.1973684,27.7763139 24.1973684,28.1447368 C24.1973684,28.5263177 24.0756591,28.9046034 23.8322368,29.2796053 C23.5888146,29.6546071 23.2565811,29.9506568 22.8355263,30.1677632 C22.4144716,30.3848695 21.9276343,30.4934211 21.375,30.4934211 C20.717102,30.4934211 20.1644759,30.3388173 19.7171053,30.0296053 C19.2697346,29.7203932 18.88487,29.3289497 18.5625,28.8552632 C18.24013,28.3815766 17.8026343,27.6842151 17.25,26.7631579 L14.9013158,22.8552632 C14.0592063,21.4210455 13.3059244,20.3289511 12.6414474,19.5789474 C11.9769704,18.8289436 11.302635,18.3157909 10.6184211,18.0394737 C9.93420711,17.7631565 9.07237362,17.625 8.03289474,17.625 Z M11.3881579,5.46710526 L5.98026316,5.46710526 L5.98026316,13.4210526 L11.2302632,13.4210526 C12.6381649,13.4210526 13.8223636,13.2993433 14.7828947,13.0559211 C15.7434259,12.8124988 16.4769712,12.3980292 16.9835526,11.8125 C17.4901341,11.2269708 17.7434211,10.4210578 17.7434211,9.39473684 C17.7434211,8.59210125 17.5394757,7.88487148 17.1315789,7.27302632 C16.7236822,6.66118115 16.1578984,6.20394888 15.4342105,5.90131579 C14.7499966,5.61184066 13.4013259,5.46710526 11.3881579,5.46710526 Z" id="R" fill="#484848" fill-rule="nonzero"></path>
            <path d="M73.5065789,26.9210526 L73.5065789,17.7434211 L66.4407895,6.78947368 C65.8223653,5.80262664 65.3848697,5.0328975 65.1282895,4.48026316 C64.8717092,3.92762882 64.7434211,3.44737046 64.7434211,3.03947368 C64.7434211,2.3684177 65.0032869,1.78947612 65.5230263,1.30263158 C66.0427658,0.815787039 66.6842067,0.572368421 67.4473684,0.572368421 C68.250004,0.572368421 68.8585506,0.799339836 69.2730263,1.25328947 C69.6875021,1.70723911 70.3092064,2.61183533 71.1381579,3.96710526 L76.5460526,12.75 L82.0131579,3.96710526 C82.3421069,3.42762888 82.6184199,2.97368605 82.8421053,2.60526316 C83.0657906,2.23684026 83.3124987,1.89144898 83.5822368,1.56907895 C83.851975,1.24670891 84.1513141,1.00000086 84.4802632,0.828947368 C84.8092122,0.657893882 85.2105239,0.572368421 85.6842105,0.572368421 C86.4210563,0.572368421 87.0361817,0.812497599 87.5296053,1.29276316 C88.0230288,1.77302872 88.2697368,2.32894421 88.2697368,2.96052632 C88.2697368,3.47368678 88.1447381,3.98683954 87.8947368,4.5 C87.6447356,5.01316046 87.2171083,5.72367967 86.6118421,6.63157895 L79.3684211,17.7434211 L79.3684211,26.9210526 C79.3684211,28.118427 79.092108,29.0131549 78.5394737,29.6052632 C77.9868393,30.1973714 77.282899,30.4934211 76.4276316,30.4934211 C75.5592062,30.4934211 74.8552659,30.2006608 74.3157895,29.6151316 C73.7763131,29.0296023 73.5065789,28.131585 73.5065789,26.9210526 Z M105.046053,0.572368421 C108.046068,0.572368421 110.6217,1.18091497 112.773026,2.39802632 C114.924353,3.61513766 116.552626,5.34538352 117.657895,7.58881579 C118.763163,9.83224806 119.315789,12.4670901 119.315789,15.4934211 C119.315789,17.7302743 119.013161,19.7631487 118.407895,21.5921053 C117.802629,23.4210618 116.894743,25.0065722 115.684211,26.3486842 C114.473678,27.6907962 112.986851,28.7171017 111.223684,29.4276316 C109.460517,30.1381614 107.440801,30.4934211 105.164474,30.4934211 C102.901304,30.4934211 100.875009,30.1282931 99.0855263,29.3980263 C97.2960437,28.6677595 95.8026376,27.6381645 94.6052632,26.3092105 C93.4078887,24.9802565 92.5032925,23.3815883 91.8914474,21.5131579 C91.2796022,19.6447275 90.9736842,17.6250109 90.9736842,15.4539474 C90.9736842,13.230252 91.29276,11.1907987 91.9309211,9.33552632 C92.5690821,7.48025388 93.493415,5.9013223 94.7039474,4.59868421 C95.9144797,3.29604612 97.3881492,2.29934556 99.125,1.60855263 C100.861851,0.917759704 102.835515,0.572368421 105.046053,0.572368421 Z M113.375,15.4539474 C113.375,13.3355157 113.032898,11.5000078 112.348684,9.94736842 C111.66447,8.39472908 110.687506,7.22039872 109.417763,6.42434211 C108.14802,5.62828549 106.690798,5.23026316 105.046053,5.23026316 C103.874994,5.23026316 102.792768,5.45065569 101.799342,5.89144737 C100.805916,6.33223905 99.9506615,6.97368 99.2335526,7.81578947 C98.5164438,8.65789895 97.95066,9.73354609 97.5361842,11.0427632 C97.1217085,12.3519802 96.9144737,13.8223603 96.9144737,15.4539474 C96.9144737,17.0986924 97.1217085,18.5855197 97.5361842,19.9144737 C97.95066,21.2434277 98.5361804,22.3453904 99.2927632,23.2203947 C100.049346,24.0953991 100.917758,24.7499978 101.898026,25.1842105 C102.878294,25.6184232 103.953942,25.8355263 105.125,25.8355263 C106.625007,25.8355263 108.003283,25.4605301 109.259868,24.7105263 C110.516454,23.9605226 111.516444,22.8026394 112.259868,21.2368421 C113.003293,19.6710448 113.375,17.7434325 113.375,15.4539474 Z" id="YO" fill="#484848" fill-rule="nonzero"></path>
            <g id="Group-4" transform="translate(28.000000, 1.000000)">
                <g id="Group-3" transform="translate(5.000000, 0.000000)">
                    <circle id="Combined-Shape" fill="#9B8B5F" cx="13" cy="13" r="13"></circle>
                    <ellipse id="Oval" stroke="#FFFFFF" stroke-width="1.44444444" cx="13" cy="13" rx="5.77777778" ry="13.7222222"></ellipse>
                    <ellipse id="Oval-Copy" stroke="#FFFFFF" stroke-width="1.44444444" transform="translate(13.000000, 13.000000) rotate(-270.000000) translate(-13.000000, -13.000000) " cx="13" cy="13" rx="5.77777778" ry="13.7222222"></ellipse>
                </g>
                <path d="M5,17.8984375 L18.5874902,17.8984375 C19.1397749,17.8984375 19.5874902,18.3461528 19.5874902,18.8984375 C19.5874902,18.9961402 19.5731718,19.0933156 19.5449916,19.1868661 L16.5889771,29 L6.17211914,22.90625 L5,17.8984375 Z" id="Path-7" fill="#FFFFFF"></path>
                <g id="ic_cart" transform="translate(0.000000, 14.000000)">
                    <g id="Group" transform="translate(0.316667, 0.625000)">
                        <g id="Group-2" transform="translate(0.000000, 0.669643)">
                            <ellipse id="Oval-Copy" fill="#9B8B5F" cx="14.1075838" cy="15" rx="2.16472663" ry="2.14285714"></ellipse>
                            <ellipse id="Oval-Copy-2" fill="#9B8B5F" cx="6.50758377" cy="15" rx="2.16472663" ry="2.14285714"></ellipse>
                            <polyline id="Rectangle-2" stroke="#9B8B5F" stroke-linecap="round" stroke-linejoin="round" points="6.50758377 3.86160714 17.7333333 3.86160714 15.67039 10.7142857 4.69262601 10.7142857 2.72982584 1.07359492 0 0"></polyline>
                        </g>
                    </g>
                    <path d="M6.6513916,9.83300781 L11.4906006,9.83300781" id="Line" stroke="#9B8B5F" stroke-linecap="round" stroke-linejoin="round" fill-rule="nonzero"></path>
                    <path d="M6.6513916,7.83300781 L8.94660645,7.83300781" id="Line-Copy" stroke="#9B8B5F" stroke-linecap="round" stroke-linejoin="round" fill-rule="nonzero"></path>
                </g>
            </g>
        </g>
    </g>
</svg>