<?xml version="1.0" encoding="UTF-8"?>
<svg width="120px" height="36px" viewBox="0 0 120 36" version="1.1" xmlns="http://www.w3.org/2000/svg" xmlns:xlink="http://www.w3.org/1999/xlink">
    <!-- Generator: Sketch 54.1 (76490) - https://sketchapp.com -->
    <title>royo_home_logo</title>
    <desc>Created with Sketch.</desc>
    <defs>
        <circle id="path-1" cx="18" cy="18" r="18"></circle>
    </defs>
    <g id="web" stroke="none" stroke-width="1" fill="none" fill-rule="evenodd">
        <g id="Group-29-Copy" transform="translate(-3.000000, -7.000000)">
            <g id="Group-19">
                <g id="Group-5" fill="#484848" fill-rule="nonzero">
                    <path d="M11.0328947,25.625 L8.98026316,25.625 L8.98026316,34.9210526 C8.98026316,36.144743 8.71052901,37.0460497 8.17105263,37.625 C7.63157625,38.2039503 6.92763592,38.4934211 6.05921053,38.4934211 C5.12499533,38.4934211 4.40131836,38.1907925 3.88815789,37.5855263 C3.37499743,36.9802601 3.11842105,36.0921111 3.11842105,34.9210526 L3.11842105,12.6578947 C3.11842105,11.3947305 3.40131296,10.480266 3.96710526,9.91447368 C4.53289757,9.34868138 5.44736211,9.06578947 6.71052632,9.06578947 L16.2434211,9.06578947 C17.5592171,9.06578947 18.6842059,9.12170997 19.6184211,9.23355263 C20.5526363,9.3453953 21.3947331,9.57236671 22.1447368,9.91447368 C23.0526361,10.2960545 23.8552597,10.8421017 24.5526316,11.5526316 C25.2500035,12.2631614 25.7796035,13.0888111 26.1414474,14.0296053 C26.5032913,14.9703994 26.6842105,15.9671 26.6842105,17.0197368 C26.6842105,19.1776424 26.075664,20.9013093 24.8585526,22.1907895 C23.6414413,23.4802696 21.796065,24.3947341 19.3223684,24.9342105 C20.3618473,25.4868449 21.3552584,26.3026262 22.3026316,27.3815789 C23.2500047,28.4605317 24.095391,29.6085465 24.8388158,30.8256579 C25.5822406,32.0427692 26.1611821,33.1414425 26.5756579,34.1217105 C26.9901337,35.1019786 27.1973684,35.7763139 27.1973684,36.1447368 C27.1973684,36.5263177 27.0756591,36.9046034 26.8322368,37.2796053 C26.5888146,37.6546071 26.2565811,37.9506568 25.8355263,38.1677632 C25.4144716,38.3848695 24.9276343,38.4934211 24.375,38.4934211 C23.717102,38.4934211 23.1644759,38.3388173 22.7171053,38.0296053 C22.2697346,37.7203932 21.88487,37.3289497 21.5625,36.8552632 C21.24013,36.3815766 20.8026343,35.6842151 20.25,34.7631579 L17.9013158,30.8552632 C17.0592063,29.4210455 16.3059244,28.3289511 15.6414474,27.5789474 C14.9769704,26.8289436 14.302635,26.3157909 13.6184211,26.0394737 C12.9342071,25.7631565 12.0723736,25.625 11.0328947,25.625 Z M14.3881579,13.4671053 L8.98026316,13.4671053 L8.98026316,21.4210526 L14.2302632,21.4210526 C15.6381649,21.4210526 16.8223636,21.2993433 17.7828947,21.0559211 C18.7434259,20.8124988 19.4769712,20.3980292 19.9835526,19.8125 C20.4901341,19.2269708 20.7434211,18.4210578 20.7434211,17.3947368 C20.7434211,16.5921012 20.5394757,15.8848715 20.1315789,15.2730263 C19.7236822,14.6611812 19.1578984,14.2039489 18.4342105,13.9013158 C17.7499966,13.6118407 16.4013259,13.4671053 14.3881579,13.4671053 Z" id="R"></path>
                    <path d="M76.5065789,34.9210526 L76.5065789,25.7434211 L69.4407895,14.7894737 C68.8223653,13.8026266 68.3848697,13.0328975 68.1282895,12.4802632 C67.8717092,11.9276288 67.7434211,11.4473705 67.7434211,11.0394737 C67.7434211,10.3684177 68.0032869,9.78947612 68.5230263,9.30263158 C69.0427658,8.81578704 69.6842067,8.57236842 70.4473684,8.57236842 C71.250004,8.57236842 71.8585506,8.79933984 72.2730263,9.25328947 C72.6875021,9.70723911 73.3092064,10.6118353 74.1381579,11.9671053 L79.5460526,20.75 L85.0131579,11.9671053 C85.3421069,11.4276289 85.6184199,10.9736861 85.8421053,10.6052632 C86.0657906,10.2368403 86.3124987,9.89144898 86.5822368,9.56907895 C86.851975,9.24670891 87.1513141,9.00000086 87.4802632,8.82894737 C87.8092122,8.65789388 88.2105239,8.57236842 88.6842105,8.57236842 C89.4210563,8.57236842 90.0361817,8.8124976 90.5296053,9.29276316 C91.0230288,9.77302872 91.2697368,10.3289442 91.2697368,10.9605263 C91.2697368,11.4736868 91.1447381,11.9868395 90.8947368,12.5 C90.6447356,13.0131605 90.2171083,13.7236797 89.6118421,14.6315789 L82.3684211,25.7434211 L82.3684211,34.9210526 C82.3684211,36.118427 82.092108,37.0131549 81.5394737,37.6052632 C80.9868393,38.1973714 80.282899,38.4934211 79.4276316,38.4934211 C78.5592062,38.4934211 77.8552659,38.2006608 77.3157895,37.6151316 C76.7763131,37.0296023 76.5065789,36.131585 76.5065789,34.9210526 Z M108.046053,8.57236842 C111.046068,8.57236842 113.6217,9.18091497 115.773026,10.3980263 C117.924353,11.6151377 119.552626,13.3453835 120.657895,15.5888158 C121.763163,17.8322481 122.315789,20.4670901 122.315789,23.4934211 C122.315789,25.7302743 122.013161,27.7631487 121.407895,29.5921053 C120.802629,31.4210618 119.894743,33.0065722 118.684211,34.3486842 C117.473678,35.6907962 115.986851,36.7171017 114.223684,37.4276316 C112.460517,38.1381614 110.440801,38.4934211 108.164474,38.4934211 C105.901304,38.4934211 103.875009,38.1282931 102.085526,37.3980263 C100.296044,36.6677595 98.8026376,35.6381645 97.6052632,34.3092105 C96.4078887,32.9802565 95.5032925,31.3815883 94.8914474,29.5131579 C94.2796022,27.6447275 93.9736842,25.6250109 93.9736842,23.4539474 C93.9736842,21.230252 94.29276,19.1907987 94.9309211,17.3355263 C95.5690821,15.4802539 96.493415,13.9013223 97.7039474,12.5986842 C98.9144797,11.2960461 100.388149,10.2993456 102.125,9.60855263 C103.861851,8.9177597 105.835515,8.57236842 108.046053,8.57236842 Z M116.375,23.4539474 C116.375,21.3355157 116.032898,19.5000078 115.348684,17.9473684 C114.66447,16.3947291 113.687506,15.2203987 112.417763,14.4243421 C111.14802,13.6282855 109.690798,13.2302632 108.046053,13.2302632 C106.874994,13.2302632 105.792768,13.4506557 104.799342,13.8914474 C103.805916,14.332239 102.950661,14.97368 102.233553,15.8157895 C101.516444,16.6578989 100.95066,17.7335461 100.536184,19.0427632 C100.121708,20.3519802 99.9144737,21.8223603 99.9144737,23.4539474 C99.9144737,25.0986924 100.121708,26.5855197 100.536184,27.9144737 C100.95066,29.2434277 101.53618,30.3453904 102.292763,31.2203947 C103.049346,32.0953991 103.917758,32.7499978 104.898026,33.1842105 C105.878294,33.6184232 106.953942,33.8355263 108.125,33.8355263 C109.625007,33.8355263 111.003283,33.4605301 112.259868,32.7105263 C113.516454,31.9605226 114.516444,30.8026394 115.259868,29.2368421 C116.003293,27.6710448 116.375,25.7434325 116.375,23.4539474 Z" id="YO"></path>
                </g>
                <circle id="Oval" fill="#063A50" opacity="0.100000001" cx="48" cy="25" r="18"></circle>
                <circle id="Oval-Copy-10" fill="#063A50" opacity="0.100000001" cx="48" cy="25" r="15"></circle>
                <g id="ic_dummy-copy-3" transform="translate(38.000000, 15.000000)" stroke="#063A50" stroke-linecap="round" stroke-linejoin="round" stroke-width="2">
                    <g id="Group">
                        <g id="ic_home">
                            <polyline id="Shape" points="0 8.14814815 10 -8.8817842e-16 20 8.14814815"></polyline>
                            <polyline id="Path" fill="#D8D8D8" points="17 15 17 19 3 19 3 15 3 15"></polyline>
                        </g>
                    </g>
                </g>
                <g id="bank" transform="translate(30.000000, 7.000000)">
                    <mask id="mask-2" fill="white">
                        <use xlink:href="#path-1"></use>
                    </mask>
                    <g id="Mask" opacity="0.100000001"></g>
                </g>
            </g>
            <g id="Group-30" transform="translate(42.000000, 20.000000)">
                <circle id="Oval" fill="#063A50" cx="6" cy="6" r="4.8"></circle>
                <circle id="Oval-Copy-14" fill="#CFD9DC" transform="translate(6.000000, 6.000000) scale(-1, 1) translate(-6.000000, -6.000000) " cx="6" cy="6" r="2.4"></circle>
                <circle id="Oval-Copy-15" fill="#063A50" transform="translate(6.000000, 6.000000) scale(-1, 1) translate(-6.000000, -6.000000) " cx="6" cy="6" r="1.2"></circle>
                <path d="M6,0.6 L6,1.82944336" id="Line" stroke="#063A50" stroke-width="1.2" stroke-linecap="round" stroke-linejoin="round"></path>
                <path d="M9.39411255,2.00588745 L9.39411255,3.23533081" id="Line" stroke="#063A50" stroke-width="1.2" stroke-linecap="round" stroke-linejoin="round" transform="translate(9.394113, 2.605887) rotate(45.000000) translate(-9.394113, -2.605887) "></path>
                <path d="M10.8,5.4 L10.8,6.62944336" id="Line" stroke="#063A50" stroke-width="1.2" stroke-linecap="round" stroke-linejoin="round" transform="translate(10.800000, 6.000000) rotate(90.000000) translate(-10.800000, -6.000000) "></path>
                <path d="M9.39411255,8.79411255 L9.39411255,10.0235559" id="Line" stroke="#063A50" stroke-width="1.2" stroke-linecap="round" stroke-linejoin="round" transform="translate(9.394113, 9.394113) rotate(135.000000) translate(-9.394113, -9.394113) "></path>
                <path d="M6,10.2 L6,11.4294434" id="Line" stroke="#063A50" stroke-width="1.2" stroke-linecap="round" stroke-linejoin="round" transform="translate(6.000000, 10.800000) rotate(180.000000) translate(-6.000000, -10.800000) "></path>
                <path d="M2.60588745,8.79411255 L2.60588745,10.0235559" id="Line" stroke="#063A50" stroke-width="1.2" stroke-linecap="round" stroke-linejoin="round" transform="translate(2.605887, 9.394113) rotate(225.000000) translate(-2.605887, -9.394113) "></path>
                <path d="M1.2,5.4 L1.2,6.62944336" id="Line" stroke="#063A50" stroke-width="1.2" stroke-linecap="round" stroke-linejoin="round" transform="translate(1.200000, 6.000000) rotate(270.000000) translate(-1.200000, -6.000000) "></path>
                <path d="M2.60588745,2.00588745 L2.60588745,3.23533081" id="Line" stroke="#063A50" stroke-width="1.2" stroke-linecap="round" stroke-linejoin="round" transform="translate(2.605887, 2.605887) rotate(315.000000) translate(-2.605887, -2.605887) "></path>
            </g>
        </g>
    </g>
</svg>