<?xml version="1.0" encoding="UTF-8"?>
<svg width="152px" height="180px" viewBox="0 0 152 180" version="1.1" xmlns="http://www.w3.org/2000/svg" xmlns:xlink="http://www.w3.org/1999/xlink">
    <!-- Generator: Sketch 63.1 (92452) - https://sketch.com -->
    <title>first</title>
    <desc>Created with Sketch.</desc>
    <g id="Page-1" stroke="none" stroke-width="1" fill="none" fill-rule="evenodd">
        <g id="Partner-with-us" transform="translate(-389.000000, -1360.000000)">
            <g id="first" transform="translate(390.000000, 1360.000000)">
                <g id="group">
                    <g id="Group-10" transform="translate(0.000000, 0.038820)">
                        <path d="M103.872671,72.9254658 C106.170807,71.310559 107.692547,68.6242236 107.692547,65.5962733 C107.692547,60.6428571 103.686335,56.636646 98.7329193,56.636646 C93.7795031,56.636646 89.7732919,60.6428571 89.7732919,65.5962733 C89.7732919,68.6242236 91.2795031,71.310559 93.5931677,72.9254658 C91.621118,73.6086957 89.8198758,74.6645963 88.2981366,76.0310559 C86.2018634,74.2453416 83.7329193,72.878882 81.0310559,72.0714286 C84.3074534,70.0838509 86.5124224,66.4658385 86.5124224,62.3509317 C86.5124224,56.0776398 81.4347826,51 75.1614907,51 C68.8881988,51 63.810559,56.0931677 63.810559,62.3509317 C63.810559,66.4658385 66,70.0838509 69.2919255,72.0714286 C66.621118,72.878882 64.1832298,74.2298137 62.1024845,75.984472 C60.5807453,74.6490683 58.810559,73.6086957 56.8695652,72.9409938 C59.1677019,71.326087 60.689441,68.6397516 60.689441,65.6118012 C60.689441,60.6583851 56.6832298,56.6521739 51.7298137,56.6521739 C46.7763975,56.6521739 42.7701863,60.6583851 42.7701863,65.6118012 C42.7701863,68.6397516 44.2763975,71.326087 46.5900621,72.9409938 C40.4254658,75.068323 36,80.9223602 36,87.8012422 L36,88.826087 C36,88.8571429 36.0310559,88.8881988 36.0621118,88.8881988 L55.052795,88.8881988 C54.9440994,89.742236 54.8819876,90.6273292 54.8819876,91.5124224 L54.8819876,92.568323 C54.8819876,97.1335404 58.5776398,100.829193 63.1428571,100.829193 L87.2111801,100.829193 C91.7763975,100.829193 95.4720497,97.1335404 95.4720497,92.568323 L95.4720497,91.5124224 C95.4720497,90.6273292 95.4099379,89.742236 95.3012422,88.8881988 L114.416149,88.8881988 C114.447205,88.8881988 114.478261,88.8571429 114.478261,88.826087 L114.478261,87.8012422 C114.447205,80.9068323 110.037267,75.052795 103.872671,72.9254658 Z M92.257764,65.5807453 C92.257764,62.0093168 95.1614907,59.1055901 98.7329193,59.1055901 C102.304348,59.1055901 105.208075,62.0093168 105.208075,65.5807453 C105.208075,69.1055901 102.36646,71.9782609 98.8571429,72.0559006 C98.810559,72.0559006 98.7795031,72.0559006 98.7329193,72.0559006 C98.6863354,72.0559006 98.6552795,72.0559006 98.6086957,72.0559006 C95.0838509,71.9937888 92.257764,69.121118 92.257764,65.5807453 Z M66.2639752,62.3509317 C66.2639752,57.4596273 70.2391304,53.484472 75.1304348,53.484472 C80.0217391,53.484472 83.9968944,57.4596273 83.9968944,62.3509317 C83.9968944,67.0714286 80.2857143,70.9378882 75.6428571,71.2018634 C75.4720497,71.2018634 75.3012422,71.2018634 75.1304348,71.2018634 C74.9596273,71.2018634 74.7888199,71.2018634 74.6180124,71.2018634 C69.9751553,70.9378882 66.2639752,67.0714286 66.2639752,62.3509317 Z M45.2080745,65.5807453 C45.2080745,62.0093168 48.1118012,59.1055901 51.6832298,59.1055901 C55.2546584,59.1055901 58.1583851,62.0093168 58.1583851,65.5807453 C58.1583851,69.1055901 55.3167702,71.9782609 51.8074534,72.0559006 C51.7608696,72.0559006 51.7298137,72.0559006 51.6832298,72.0559006 C51.636646,72.0559006 51.6055901,72.0559006 51.5590062,72.0559006 C48.0496894,71.9937888 45.2080745,69.121118 45.2080745,65.5807453 Z M55.4875776,86.3881988 L38.515528,86.3881988 C39.2142857,79.7732919 44.8043478,74.5869565 51.5900621,74.5403727 C51.621118,74.5403727 51.6521739,74.5403727 51.6832298,74.5403727 C51.7142857,74.5403727 51.7453416,74.5403727 51.7763975,74.5403727 C55.0062112,74.5559006 57.9565217,75.7515528 60.2391304,77.6925466 C58.0031056,80.1149068 56.3416149,83.0962733 55.4875776,86.3881988 Z M92.9565217,92.568323 C92.9565217,95.7515528 90.363354,98.3447205 87.1801242,98.3447205 L63.1118012,98.3447205 C59.9285714,98.3447205 57.3354037,95.7515528 57.3354037,92.568323 L57.3354037,91.5124224 C57.3354037,81.8695652 65.0372671,73.9813665 74.6180124,73.7018634 C74.7888199,73.7173913 74.9751553,73.7173913 75.1459627,73.7173913 C75.3167702,73.7173913 75.5031056,73.7173913 75.673913,73.7018634 C85.2546584,73.9813665 92.9565217,81.8695652 92.9565217,91.5124224 L92.9565217,92.568323 L92.9565217,92.568323 Z M94.8043478,86.3881988 C93.9503106,83.1118012 92.3198758,80.1770186 90.0993789,77.7546584 C92.3975155,75.7670807 95.378882,74.5714286 98.6397516,74.5403727 C98.6708075,74.5403727 98.7018634,74.5403727 98.7329193,74.5403727 C98.7639752,74.5403727 98.7950311,74.5403727 98.826087,74.5403727 C105.611801,74.5869565 111.201863,79.7732919 111.900621,86.3881988 L94.8043478,86.3881988 Z" id="Shape" stroke="#695777" stroke-width="0.4" fill="#FFFFFF" fill-rule="nonzero"></path>
                        <circle id="Oval" stroke="#FFFFFF" opacity="0.131649926" cx="75" cy="75.9611801" r="75"></circle>
                    </g>
                </g>
                <g id="Group-14" transform="translate(73.000000, 151.000000)">
                    <line x1="2.5" y1="0.5" x2="2.5" y2="25" id="Line-7" stroke="#FFFFFF" opacity="0.13" stroke-linecap="square"></line>
                    <circle id="Oval" fill="#FFFFFF" cx="2.5" cy="26" r="2.5"></circle>
                </g>
            </g>
        </g>
    </g>
</svg>