<?xml version="1.0" encoding="UTF-8"?>
<svg width="78px" height="70px" viewBox="0 0 78 70" version="1.1" xmlns="http://www.w3.org/2000/svg" xmlns:xlink="http://www.w3.org/1999/xlink">
    <!-- Generator: Sketch 63.1 (92452) - https://sketch.com -->
    <title>map (1)</title>
    <desc>Created with Sketch.</desc>
    <g id="Page-1" stroke="none" stroke-width="1" fill="none" fill-rule="evenodd">
        <g id="Partner-with-us" transform="translate(-453.000000, -1875.000000)" fill-rule="nonzero">
            <g id="map-(1)" transform="translate(453.000000, 1875.000000)">
                <g id="XMLID_2177_" transform="translate(1.515152, 13.181818)" fill="#A0E5A5">
                    <path d="M11.3627273,0.148030303 L0.440151515,10.3492424 L1.77969697,14.4068182 L2.91318182,13.9557576 L2.91318182,21.6581818 L0.440151515,24.4918182 L1.47060606,25.7025758 L0.553636364,27.7657576 C0.0753030303,28.8419697 -0.093030303,30.030303 0.0675757576,31.1969697 C0.391212121,33.5486364 2.00424242,35.5210606 4.24484848,36.305 L30.1937879,45.3837879 L36.994697,45.3837879 L39.0813636,44.3790909 L44.9548485,49.7115152 L47.1960606,49.7115152 L44.3366667,55.2759091 L49.7463636,55.2759091 L55.805303,48.359697 L58.8657576,47.5477273 L58.8657576,43.9154545 L62.6239394,46.3762121 C64.1180303,47.3543939 66.125303,46.8989394 67.0509091,45.3718182 L69.4790909,41.3651515 L64.2722727,39.519697 C63.1606061,39.1256061 63.0566667,37.5942424 64.105,37.0536364 L65.654697,36.2545455 C67.0860606,35.5165152 68.0768182,34.1369697 68.3189394,32.5448485 C68.660303,30.3004545 67.4540909,28.1060606 65.3762121,27.1915152 L58.1383333,24.0056061 C57.5198485,23.7333333 56.7951515,23.9280303 56.3962121,24.4734848 L56.2834848,24.6275758 C55.5037879,25.6939394 53.9274242,25.7378788 53.0893939,24.7166667 C52.0493939,23.4490909 50.4960606,22.7143939 48.8565152,22.7143939 C46.9016667,22.7143939 45.3960606,24.4392424 45.6601515,26.3760606 C45.7380303,26.9471212 45.9674242,27.4868182 46.3245455,27.9390909 L48.8704545,31.1637879 L46.9125758,35.1824242 L47.1522727,38.0586364 C47.244697,39.1671212 45.8951515,39.7790909 45.1222727,38.9792424 L43.2030303,36.9933333 L42.584697,33.74 L38.2059091,31.8362121 C35.18,30.5206061 33.3792424,27.3721212 33.7795455,24.0969697 C34.0587879,21.8118182 35.6484848,19.9012121 37.844697,19.2110606 L42.2756061,12.2040909 L36.9174242,13.749697 L33.1359091,10.389697 L30.4257576,13.8527273 L22.4913636,11.4827273 L19.4,6.22757576 L16.9269697,2.85439394 L11.3627273,0.148030303 Z" id="XMLID_5_"></path>
                </g>
                <g id="XMLID_2176_" transform="translate(40.303030, 16.515152)" fill="#A0E5A5">
                    <path d="M16.0589394,16.2898485 L12.2463636,17.2172727 L8.78060606,16.1198485 C7.35424242,15.6681818 6.66909091,14.0487879 7.33818182,12.7106061 C7.90045455,11.5859091 7.51363636,10.2180303 6.44560606,9.55439394 L1.84454545,6.69545455 C-0.24,5.40030303 -0.531969697,2.48181818 1.25454545,0.799242424 C2.05530303,0.045 3.26242424,-0.0783333333 4.19924242,0.498181818 L13.1992424,6.03712121 L17.6043939,7.8919697 L16.0589394,16.2898485 Z" id="XMLID_6_"></path>
                </g>
                <g id="XMLID_2175_" transform="translate(21.818182, 9.393939)" fill="#A0E5A5">
                    <polygon id="XMLID_7_" points="0.109393939 11.4181818 2.93878788 7.90878788 0.951818182 3.05212121 5.04075758 0.00257575758 9.65893939 6.28015152 11.5512121 15.8151515 10.1225758 17.6406061 2.18833333 15.2706061"></polygon>
                </g>
                <g id="XMLID_2174_" transform="translate(32.727273, 1.515152)" fill="#A0E5A5">
                    <path d="M12.0804545,0.858484848 L9.10560606,15.2143939 C9.03060606,15.5413636 8.72257576,15.7604545 8.38909091,15.7234848 L0.139090909,14.8124242 L0.666363636,6.24833333 L1.57,6.72227273 C2.86848485,7.40318182 4.37681818,6.27636364 4.09212121,4.83818182 L3.70606061,2.88787879 L11.2078788,0.078030303 C11.7071212,-0.108787879 12.2107576,0.341666667 12.0804545,0.858484848 Z" id="XMLID_8_"></path>
                </g>
                <g id="XMLID_2172_" transform="translate(74.848485, 50.151515)" fill="#B8ECBC">
                    <polygon id="XMLID_9_" points="0.138484848 0.0236363636 0.138484848 1.53606061 1.22045455 1.53606061"></polygon>
                </g>
                <g id="XMLID_754_" fill="#000000">
                    <path d="M71.500303,53.1189394 L66.6606061,51.4036364 L67.8640909,50.7830303 C69.7213636,49.8254545 71.0177273,48.020303 71.3319697,45.9545455 C71.775303,43.039697 70.2001515,40.1743939 67.5016667,38.9866667 L60.2637879,35.8006061 C59.0037879,35.2466667 57.500303,35.650303 56.6881818,36.7609091 L56.5754545,36.915303 C56.4480303,37.0893939 56.2736364,37.1198485 56.1809091,37.1224242 C56.0866667,37.1257576 55.9125758,37.1042424 55.7756061,36.9374242 C55.1234848,36.1427273 54.3183333,35.515 53.4204545,35.08 L56.7198485,34.2774242 C57.3004545,34.1360606 57.7437879,33.6671212 57.8519697,33.0795455 L59.3975758,24.6815152 C59.5263636,23.9818182 59.1510606,23.2868182 58.4954545,23.0109091 L54.1975758,21.2010606 L45.2965152,15.7231818 C44.8004545,15.4178788 44.2562121,15.2363636 43.7033333,15.169697 L46.2865152,2.70424242 C46.4666667,1.92909091 46.2124242,1.12272727 45.6175758,0.590606061 C45.0122727,0.0492424242 44.1637879,-0.11 43.4036364,0.174848485 L35.9018182,2.98469697 C35.2071212,3.24484848 34.8028788,3.97 34.9469697,4.69772727 L35.3330303,6.6480303 C35.3407576,6.6869697 35.3612121,6.79015152 35.2451515,6.87681818 C35.1289394,6.96348485 35.0360606,6.91469697 35.0009091,6.89636364 L34.0972727,6.42242424 C33.6424242,6.18378788 33.0972727,6.19181818 32.649697,6.44424242 C32.2021212,6.69636364 31.9128788,7.15833333 31.8812121,7.67121212 L31.5404545,13.2042424 L28.0792424,8.49924242 C27.8401515,8.17409091 27.4812121,7.9580303 27.0821212,7.89848485 C26.6824242,7.83893939 26.2766667,7.94121212 25.9530303,8.18242424 L21.8640909,11.2319697 C21.3101515,11.645303 21.1059091,12.3807576 21.3675758,13.020303 L23.0159091,17.0489394 L21.9930303,18.3177273 L19.6640909,15.1410606 C19.5184848,14.9422727 19.3263636,14.7821212 19.105,14.6742424 L13.5406061,11.9678788 C12.9768182,11.6939394 12.3019697,11.7951515 11.8437879,12.2231818 L0.921212121,22.4236364 C0.489242424,22.8271212 0.331363636,23.444697 0.516515152,24.0059091 L1.85606061,28.0634848 C1.9869697,28.46 2.27575758,28.785 2.65424242,28.9615152 C2.73818182,29.0007576 2.82484848,29.0318182 2.91318182,29.0548485 L2.91318182,34.2718182 L0.813787879,36.6774242 C0.32030303,37.2427273 0.315151515,38.0840909 0.801515152,38.6557576 L1.21393939,39.1401515 L0.652727273,40.4021212 C0.0798484848,41.6907576 -0.121363636,43.110303 0.0709090909,44.5072727 L0.0818181818,44.5862121 C0.485151515,47.515 2.46924242,49.9409091 5.25969697,50.9172727 L11.8989394,53.24 C12.6889394,53.5166667 13.5531818,53.1001515 13.8295455,52.310303 C14.1057576,51.5204545 13.6895455,50.6560606 12.899697,50.379697 L6.26045455,48.0569697 C4.54848485,47.4578788 3.33121212,45.969697 3.08378788,44.1730303 L3.07287879,44.0942424 C2.95757576,43.2568182 3.07818182,42.4059091 3.42166667,41.6334848 L4.37030303,39.5001515 C4.6069697,38.9675758 4.51742424,38.3465152 4.13954545,37.9025758 L3.95545455,37.6862121 L5.56969697,35.8363636 C5.81060606,35.5604545 5.94333333,35.2065152 5.94333333,34.8401515 L5.94333333,27.1377273 C5.94333333,26.6354545 5.69439394,26.1657576 5.27863636,25.8839394 C4.97227273,25.6759091 4.60393939,25.589697 4.245,25.6337879 L3.6980303,23.9768182 L13.1513636,15.1478788 L17.4421212,17.234697 L19.6480303,20.2434848 L22.7006061,25.4328788 C22.8945455,25.7627273 23.2062121,26.0068182 23.5728788,26.1165152 L31.5071212,28.4865152 C32.1045455,28.665 32.7498485,28.4592424 33.1339394,27.9684848 L34.8501515,25.7754545 L37.4259091,28.0643939 C37.8143939,28.4095455 38.3531818,28.5313636 38.8522727,28.3875758 L40.3783333,27.9474242 L38.3566667,31.1442424 C35.8848485,32.1425758 34.1174242,34.4210606 33.7906061,37.095303 C33.3125758,41.0068182 35.5027273,44.8363636 39.1166667,46.4078788 L42.7607576,47.9922727 L43.2293939,50.4583333 C43.2845455,50.7483333 43.4231818,51.0160606 43.6284848,51.2283333 L45.5475758,53.2142424 C46.3507576,54.045 47.5493939,54.2739394 48.6024242,53.7966667 C49.6548485,53.3195455 50.2730303,52.2668182 50.1772727,51.1151515 L49.9719697,48.6539394 L51.7475758,45.0095455 C52.0024242,44.4865152 51.9351515,43.8637879 51.5745455,43.4071212 L49.0284848,40.1822727 C48.8393939,39.9427273 48.7175758,39.6560606 48.6763636,39.3536364 C48.6086364,38.8568182 48.7528788,38.375 49.0827273,37.9974242 C49.4124242,37.619697 49.87,37.4116667 50.3715152,37.4116667 C51.5618182,37.4116667 52.6778788,37.9393939 53.4330303,38.8598485 C54.1316667,39.7113636 55.1569697,40.180303 56.265303,40.1516667 C57.3665152,40.1209091 58.3710606,39.5931818 59.0213636,38.7040909 L59.0983333,38.5987879 L66.2806061,41.760303 C67.7286364,42.3975758 68.5736364,43.9351515 68.3356061,45.4992424 C68.1671212,46.6075758 67.4715152,47.5762121 66.4751515,48.09 L64.9251515,48.8890909 C63.9101515,49.4125758 63.3043939,50.4871212 63.3815152,51.6263636 C63.4589394,52.7657576 64.2045455,53.7484848 65.2807576,54.1298485 L68.7333333,55.3534848 L67.2698485,57.7683333 C67.0371212,58.1522727 66.6677273,58.4184848 66.2298485,58.5178788 C65.7922727,58.6172727 65.3442424,58.5363636 64.9684848,58.2904545 L61.210303,55.8298485 C60.7448485,55.525 60.1495455,55.4995455 59.6598485,55.7645455 C59.170303,56.0290909 58.8651515,56.5409091 58.8651515,57.0974242 L58.8651515,59.5640909 L56.9313636,60.0771212 C56.6401515,60.1545455 56.3787879,60.3166667 56.180303,60.5431818 L50.5739394,66.9427273 L48.3333333,66.9427273 L50.0583333,63.5860606 C50.299697,63.1163636 50.2790909,62.5548485 50.0039394,62.1042424 C49.7289394,61.6533333 49.2387879,61.3784848 48.7107576,61.3784848 L47.054697,61.3784848 L41.6145455,56.4392424 C41.1574242,56.0245455 40.494697,55.9280303 39.9389394,56.1960606 L38.1637879,57.0507576 L31.9662121,57.0507576 L25.7709091,54.8831818 C24.9812121,54.6065152 24.1168182,55.0230303 23.8404545,55.8128788 C23.5640909,56.6027273 23.980303,57.4671212 24.7701515,57.7433333 L31.2083333,59.9959091 C31.3690909,60.0522727 31.5383333,60.0809091 31.7087879,60.0809091 L38.509697,60.0809091 C38.7372727,60.0809091 38.9619697,60.029697 39.1669697,59.9309091 L40.3336364,59.3692424 L45.4512121,64.015303 C45.6722727,64.2160606 45.9462121,64.3457576 46.2378788,64.3909091 L44.5037879,67.7654545 C44.2624242,68.2351515 44.2830303,68.7966667 44.5581818,69.2472727 C44.8331818,69.6980303 45.3233333,69.9730303 45.8513636,69.9730303 L51.2610606,69.9730303 C51.6977273,69.9730303 52.1130303,69.784697 52.4006061,69.4563636 L58.1551515,62.8875758 L60.7687879,62.1940909 C61.4330303,62.0177273 61.8954545,61.4166667 61.8954545,60.7295455 L61.8954545,59.900303 L63.3084848,60.8256061 C64.3778788,61.5256061 65.6530303,61.7560606 66.9001515,61.4728788 C68.1469697,61.1901515 69.1984848,60.4322727 69.8612121,59.3387879 L72.2893939,55.3322727 C72.5257576,54.9425758 72.5739394,54.4672727 72.4207576,54.0380303 C72.2680303,53.6086364 71.9298485,53.2712121 71.500303,53.1189394 L71.500303,53.1189394 Z M52.7084848,23.8424242 C52.7743939,23.8830303 52.8433333,23.9184848 52.9145455,23.9483333 L56.1969697,25.3306061 L55.049697,31.564697 L52.6030303,32.1598485 L49.5410606,31.190303 C49.189697,31.0790909 49.0337879,30.8180303 48.9721212,30.6722727 C48.9104545,30.5265152 48.8316667,30.2328788 48.9965152,29.9031818 C49.914697,28.0672727 49.2919697,25.8657576 47.5483333,24.7822727 L42.9475758,21.9234848 C42.3566667,21.5563636 41.9780303,20.9487879 41.9087879,20.2566667 C41.8395455,19.5645455 42.090303,18.8940909 42.5966667,18.4171212 C42.7715152,18.2524242 42.9986364,18.1675758 43.2274242,18.1675758 C43.3933333,18.1675758 43.5601515,18.2122727 43.7084848,18.3034848 L52.7084848,23.8424242 Z M34.7777273,9.93954545 C35.5745455,10.0233333 36.3854545,9.80727273 37.0589394,9.30409091 C38.0740909,8.54575758 38.5519697,7.30242424 38.3059091,6.05939394 L38.169697,5.37090909 L43.0156061,3.55590909 L40.5098485,15.6475758 L34.4674242,14.9804545 L34.7777273,9.93954545 Z M31.3843939,25.2871212 L25.0106061,23.3831818 L23.6566667,21.0815152 L25.9366667,18.2536364 C26.2830303,17.8239394 26.3684848,17.2398485 26.1593939,16.7290909 L24.6169697,12.9586364 L26.5422727,11.5227273 L30.0566667,16.2998485 L31.7480303,24.8224242 L31.3843939,25.2871212 Z M38.814697,25.2442424 L35.6574242,22.4386364 C35.345,22.1609091 34.9319697,22.0245455 34.5145455,22.0624242 C34.4406061,22.0690909 34.3683333,22.0830303 34.2969697,22.1001515 L33.4671212,17.9183333 L39.0824242,18.5384848 C38.8919697,19.1821212 38.8240909,19.865303 38.8934848,20.5583333 C39.0571212,22.1940909 39.9518182,23.63 41.3481818,24.4975758 L41.3657576,24.5084848 L38.814697,25.2442424 Z M46.8,36.0043939 C45.8995455,37.0360606 45.4890909,38.4059091 45.6740909,39.7627273 C45.7883333,40.6013636 46.1260606,41.3957576 46.6504545,42.0598485 L48.6065152,44.5375758 L47.0654545,47.7007576 C46.9460606,47.9457576 46.895,48.2184848 46.9177273,48.4901515 L47.0801515,50.4390909 L46.1221212,49.4475758 L45.5884848,46.6389394 C45.495,46.1465152 45.1637879,45.7322727 44.7040909,45.5322727 L40.325303,43.6284848 C37.9324242,42.5880303 36.4822727,40.0524242 36.7987879,37.4627273 C37.0054545,35.7716667 38.1892424,34.3489394 39.8142424,33.8381818 C40.1562121,33.7306061 40.4489394,33.5054545 40.6406061,33.2025758 L44.7922727,26.6374242 L45.9493939,27.3563636 C46.3551515,27.6084848 46.5,28.1207576 46.2863636,28.5480303 C45.7689394,29.5828788 45.7307576,30.7875758 46.1816667,31.8530303 C46.6325758,32.9186364 47.5236364,33.73 48.6265152,34.0790909 L49.725,34.4269697 C48.5983333,34.5822727 47.5571212,35.1369697 46.8,36.0043939 L46.8,36.0043939 Z" id="XMLID_767_"></path>
                    <path d="M77.3012121,50.8059091 L76.2192424,49.2936364 C75.8363636,48.7581818 75.1513636,48.5315152 74.5239394,48.7325758 C73.8969697,48.9336364 73.4718182,49.5168182 73.4718182,50.175303 L73.4718182,51.6875758 C73.4718182,52.5243939 74.1501515,53.2027273 74.9869697,53.2027273 L76.0689394,53.2027273 C76.6366667,53.2027273 77.1568182,52.885303 77.4165152,52.380303 C77.6760606,51.8754545 77.6316667,51.2677273 77.3012121,50.8059091 L77.3012121,50.8059091 Z" id="XMLID_774_"></path>
                    <path d="M18.8340909,52.5463636 C18.4356061,52.5463636 18.044697,52.7084848 17.7628788,52.9904545 C17.4810606,53.2721212 17.3189394,53.6630303 17.3189394,54.0615152 C17.3189394,54.4601515 17.4809091,54.8493939 17.7628788,55.1327273 C18.044697,55.4145455 18.4356061,55.5766667 18.8340909,55.5766667 C19.2325758,55.5766667 19.6234848,55.414697 19.9051515,55.1327273 C20.1884848,54.8493939 20.3492424,54.4601515 20.3492424,54.0615152 C20.3492424,53.6630303 20.1884848,53.2721212 19.9051515,52.9904545 C19.6234848,52.7084848 19.2325758,52.5463636 18.8340909,52.5463636 L18.8340909,52.5463636 Z" id="XMLID_775_"></path>
                </g>
            </g>
        </g>
    </g>
</svg>