<?xml version="1.0" encoding="UTF-8"?>
<svg width="152px" height="180px" viewBox="0 0 152 180" version="1.1" xmlns="http://www.w3.org/2000/svg" xmlns:xlink="http://www.w3.org/1999/xlink">
    <!-- Generator: Sketch 63.1 (92452) - https://sketch.com -->
    <title>Second</title>
    <desc>Created with Sketch.</desc>
    <g id="Page-1" stroke="none" stroke-width="1" fill="none" fill-rule="evenodd">
        <g id="Partner-with-us" transform="translate(-640.000000, -1280.000000)">
            <g id="Second" transform="translate(641.000000, 1281.000000)">
                <g id="Group-12">
                    <circle id="Oval-Copy-5" stroke="#FFFFFF" opacity="0.131649926" cx="75" cy="75" r="75"></circle>
                    <g id="scooter-(1)" transform="translate(35.000000, 45.000000)" fill="#FFFFFF" fill-rule="nonzero" stroke="#6E5675">
                        <path d="M64.76078,30.7854893 L61.1476502,14.4622093 C62.1226986,14.3301842 62.9826792,13.8341812 63.5876938,13.1159157 C64.30172,13.5622577 65.1441377,13.8214633 66.0465116,13.8214633 L69.1472868,13.8214633 C70.0036338,13.8214633 70.6976744,13.1274225 70.6976744,12.2710757 L70.6976744,6.06952527 C70.6976744,5.21317829 70.0036338,4.51913767 69.1472868,4.51913767 L66.0465116,4.51913767 C65.1174902,4.51913767 64.2514535,4.79408915 63.5241037,5.26586729 C62.8143169,4.46342047 61.7781008,3.95591085 60.625,3.95591085 L51.4728682,3.95591085 C49.8286095,3.95591085 48.4211482,4.98728202 47.8609496,6.43653101 L44.1860465,6.43653101 C41.9634205,6.43653101 40.1550388,8.24491287 40.1550388,10.4675388 C40.1550388,12.6901647 41.9634205,14.4985465 44.1860465,14.4985465 L52.1663033,14.4985465 L52.1663033,17.6229409 C52.1663033,18.4792878 52.860344,19.1733285 53.7166909,19.1733285 C54.5730378,19.1733285 55.2670784,18.4792878 55.2670784,17.6229409 L55.2670784,14.4985465 L57.9802567,14.4985465 L61.8719719,32.0827278 L54.5064195,45.2016715 C53.7015504,46.6297239 52.1838664,47.5169574 50.5444526,47.5169574 L32.1572189,47.5169574 C31.3874758,41.0616521 25.8835998,36.0392442 19.2248062,36.0392442 C16.2784642,36.0392442 13.4986676,36.9991521 11.1858043,38.8148014 C11.1827761,38.8172239 11.1797481,38.8196464 11.17672,38.8220688 C8.42296512,40.9877665 6.69210264,44.0958091 6.28875969,47.5169574 L3.10440899,47.5169574 C3.30668605,36.371124 12.4364099,27.3667636 23.628876,27.3667636 L34.626938,27.3667636 C35.4947916,27.3667636 36.2015504,28.0735223 36.2015504,28.9419816 L36.2015504,42.8657946 C36.2015504,43.7221414 36.895591,44.4161822 37.751938,44.4161822 L46.0016958,44.4161822 C49.367127,44.4161822 52.4685078,42.5859981 54.0952034,39.6408673 C54.8479893,38.2782219 55.247093,36.7351017 55.2483042,35.1792636 L55.2561774,30.0284642 C55.2573885,29.1721172 54.5639535,28.4768653 53.7076065,28.4756541 C53.7070009,28.4756541 53.7063953,28.4756541 53.7057898,28.4756541 C52.8506541,28.4756541 52.1566133,29.1684836 52.1554022,30.0236192 L52.147529,35.1756298 C52.1469234,36.2100291 51.8816619,37.2359496 51.3814195,38.1413518 C50.299782,40.0987161 48.238251,41.3148014 46.0016958,41.3148014 L39.3023256,41.3148014 L39.3023256,28.941376 C39.3023256,28.1474079 39.102471,27.3988614 38.7518169,26.7429749 C40.1447433,25.9381056 41.0846657,24.4337451 41.0846657,22.7131783 C41.0846657,20.1483769 38.9976986,18.0620155 36.4335029,18.0620155 L30.7745882,18.0620155 C30.2307412,18.0620155 29.7093023,18.1564922 29.2242006,18.3284884 L29.2242006,4.72868217 C29.2242006,2.16388078 27.1372335,0.0775193798 24.5730378,0.0775193798 L14.5712209,0.0775193798 C7.32073643,0.0775193798 1.29118217,5.40092062 0.182897364,12.3437501 C0.136264496,12.4915212 0.110828527,12.6483769 0.110828527,12.8112887 C0.110828527,12.8209786 0.11203969,12.8300629 0.11203969,12.8391473 C0.0381541085,13.432655 8.81293316e-15,14.0364583 8.81293316e-15,14.6487403 L8.81293316e-15,22.7137839 C8.81293316e-15,25.0423935 1.72056682,26.9767442 3.95712217,27.3128634 L7.39038279,30.746124 C2.84156977,35.0557171 8.81293316e-15,41.149467 8.81293316e-15,47.8954699 L8.81293316e-15,49.067345 C8.81293316e-15,49.9236918 0.69404062,50.6177326 1.5503876,50.6177326 L10.2634448,50.6177326 C10.2434592,50.7176598 10.2325581,50.8218265 10.2325581,50.9278101 C10.2325581,53.177689 11.0652859,55.2361919 12.4364099,56.814438 L1.5503876,56.814438 C0.69404062,56.814438 8.81293316e-15,57.5090843 8.81293316e-15,58.3648256 C8.81293316e-15,59.2211724 0.69404062,59.9152132 1.5503876,59.9152132 L19.0455426,59.9152132 C19.1054991,59.9170301 19.1648498,59.9200581 19.2248062,59.9200581 C24.1830184,59.9200581 28.2170543,55.8860223 28.2170543,50.9278101 C28.2170543,50.8218265 28.2061532,50.7176598 28.1861676,50.6177326 L50.5444526,50.6177326 C52.9857073,50.6177326 55.2670784,49.4476744 56.6969476,47.5121124 L58.6603682,47.5121124 C58.2188712,48.5864825 57.9844961,49.7444282 57.9844961,50.9278101 C57.9844961,53.177689 58.8172239,55.2361919 60.1883479,56.814438 L40.0823643,56.814438 C39.2260174,56.814438 38.5319767,57.5090843 38.5319767,58.3648256 C38.5319767,59.2211724 39.2260174,59.9152132 40.0823643,59.9152132 L66.7974806,59.9152132 C66.8574371,59.9170301 66.9167878,59.9200581 66.9767442,59.9200581 C71.9349564,59.9200581 75.9689922,55.8860223 75.9689922,50.9278101 C75.9689922,49.7444282 75.7346172,48.5864825 75.2931202,47.5121124 L77.8294574,47.5121124 C78.6858043,47.5121124 79.379845,46.8180716 79.379845,45.9617248 C79.379845,37.7779797 72.8724564,31.0852713 64.76078,30.7854893 L64.76078,30.7854893 Z M30.7745882,21.1633963 L36.4335029,21.1633963 C37.2880329,21.1633963 37.9838905,21.8586482 37.9838905,22.7137839 C37.9838905,23.568314 37.2880329,24.2641715 36.4335029,24.2641715 L30.7745882,24.2641715 C29.9194526,24.2641715 29.2242006,23.568314 29.2242006,22.7137839 C29.2242006,21.8586482 29.9194526,21.1633963 30.7745882,21.1633963 Z M3.10077519,14.6487403 C3.10077519,14.5530524 3.10562016,14.4579699 3.10804264,14.362282 L20.07328,14.362282 C20.929627,14.362282 21.6236676,13.6682412 21.6236676,12.8118944 C21.6236676,11.9555474 20.929627,11.2615068 20.07328,11.2615068 L3.6119186,11.2615068 C5.06056202,6.58490791 9.42526651,3.17890016 14.5712209,3.17890016 L24.5724322,3.17890016 C25.4275678,3.17890016 26.1228198,3.87415209 26.1228198,4.72928775 L26.1228198,22.7137839 C26.1228198,23.568314 25.4275678,24.2641715 24.5724322,24.2641715 L4.65176837,24.2641715 C4.65176837,24.2641715 4.65116279,24.2641715 4.65055721,24.2641715 C3.79602713,24.2641715 3.10077519,23.568314 3.10077519,22.7137839 L3.10077519,14.6487403 Z M8.39450093,27.3649467 L11.9422239,27.3649467 C11.197311,27.7900921 10.47844,28.255814 9.78682171,28.7572674 L8.39450093,27.3649467 Z M25.1162791,50.9278101 C25.1162791,54.1563712 22.5054505,56.7853682 19.2847626,56.817466 C19.2647771,56.8168605 19.2447916,56.814438 19.2248062,56.814438 L19.0461482,56.814438 C15.879966,56.7193557 13.3333333,54.1164002 13.3333333,50.9278101 C13.3333333,50.8218265 13.3224322,50.7176598 13.3024467,50.6177326 L25.1471657,50.6177326 C25.1271802,50.7176598 25.1162791,50.8218265 25.1162791,50.9278101 L25.1162791,50.9278101 Z M9.41739349,47.5169574 C9.80135659,45.0539002 11.0949612,42.8288518 13.0929022,41.2596899 C13.0977471,41.2566619 13.1019864,41.2524225 13.1068313,41.2493944 C14.8667636,39.8697916 16.9821947,39.1400194 19.2248062,39.1400194 C24.1715116,39.1400194 28.2842781,42.7767684 29.0310078,47.5169574 L9.41739349,47.5169574 Z M66.0465116,7.61991287 L67.5968992,7.61991287 L67.5968992,10.7206881 L66.0465116,10.7206881 C65.191376,10.7206881 64.496124,10.025436 64.496124,9.17030047 C64.496124,8.31577039 65.191376,7.61991287 66.0465116,7.61991287 Z M43.255814,10.4675388 C43.255814,9.95457845 43.6730862,9.5373062 44.1860465,9.5373062 L47.6017442,9.5373062 L47.6017442,10.6274225 C47.6017442,10.8914729 47.6283915,11.1488614 47.678658,11.3977713 L44.1860465,11.3977713 C43.6730862,11.3977713 43.255814,10.9804991 43.255814,10.4675388 Z M53.7166909,11.3977713 L51.4728682,11.3977713 C51.0483285,11.3977713 50.7025194,11.0525678 50.7025194,10.6274225 L50.7025194,7.82703488 C50.7025194,7.40249519 51.0483285,7.05668605 51.4728682,7.05668605 L60.625,7.05668605 C61.0495397,7.05668605 61.3953488,7.40249519 61.3953488,7.82703488 L61.3953488,10.6274225 C61.3953488,11.0525678 61.0495397,11.3977713 60.625,11.3977713 L53.7166909,11.3977713 Z M72.8682171,50.9278101 C72.8682171,54.1563712 70.2573885,56.7853682 67.0367006,56.817466 C67.016715,56.8168605 66.9967296,56.814438 66.9767442,56.814438 L66.7980862,56.814438 C63.631904,56.7193557 61.0852713,54.1164002 61.0852713,50.9278101 C61.0852713,49.6959786 61.4692344,48.5053295 62.1765988,47.5121124 L71.7768896,47.5121124 C72.484254,48.5053295 72.8682171,49.6959786 72.8682171,50.9278101 L72.8682171,50.9278101 Z M58.505935,44.4113372 L64.4179991,33.8814195 C70.4554264,33.9922481 75.4263566,38.5495397 76.1797481,44.4113372 L58.505935,44.4113372 Z" id="Shape"></path>
                    </g>
                </g>
                <g id="Group-14-Copy" transform="translate(77.000000, 150.000000)">
                    <line x1="2.5" y1="0.5" x2="2.5" y2="25" id="Line-7" stroke="#FFFFFF" opacity="0.13" stroke-linecap="square"></line>
                    <circle id="Oval" fill="#FFFFFF" cx="2.5" cy="26" r="2.5"></circle>
                </g>
            </g>
        </g>
    </g>
</svg>