<?xml version="1.0" encoding="UTF-8"?>
<svg width="62px" height="62px" viewBox="0 0 62 62" version="1.1" xmlns="http://www.w3.org/2000/svg" xmlns:xlink="http://www.w3.org/1999/xlink">
    <!-- Generator: Sketch 63.1 (92452) - https://sketch.com -->
    <title>store (1)</title>
    <desc>Created with Sketch.</desc>
    <g id="Page-1" stroke="none" stroke-width="1" fill="none" fill-rule="evenodd">
        <g id="Partner-with-us" transform="translate(-869.000000, -1864.000000)" fill-rule="nonzero">
            <g id="store-(1)" transform="translate(870.000000, 1865.000000)">
                <path d="M55.991302,22.2043652 L55.991302,54.9942826 C55.991302,57.2025219 54.2004661,58.9933578 51.9922268,58.9933578 L8.00239945,58.9933578 C5.7941601,58.9933578 4.00306252,57.2025219 4.00306252,54.9942826 C4.00306252,23.995576 4.00069984,29.8024832 4.01207221,22.2043652 L55.991302,22.2043652 Z" id="Path" fill="#D6F4FC"></path>
                <path d="M55.991302,22.2043652 L55.991302,29.777364 C55.991302,31.416235 54.6776058,32.773921 53.0387348,32.7806382 C53.020489,32.7806382 6.98775908,32.7806382 6.95451677,32.7806382 C5.31614564,32.7734211 4.00323179,31.4157351 4.00323179,29.777364 C4.00323179,27.5923693 4.00169961,29.1250148 4.01207221,22.2043652 L55.991302,22.2043652 Z" id="Path" fill="#BDEFFC"></path>
                <path d="M40.1199723,41.1224904 L40.1199723,58.9933578 L19.874654,58.9933578 L19.874654,41.1224904 C19.874654,38.9142511 21.6654899,37.1234152 23.8737292,37.1234152 L36.120897,37.1234152 C38.3291364,37.1234152 40.1199723,38.9142511 40.1199723,41.1224904 Z" id="Path" fill="#E8F8FC"></path>
                <path d="M58.9906084,22.2043652 C58.9906084,26.205565 55.7459837,29.4526891 51.7422846,29.4526891 C47.7394602,29.4526891 44.4939608,26.2071896 44.4939608,22.2043652 C44.4939608,26.2071896 41.2484613,29.4526891 37.2456369,29.4526891 C33.2428126,29.4526891 29.9973131,26.2071896 29.9973131,22.2043652 C29.9973131,26.2071896 26.7518136,29.4526891 22.7489893,29.4526891 C18.7461649,29.4526891 15.5006655,26.2071896 15.5006655,22.2043652 C15.4944169,26.1809457 12.2214238,29.4526891 8.25234165,29.4526891 C4.28813337,29.4526891 1.01026638,26.1850697 1.00401782,22.2043652 C1.00401782,15.904822 0.986771809,16.2924824 1.04775771,16.0032992 C1.10774383,15.7194899 0.691964983,16.7243825 6.98013584,2.21148859 C7.29756244,1.48040766 8.01864569,1.00676719 8.8147116,1.00676719 L51.1799146,1.00676719 C51.9759806,1.00676719 52.6970638,1.48040766 53.0144904,2.21148859 C59.3072852,16.73513 58.8867574,15.7192399 58.9468685,16.0032992 C59.0077295,16.2918575 58.9906084,15.8979486 58.9906084,22.2043652 Z" id="Path" fill="#FF6D7A"></path>
                <path d="M58.9906084,22.2043652 C58.9906084,26.205565 55.7459837,29.4526891 51.7422846,29.4526891 C47.7394602,29.4526891 44.4939608,26.2071896 44.4939608,22.2043652 C44.4939608,26.2071896 41.2484613,29.4526891 37.2456369,29.4526891 C33.2428126,29.4526891 29.9973131,26.2071896 29.9973131,22.2043652 C29.9973131,26.2071896 26.7518136,29.4526891 22.7489893,29.4526891 C18.7461649,29.4526891 15.5006655,26.2071896 15.5006655,22.2043652 C15.4944169,26.1809457 12.2214238,29.4526891 8.25234165,29.4526891 C4.28813337,29.4526891 1.01026638,26.1850697 1.00401782,22.2043652 L1.00401782,16.4182033 C1.00401782,16.2782357 1.01901435,16.1395177 1.04775771,16.0032992 L58.9468685,16.0032992 C59.0077295,16.2918575 58.9906084,15.8979486 58.9906084,22.2043652 Z" id="Path" fill="#FE4F60"></path>
                <path d="M50.6396646,6.34890682 C37.9454751,4.60181083 25.1340627,6.84266763 14.771959,14.650612 C13.6056037,15.5295338 12.1839325,16.0031743 10.7235202,16.0031743 L1.04775771,16.0031743 C1.10774383,15.7193649 0.691964983,16.7242575 6.98013584,2.21136362 C7.29756244,1.48028268 8.01864569,1.00664221 8.8147116,1.00664221 L51.1799146,1.00664221 C51.9767304,1.00664221 52.6974387,1.4797828 53.0142405,2.21086374 L53.292801,2.85346514 C54.0733705,4.65467361 52.5844648,6.61659491 50.6396646,6.34890682 Z" id="Path" fill="#FF7C87"></path>
                <path d="M56.9910708,33.8741666 L56.9910708,54.9942826 C56.9910708,57.7506452 54.7485894,59.9931266 51.9922268,59.9931266 L8.00239945,59.9931266 C5.24603685,59.9931266 3.00355543,57.7506452 3.00355543,54.9942826 L3.00355543,33.8741666 C3.00355543,33.3220443 3.45120191,32.8743978 4.00332423,32.8743978 C4.55544655,32.8743978 5.00309303,33.3220443 5.00309303,33.8741666 L5.00309303,54.9942826 C5.00309303,56.6481501 6.3485319,57.993589 8.00239945,57.993589 L18.8748852,57.993589 L18.8748852,41.1224904 C18.8748852,38.3661278 21.1173666,36.1236464 23.8737292,36.1236464 L36.120897,36.1236464 C38.8772596,36.1236464 41.1197411,38.3661278 41.1197411,41.1224904 L41.1197411,53.9945138 C41.1197411,54.5466361 40.6720946,54.9942826 40.1199723,54.9942826 C39.5678499,54.9942826 39.1202035,54.5466361 39.1202035,53.9945138 L39.1202035,41.1224904 C39.1202035,39.4687479 37.7746396,38.123184 36.120897,38.123184 L23.8737292,38.123184 C22.2199866,38.123184 20.8744228,39.4687479 20.8744228,41.1224904 L20.8744228,57.993589 L28.9975443,57.993589 L28.9975443,42.2472303 C28.9975443,41.695108 29.4451908,41.2474615 29.9973131,41.2474615 C30.5494354,41.2474615 30.9970819,41.695108 30.9970819,42.2472303 L30.9970819,57.993589 L51.9922268,57.993589 C53.6459694,57.993589 54.9915332,56.6481501 54.9915332,54.9942826 L54.9915332,33.8741666 C54.9915332,33.3220443 55.4391797,32.8743978 55.991302,32.8743978 C56.5434243,32.8743978 56.9910708,33.3219193 56.9910708,33.8741666 Z M6.50274624,16.0032992 C6.50274624,16.5554216 6.95039272,17.003068 7.50251504,17.003068 C61.898436,17.003068 59.2014347,17.1002956 59.5988428,16.795491 C59.8065447,16.635653 59.9423883,16.4050813 59.9796297,16.1416422 C60.0353668,15.7398602 60.3941589,16.7278817 53.4093991,0.609234115 C53.2508108,0.243568675 52.8905191,0.00699838162 52.4919862,0.00699838162 L7.50239007,0.00699838162 C7.1039822,0.00699838162 6.74344058,0.243693646 6.5851022,0.609234115 L0.0866049726,15.6057662 C-0.0282434687,15.8709548 0.00412404631,15.4500522 0.00412404631,22.2058649 C0.0113723701,26.7529384 3.71139174,30.4523329 8.25221667,30.4523329 C11.3738698,30.4523329 14.0981148,28.7039872 15.498416,26.1338316 C18.6259428,31.8812525 26.8639127,31.887626 29.9971882,26.1377057 C33.1279642,31.8830021 41.36231,31.8842518 44.4938358,26.1377057 C45.8931372,28.7056118 48.6176322,30.4523329 51.7421596,30.4523329 C56.2902329,30.4523329 59.9902523,26.7523135 59.9902523,22.2042403 C59.9902523,21.6521179 59.5426058,21.2044715 58.9904835,21.2044715 C58.4383611,21.2044715 57.9907146,21.6521179 57.9907146,22.2042403 C57.9907146,25.6496935 55.1876129,28.4527953 51.7421596,28.4527953 C48.2967064,28.4527953 45.4936046,25.6496935 45.4936046,22.2042403 C45.4936046,21.6521179 45.0459581,21.2044715 44.4938358,21.2044715 C43.9417135,21.2044715 43.494067,21.6521179 43.494067,22.2042403 C43.494067,25.6496935 40.6909652,28.4527953 37.245512,28.4527953 C33.8000587,28.4527953 30.996957,25.6496935 30.996957,22.2042403 C30.996957,21.6521179 30.5493105,21.2044715 29.9971882,21.2044715 C29.4450658,21.2044715 28.9974193,21.6521179 28.9974193,22.2042403 C28.9974193,25.6496935 26.1943176,28.4527953 22.7488643,28.4527953 C19.3800184,28.4527953 16.5003093,25.7454214 16.5003093,22.1542518 C16.5003093,21.6021295 16.0526628,21.154483 15.5005405,21.154483 C14.9484182,21.154483 14.5007717,21.6021295 14.5007717,22.1542518 C14.5007717,25.7150534 11.6390585,28.4527953 8.25221667,28.4527953 C4.81226216,28.4527953 2.00903541,25.6489437 2.00366165,22.2042403 L2.00366165,16.2105013 L8.15886326,2.00653599 L51.835763,2.00653599 L57.4677106,15.0035304 L7.50251504,15.0035304 C6.95026775,15.0035304 6.50274624,15.4510519 6.50274624,16.0032992 Z" id="Shape" stroke="#000000" fill="#000000"></path>
            </g>
        </g>
    </g>
</svg>