<?xml version="1.0" encoding="UTF-8"?>
<svg width="152px" height="180px" viewBox="0 0 152 180" version="1.1" xmlns="http://www.w3.org/2000/svg" xmlns:xlink="http://www.w3.org/1999/xlink">
    <!-- Generator: Sketch 63.1 (92452) - https://sketch.com -->
    <title>Third</title>
    <desc>Created with Sketch.</desc>
    <g id="Page-1" stroke="none" stroke-width="1" fill="none" fill-rule="evenodd">
        <g id="Partner-with-us" transform="translate(-897.000000, -1360.000000)">
            <g id="Third" transform="translate(898.000000, 1361.000000)">
                <g id="Group-13">
                    <circle id="Oval-Copy-6" stroke="#FFFFFF" opacity="0.131649926" cx="75" cy="75" r="75"></circle>
                    <g id="smartphone-(3)" transform="translate(45.000000, 45.000000)" fill="#FFFFFF" fill-rule="nonzero">
                        <path d="M52.3579837,28.6879264 L52.3579837,54.9918776 C52.3579837,57.7479819 50.1157124,59.9902532 47.3596081,59.9902532 L23.8672431,59.9902532 C21.1111389,59.9902532 18.8688676,57.7479819 18.8688676,54.9918776 L18.8688676,5.00812236 C18.8688676,2.25201809 21.1111389,0.00974683228 23.8672431,0.00974683228 L47.3596081,0.00974683228 C50.1157124,0.00974683228 52.3579837,2.25201809 52.3579837,5.00812236 L52.3579837,7.13243196 C52.3579837,7.68450254 51.9103791,8.13210707 51.3583085,8.13210707 C50.806238,8.13210707 50.3586334,7.68450254 50.3586334,7.13243196 L50.3586334,5.00812236 C50.3586334,3.35453478 49.0131957,2.00909704 47.3596081,2.00909704 L28.3152975,2.00909704 L29.2752355,3.73703546 C29.5395247,4.21275585 30.0418614,4.50828481 30.5860595,4.50828481 L40.6406668,4.50828481 C41.1927374,4.50828481 41.6403419,4.95588934 41.6403419,5.50795991 C41.6403419,6.06003049 41.1927374,6.50763502 40.6406668,6.50763502 L30.5860595,6.50763502 C29.3162222,6.50763502 28.1442281,5.81798416 27.5274286,4.70796991 L26.0280409,2.00909704 L23.8672431,2.00909704 C22.2136556,2.00909704 20.8682178,3.35453478 20.8682178,5.00812236 L20.8682178,54.9918776 C20.8682178,56.6454652 22.2136556,57.990903 23.8672431,57.990903 L47.3596081,57.990903 C49.0131957,57.990903 50.3586334,56.6454652 50.3586334,54.9918776 L50.3586334,28.6879264 C50.3586334,28.1358558 50.806238,27.6882513 51.3583085,27.6882513 C51.9103791,27.6882513 52.3579837,28.1357309 52.3579837,28.6879264 Z M15.9948017,1.00942194 C15.9948017,0.457351361 15.5471972,0.00974683228 14.9951266,0.00974683228 L4.99837553,0.00974683228 C2.24227126,0.00974683228 0,2.25201809 0,5.00812236 L0,54.9918776 C0,57.7479819 2.24227126,59.9902532 4.99837553,59.9902532 L14.9951266,59.9902532 C15.5471972,59.9902532 15.9948017,59.5426486 15.9948017,58.9905781 C15.9948017,58.4385075 15.5471972,57.990903 14.9951266,57.990903 L4.99837553,57.990903 C3.34478794,57.990903 1.99935021,56.6454652 1.99935021,54.9918776 L1.99935021,5.00812236 C1.99935021,3.35453478 3.34478794,2.00909704 4.99837553,2.00909704 L14.9951266,2.00909704 C15.5471972,2.00909704 15.9948017,1.56149251 15.9948017,1.00942194 Z M9.12203534,15.2547922 C9.12203534,16.1505011 8.39327219,16.8792642 7.49756329,16.8792642 C6.6018544,16.8792642 5.87309125,16.1505011 5.87309125,15.2547922 C5.87309125,14.3590833 6.6018544,13.6303201 7.49756329,13.6303201 C8.39327219,13.6303201 9.12203534,14.3589583 9.12203534,15.2547922 Z M9.12203534,7.7572289 C9.12203534,8.6529378 8.39327219,9.38170095 7.49756329,9.38170095 C6.6018544,9.38170095 5.87309125,8.6529378 5.87309125,7.7572289 C5.87309125,6.86152001 6.6018544,6.13275685 7.49756329,6.13275685 C8.39327219,6.13275685 9.12203534,6.86139505 9.12203534,7.7572289 Z M12.4959388,9.8815385 C13.3916477,9.8815385 14.1204109,10.6103017 14.1204109,11.5060105 C14.1204109,12.4017194 13.3916477,13.1304826 12.4959388,13.1304826 C11.6002299,13.1304826 10.8714668,12.4017194 10.8714668,11.5060105 C10.8714668,10.6103017 11.6002299,9.8815385 12.4959388,9.8815385 Z M52.7267388,21.713818 C53.9073551,22.8945593 53.0596306,24.9135281 51.4012946,24.9135281 C49.7440832,24.9135281 48.8942344,22.8955589 50.0759753,21.713818 C50.8083623,20.9811811 51.9941019,20.9810562 52.7267388,21.713818 C52.7267388,21.713693 52.7267388,21.713693 52.7267388,21.713818 L52.7267388,21.713818 Z M46.8065379,18.4445055 C46.4161647,18.8348787 46.4161647,19.467798 46.8065379,19.8581711 C47.197036,20.2486692 47.8298303,20.2486692 48.2203284,19.8581711 C49.9782571,18.1001175 52.8240822,18.0999925 54.5821358,19.8581711 C54.7774473,20.0534826 55.0331142,20.1509509 55.2890311,20.1509509 C56.1716192,20.1509509 56.627596,19.0760503 55.9959263,18.4443806 C53.4567516,15.9050808 49.3464624,15.904706 46.8065379,18.4445055 L46.8065379,18.4445055 Z M59.7072202,14.7333367 C55.1164621,10.1427036 47.6867518,10.1423287 43.095494,14.7333367 C42.7051208,15.1237098 42.7051208,15.7566291 43.095494,16.1470022 C43.4859921,16.5373754 44.1187864,16.5373754 44.5092845,16.1470022 C48.3095494,12.3466124 54.4930398,12.3468623 58.2933047,16.1470022 C58.6839277,16.5375003 59.3165971,16.5373754 59.7070952,16.1470022 C60.0975933,15.7566291 60.0975933,15.1237098 59.7072202,14.7333367 Z" id="Shape"></path>
                    </g>
                </g>
                <g id="Group-14-Copy-2" transform="translate(75.000000, 150.000000)">
                    <line x1="2.5" y1="0.5" x2="2.5" y2="25" id="Line-7" stroke="#FFFFFF" opacity="0.13" stroke-linecap="square"></line>
                    <circle id="Oval" fill="#FFFFFF" cx="2.5" cy="26" r="2.5"></circle>
                </g>
            </g>
        </g>
    </g>
</svg>