<?xml version="1.0" encoding="UTF-8"?>
<svg width="48px" height="44px" viewBox="0 0 48 44" version="1.1" xmlns="http://www.w3.org/2000/svg" xmlns:xlink="http://www.w3.org/1999/xlink">
    <!-- Generator: Sketch 52.6 (67491) - http://www.bohemiancoding.com/sketch -->
    <title>Group</title>
    <desc>Created with Sketch.</desc>
    <g id="Page-1" stroke="none" stroke-width="1" fill="none" fill-rule="evenodd">
        <g id="2.0" transform="translate(-150.000000, -1570.000000)">
            <g id="Group" transform="translate(150.000000, 1570.000000)">
                <path d="M3.5,42 C23.1666667,30.3333333 33,18 33,5 L36.5,7 L44.5,14 L47,20.5 L44.5,24.5 L26,34 C27,39 26.8333333,41.8333333 25.5,42.5 C23.5,43.5 22.5,39.5 22.5,37 C22.5,35.3333333 22.5,34.6666667 22.5,35 L19,37 C19.3333333,38.6666667 19.1666667,39.5 18.5,39.5 C17.5,39.5 17,38.5 17,37.5 C17,36.8333333 15.8333333,37.3333333 13.5,39 L4.5,42.5 L3.5,42 Z" id="Path-4" fill="#DA2331" opacity="0.300000012"></path>
                <path d="M21.5694247,16.3135392 C20.7205826,17.1489076 18.4974247,17.408276 17.4372141,17.0335392 C16.2136352,16.6006971 16.0730036,14.7750129 16.5698457,13.719855 C17.1635299,12.3320655 18.5075299,10.7270129 20.2473194,11.3476445 C21.9913194,11.9708024 22.9791089,14.928276 21.5694247,16.3135392 Z M22.7534247,16.7084866 C24.0595299,14.7497497 23.2654247,11.7594339 21.2755299,10.5510129 C18.9344773,9.12953919 16.4814247,10.951855 15.5517405,13.1253287 C14.8511089,14.6133287 14.9513194,17.0815392 16.556372,17.9564866 C18.2372141,18.8735392 21.6544773,18.3573287 22.7534247,16.7084866 Z" id="Fill-54" fill="#2D2E2C"></path>
                <path d="M14.0991089,31.2693287 C12.4544773,32.2192234 11.1231089,30.6486971 10.9656352,29.0899602 C11.0641615,27.9126971 11.5155299,27.0225918 12.6784773,26.6655392 C13.715951,26.3472234 15.1197405,26.6781708 15.5113194,27.7964866 C15.9273194,28.9855392 15.1702668,30.6503813 14.0991089,31.2693287 Z M12.9833194,25.3880655 C11.0380562,25.6440655 10.0553194,27.0074339 9.82458257,28.823855 C9.79342467,28.8996445 9.77574046,28.9855392 9.78668783,29.0899602 C9.77826678,29.1893287 9.79258257,29.2743813 9.82205625,29.3468024 C10.108372,31.216276 11.459951,33.0815392 13.5786878,32.6941708 C15.5525826,32.3337497 17.0077405,30.0912234 16.8014247,28.1350129 C16.6035299,26.2545918 14.7795299,25.152276 12.9833194,25.3880655 Z" id="Fill-55" fill="#2D2E2C"></path>
                <path d="M29.2005826,20.4794339 C30.8266878,20.6192234 31.8877405,21.9800655 31.3824773,23.5733287 C30.4847931,26.3994339 25.3066878,25.600276 26.3424773,22.5105918 C26.9092141,21.3644866 27.8010036,20.3590129 29.2005826,20.4794339 Z M32.380372,24.2646971 C33.1946878,22.2764866 32.3391089,20.2444866 30.2902668,19.5236445 C28.0881615,18.7489076 26.2136352,20.0423813 25.2780562,22.0053287 C25.2654247,22.0305918 25.267951,22.0533287 25.2586878,22.0777497 C25.2468984,22.1021708 25.2275299,22.1190129 25.2174247,22.1468024 C23.6494247,26.5619602 30.7862668,28.1611181 32.380372,24.2646971 Z" id="Fill-56" fill="#2D2E2C"></path>
                <path d="M27.340372,14.4305918 C27.9946878,14.3472234 29.068372,15.1219602 28.9016352,15.856276 C28.7340562,16.5956445 29.8708984,16.9105918 30.0384773,16.1695392 C30.3626878,14.7396445 28.8056352,13.063855 27.340372,13.2516445 C27.0220562,13.2929076 26.7551089,13.4933287 26.7508984,13.8411181 C26.748372,14.128276 27.0245826,14.471855 27.340372,14.4305918" id="Fill-57" fill="#2D2E2C"></path>
                <path d="M20.7837405,24.3219602 C21.4633194,24.6537497 22.0612141,23.6373287 21.3791089,23.3046971 C21.1020562,23.1691181 20.8494247,23.0571181 20.7256352,22.7564866 C20.6052141,22.464276 20.6414247,22.1695392 20.8814247,21.9556445 C21.4490036,21.4503813 20.6127931,20.6183813 20.0477405,21.1219602 C19.5475299,21.5674339 19.3706878,22.2941708 19.5450036,22.9350129 C19.7268984,23.6053287 20.1765826,24.0263813 20.7837405,24.3219602" id="Fill-58" fill="#2D2E2C"></path>
                <path d="M35.6730036,22.7261708 C36.3542668,23.0495392 36.9538457,22.0331181 36.2675299,21.7080655 C35.3361615,21.2676445 35.3142668,20.272276 35.8548984,19.4975392 C36.2911089,18.8743813 35.2696352,18.2840655 34.8367931,18.9021708 C33.9492141,20.1729076 34.1917405,22.0255392 35.6730036,22.7261708" id="Fill-59" fill="#2D2E2C"></path>
                <path d="M8.8064773,33.7484866 C8.24479309,33.911855 7.31679309,33.6541708 7.49952993,32.8971181 C7.67805625,32.1594339 6.54205625,31.8453287 6.36352993,32.583855 C5.96774046,34.2183813 7.65616151,35.3114339 9.11974046,34.8853287 C9.84731941,34.6731181 9.53742467,33.5354339 8.8064773,33.7484866" id="Fill-60" fill="#2D2E2C"></path>
                <path d="M12.2557405,19.6600655 C12.6911089,19.7476445 12.9252141,19.8857497 12.9816352,20.3581708 C13.0287931,20.7514339 12.9218457,21.2533287 12.5058457,21.3956445 C11.7925826,21.6390129 12.0982668,22.7783813 12.8191089,22.5324866 C13.7513194,22.2141708 14.2262668,21.3215392 14.1605826,20.3581708 C14.0940562,19.3855392 13.5205826,18.7143813 12.5698457,18.5240655 C11.8287931,18.3750129 11.5121615,19.5110129 12.2557405,19.6600655" id="Fill-61" fill="#2D2E2C"></path>
                <path d="M21.180372,27.6634339 C20.3685826,27.9665918 19.8447931,28.7059602 19.9020562,29.5825918 C19.9517405,30.3354339 21.1306878,30.3413287 21.0810036,29.5825918 C21.0515299,29.1329076 21.2494247,28.8828024 21.6671089,28.7404866 C22.1193194,28.5872234 22.403951,28.6217497 22.7441615,28.9737497 C23.2721615,29.520276 24.1058457,28.6857497 23.5778457,28.1400655 C22.8932141,27.431855 22.0948984,27.3215392 21.180372,27.6634339" id="Fill-62" fill="#2D2E2C"></path>
                <path d="M37.3824773,27.6213287 C33.900372,29.3324866 30.4351089,31.0748024 27.0001615,32.8760655 C27.0136352,32.8188024 27.0212141,32.7539602 27.0380562,32.7000655 C27.8751089,29.9825918 31.3647931,29.0385918 33.6182668,27.8284866 C36.5201615,26.2697497 39.3151089,24.4760655 42.067951,22.6705918 C42.3357405,22.5813287 42.5496352,22.3312234 42.4561615,21.9792234 C42.0772141,20.5409076 42.4308984,18.9636445 43.8405826,18.256276 C45.0776352,17.6356445 45.8001615,18.4061708 46.1277405,19.5396445 C47.1121615,23.9261708 40.5210036,26.0785918 37.3824773,27.6213287 Z M25.2906878,41.9783813 C24.5546878,42.2436445 23.772372,41.0806971 23.5921615,40.6453287 C23.4010036,40.1813287 23.4456352,39.4335392 23.411951,38.928276 C23.3395299,37.8234339 23.4170036,36.7143813 23.363951,35.6112234 C23.276372,33.7670129 22.3214247,31.6028024 20.0654247,32.5830129 C18.1353194,33.4225918 18.7247931,35.7173287 18.6894247,37.408276 C18.6725826,38.2192234 18.5151089,40.1105918 17.6898457,38.3430129 C17.5332141,38.0070129 17.7420562,37.4857497 17.6687931,37.1135392 C17.5256352,36.3859602 17.260372,35.8234339 16.563951,35.5051181 C14.5690036,34.5905918 11.1618457,36.9097497 9.38921414,37.5531181 C7.60226678,38.2015392 3.84395099,40.2840655 2.07216151,39.4748024 C0.915950986,38.9476445 1.38500362,38.8659602 1.90626678,37.7897497 C2.30710888,36.960276 2.70879309,36.1316445 3.10879309,35.3013287 C5.45152993,30.4423813 7.65700362,25.5404866 9.74121414,20.5661708 C11.7698457,15.7215392 14.7045826,11.2255392 16.3188984,6.21669709 C21.4784773,6.91143393 26.1850036,9.03185498 30.547951,11.8326971 C34.4140562,14.3152234 39.4986878,17.3350129 41.0970036,21.8865918 C37.2906878,24.3455392 33.3420562,26.4036445 29.4094247,28.6276445 C26.2254247,30.4289076 25.5988984,32.4886971 25.8010036,36.0651181 C25.8456352,36.8533287 26.3407931,41.600276 25.2906878,41.9783813 Z M19.6704773,35.856276 C19.6628984,35.3585918 19.7066878,34.9004866 19.8826878,34.560276 C20.451951,33.4579602 21.4970036,34.1501708 21.964372,34.9644866 C21.1997405,35.2617497 20.4342668,35.5590129 19.6704773,35.856276 Z M2.3424773,41.2364866 C3.1744773,41.0832234 4.0376352,40.6486971 4.72395099,40.4204866 C7.05068783,39.6465918 9.41784572,38.8929076 11.6788984,37.9404866 C12.8544773,37.4453287 15.1441615,35.8689076 16.2178457,37.0268024 C13.6401615,38.2874339 5.50795099,42.871855 2.3424773,41.2364866 Z M24.716372,2.2343813 C27.9433194,3.11185498 31.0818457,4.33880235 33.9626878,6.04743393 C37.9871089,8.43480235 43.2637405,12.327855 45.3353194,16.9712234 C44.8367931,16.8171181 44.2675299,16.8196445 43.6308984,17.0537497 C42.4064773,17.5059602 41.6637405,18.4853287 41.3412141,19.6230129 C39.2586878,16.0491181 35.3311089,13.5935392 31.9702668,11.3560655 C27.1997405,8.18048656 22.0426878,5.80659183 16.3407931,5.04111814 C14.4325826,0.131644457 22.2801615,1.57164446 24.716372,2.2343813 Z M47.2645826,19.2263813 C46.6094247,15.0663813 43.836372,12.3985918 40.7576352,9.77543393 C37.4245826,6.93585498 34.1487931,4.49206551 30.0612141,2.80448656 C26.7054247,1.4183813 21.5938457,-0.640566069 17.8498457,0.192276036 C15.4868984,0.71774972 14.540372,3.39227604 15.2982668,5.5623813 C13.8060562,10.391855 10.9647931,14.688276 8.99258257,19.3257497 C6.71974046,24.6731181 4.38205625,29.9606971 1.85574046,35.1935392 C1.28900362,36.3674339 -0.433101645,38.6613287 0.101635197,40.1771181 C0.107529934,40.208276 0.101635197,40.2360655 0.11342467,40.2689076 C0.780372039,42.2099602 2.66668783,43.4326971 4.67174046,43.0133287 C8.71468783,42.167855 12.9041615,39.8891181 16.6658457,38.1131181 C16.7382668,38.9021708 16.5058457,39.7046971 17.2940562,40.3783813 C18.7416352,41.6154339 19.6241615,40.1543813 19.8094247,38.8112234 C19.8751089,38.3303813 19.811951,37.7013287 19.7487931,37.0579602 C19.788372,37.0512234 19.8237405,37.0545918 19.8666878,37.0377497 C20.6532141,36.7329076 21.4388984,36.4272234 22.2254247,36.1223813 C22.2212141,36.5164866 22.1782668,36.9249076 22.1824773,37.2777497 C22.1934247,38.2689076 22.2136352,39.2659602 22.3500562,40.2495392 C22.5690036,41.8293287 23.475951,44.6571181 25.5997405,43.3712234 C28.1605826,41.8200655 26.8974247,37.255855 26.8696352,34.2680655 C31.9517405,31.5901708 37.1997405,29.2246971 42.2624773,26.5173287 C45.5332141,24.7691181 48.1656352,23.2449076 47.2645826,19.2263813 Z" id="Fill-63" fill="#2D2E2C"></path>
                <path d="M21.852372,3.77290761 C24.812372,4.33459183 27.452372,5.42932867 30.0410036,6.95859183 C30.6953194,7.34511814 31.2890036,6.32617077 30.636372,5.94048656 C27.9500562,4.35311814 25.2418457,3.21964446 22.1656352,2.63606551 C21.4245826,2.49543393 21.1071089,3.63143393 21.852372,3.77290761" id="Fill-64" fill="#2D2E2C"></path>
                <path d="M32.4527931,8.35227604 C33.2115299,8.35227604 33.2132141,7.17417077 32.4527931,7.17417077 C31.6940562,7.17417077 31.6932141,8.35227604 32.4527931,8.35227604" id="Fill-65" fill="#2D2E2C"></path>
            </g>
        </g>
    </g>
</svg>