<?xml version="1.0" encoding="UTF-8"?>
<svg width="200px" height="200px" viewBox="0 0 200 200" version="1.1" xmlns="http://www.w3.org/2000/svg" xmlns:xlink="http://www.w3.org/1999/xlink">
    <!-- Generator: Sketch 54.1 (76490) - https://sketchapp.com -->
    <title>3</title>
    <desc>Created with Sketch.</desc>
    <g id="web" stroke="none" stroke-width="1" fill="none" fill-rule="evenodd">
        <g id="Group-3" transform="translate(4.000000, 18.000000)">
            <circle id="Oval" fill="#063A50" cx="52" cy="52" r="48"></circle>
            <circle id="Oval-Copy-11" stroke="#063A50" stroke-width="2" cx="52" cy="52" r="52"></circle>
            <g id="electrician" transform="translate(24.000000, 18.000000)" fill-rule="nonzero">
                <g id="Group" transform="translate(9.333333, 50.580645)" fill="#F5BB26">
                    <polygon id="Path" points="10.8059259 0 12.4444444 4.12903226 2.07407407 4.12903226 0.539259259 0"></polygon>
                    <polygon id="Path" points="2.07407407 8.25806452 12.4444444 8.25806452 12.4444444 12.3870968 2.07407407 12.3870968"></polygon>
                    <polygon id="Path" points="24.8888889 8.25806452 35.2592593 8.25806452 35.2592593 12.3870968 24.8888889 12.3870968"></polygon>
                    <polygon id="Path" points="26.5274074 0 36.7940741 0 35.2592593 4.12903226 24.8888889 4.12903226"></polygon>
                </g>
                <polygon id="Path" fill="#F5BB26" points="34.2222222 54.7096774 44.5925926 54.7096774 44.5925926 58.8387097 34.2222222 58.8387097"></polygon>
                <path d="M45.36,48.7329032 C45.7851852,48.9083871 46.2,49.0941935 46.6044444,49.3109677 L46.1274074,50.5806452 L35.8607407,50.5806452 L37.8,45.6567742 L45.36,48.7329032 Z" id="Path" fill="#F5BB26"></path>
                <polygon id="Path" fill="#F5BB26" points="11.4074074 54.7096774 21.7777778 54.7096774 21.7777778 58.8387097 11.4074074 58.8387097"></polygon>
                <path d="M10.64,48.7329032 L18.2,45.6567742 L20.1392593,50.5806452 L9.87259259,50.5806452 L9.39555556,49.3109677 C9.8,49.0941935 10.2148148,48.9083871 10.64,48.7329032 Z" id="Path" fill="#F5BB26"></path>
                <path d="M11.4074074,58.8387097 L11.4074074,62.9677419 L1.03703704,62.9677419 C1.03703704,57.1767742 4.29333333,51.9225806 9.39555556,49.3109677 L9.87259259,50.5806452 L11.4074074,54.7096774 L11.4074074,58.8387097 Z" id="Path" fill="#0E5776"></path>
                <path d="M28,48.516129 C30.9140741,48.516129 33.4237037,46.8025806 34.5748148,44.3354839 C34.6266667,44.3664516 34.6785185,44.3870968 34.7303704,44.4077419 L37.8,45.6567742 L35.8607407,50.5806452 L34.2222222,54.7096774 L34.2222222,58.8387097 L34.2222222,62.9677419 L21.7777778,62.9677419 L21.7777778,58.8387097 L21.7777778,54.7096774 L20.1392593,50.5806452 L18.2,45.6567742 L21.2696296,44.4077419 C21.3214815,44.3870968 21.3733333,44.3664516 21.4251852,44.3354839 C22.5762963,46.8025806 25.0859259,48.516129 28,48.516129 L28,48.516129 Z" id="Path" fill="#0E5776"></path>
                <path d="M54.962963,62.9677419 L44.5925926,62.9677419 L44.5925926,58.8387097 L44.5925926,54.7096774 L46.1274074,50.5806452 L46.6044444,49.3109677 C48.9585185,50.5187097 50.9185185,52.2735484 52.3392593,54.4 C54.0088889,56.8774194 54.962963,59.8503226 54.962963,62.9677419 Z" id="Path" fill="#0E5776"></path>
                <path d="M9.94518519,14.0283871 C10.3185185,13.6464516 10.837037,13.4193548 11.4074074,13.4193548 L11.9362963,13.4193548 L44.0740741,13.4193548 L44.5925926,13.4193548 C45.7333333,13.4193548 46.6666667,14.3483871 46.6666667,15.483871 C46.6666667,16.0516129 46.4385185,16.5677419 46.0548148,16.9393548 C45.6814815,17.3212903 45.162963,17.5483871 44.5925926,17.5483871 L43.5555556,17.5483871 L12.4444444,17.5483871 L11.4074074,17.5483871 C10.2666667,17.5483871 9.33333333,16.6193548 9.33333333,15.483871 C9.33333333,14.916129 9.56148148,14.4 9.94518519,14.0283871 Z" id="Path" fill="#F5BB26"></path>
                <path d="M38.2459259,4.55225806 C41.0666667,6.76129032 43.1511111,9.85806452 44.0740741,13.4193548 L11.9362963,13.4193548 C13.0148148,9.21806452 15.7318519,5.65677419 19.3614815,3.45806452 C21.0414815,2.42580645 22.9185185,1.69290323 24.92,1.32129032 C25.9155556,1.12516129 26.9422222,1.03225806 28,1.03225806 C29.0577778,1.03225806 30.0844444,1.12516129 31.08,1.32129032 C37.1881481,3.77806452 37.7274074,4.14967742 38.2459259,4.55225806 L38.2459259,4.55225806 Z" id="Path" fill="#F5BB26"></path>
                <path d="M12.4444444,17.5483871 L43.5555556,17.5483871 C42.6325926,18.6529032 41.5851852,19.6232258 40.4340741,20.4387097 C37.5096296,22.5651613 33.962963,23.7419355 30.2711111,23.7419355 L25.7288889,23.7419355 C22.037037,23.7419355 18.4903704,22.5651613 15.5659259,20.4387097 C14.4148148,19.6232258 13.3674074,18.6529032 12.4444444,17.5483871 Z" id="Path" fill="#F5BB26"></path>
                <path d="M11.4074074,25.8064516 L11.4074074,17.5483871 L12.4444444,17.5483871 C13.3674074,18.6529032 14.4148148,19.6232258 15.5659259,20.4387097 L15.5555556,20.4490323 L15.5555556,21.6774194 C13.2637037,21.6774194 11.4074074,23.5251613 11.4074074,25.8064516 L11.4074074,25.8064516 Z" id="Path" fill="#656D78"></path>
                <path d="M44.5925926,17.5483871 L44.5925926,25.8064516 C44.5925926,24.6709677 44.1259259,23.6387097 43.3792593,22.8851613 C42.6222222,22.1419355 41.5851852,21.6774194 40.4444444,21.6774194 L40.4444444,20.4490323 L40.4340741,20.4387097 C41.5851852,19.6232258 42.6325926,18.6529032 43.5555556,17.5483871 L44.5925926,17.5483871 Z" id="Path" fill="#656D78"></path>
                <path d="M43.3792593,22.8851613 C44.1259259,23.6387097 44.5925926,24.6709677 44.5925926,25.8064516 C44.5925926,28.0877419 42.7362963,29.9354839 40.4444444,29.9354839 L39.4696296,29.9354839 C40.1022222,28.0877419 40.4444444,26.1264516 40.4444444,24.1032258 L40.4444444,21.6774194 C41.5851852,21.6774194 42.6222222,22.1419355 43.3792593,22.8851613 Z" id="Path" fill="#F0D0B4"></path>
                <path d="M32.1481481,40.5780645 C32.1481481,42.1987097 33.0918519,43.6645161 34.5748148,44.3354839 C33.4237037,46.8025806 30.9140741,48.516129 28,48.516129 C25.0859259,48.516129 22.5762963,46.8025806 21.4251852,44.3354839 C22.9081481,43.6645161 23.8518519,42.1987097 23.8518519,40.5780645 L23.8518519,39.2980645 C25.1274074,40.123871 26.517037,40.7948387 28,41.2903226 C29.482963,40.7948387 30.8725926,40.123871 32.1481481,39.2980645 L32.1481481,40.5780645 Z" id="Path" fill="#F0D0B4"></path>
                <path d="M40.4444444,21.6774194 L40.4444444,24.1032258 C40.4444444,26.1264516 40.1022222,28.0877419 39.4696296,29.9354839 C38.162963,33.7754839 35.5911111,37.0787097 32.1481481,39.2980645 C30.8725926,40.123871 29.482963,40.7948387 28,41.2903226 C26.517037,40.7948387 25.1274074,40.123871 23.8518519,39.2980645 C21.9437037,38.0696774 20.3051852,36.5006452 18.9881481,34.6941935 C17.9407407,33.2490323 17.1111111,31.6387097 16.5303704,29.9354839 C15.8977778,28.0877419 15.5555556,26.1264516 15.5555556,24.1032258 L15.5555556,21.6774194 L15.5555556,20.4490323 L15.5659259,20.4387097 C18.4903704,22.5651613 22.037037,23.7419355 25.7288889,23.7419355 L30.2711111,23.7419355 C33.962963,23.7419355 37.5096296,22.5651613 40.4340741,20.4387097 L40.4444444,20.4490323 L40.4444444,21.6774194 Z" id="Path" fill="#F0D0B4"></path>
                <path d="M16.5303704,29.9354839 L15.5555556,29.9354839 C14.4148148,29.9354839 13.3777778,29.4709677 12.6207407,28.7277419 C11.8740741,27.9741935 11.4074074,26.9419355 11.4074074,25.8064516 C11.4074074,23.5251613 13.2637037,21.6774194 15.5555556,21.6774194 L15.5555556,24.1032258 C15.5555556,26.1264516 15.8977778,28.0877419 16.5303704,29.9354839 Z" id="Path" fill="#F0D0B4"></path>
                <ellipse id="Oval" fill="#000000" cx="34.2222222" cy="25.8064516" rx="1.03703704" ry="1.03225806"></ellipse>
                <ellipse id="Oval" fill="#000000" cx="21.7777778" cy="25.8064516" rx="1.03703704" ry="1.03225806"></ellipse>
                <path d="M32.1481481,32 L30.0740741,32 C30.0740741,33.1385806 29.1438519,34.0645161 28,34.0645161 C26.8561481,34.0645161 25.9259259,33.1385806 25.9259259,32 L23.8518519,32 C23.8518519,34.2771613 25.7122963,36.1290323 28,36.1290323 C30.2877037,36.1290323 32.1481481,34.2771613 32.1481481,32 Z" id="Path" fill="#000000"></path>
                <path d="M45.7571852,47.7821935 L35.1182222,43.4487742 C33.9432593,42.9708387 33.1851852,41.8456774 33.1851852,40.5821935 L33.1851852,39.8410323 C36.3761481,37.6464516 38.8131852,34.5496774 40.1945185,30.9677419 L40.4444444,30.9677419 C43.3035556,30.9677419 45.6296296,28.6523871 45.6296296,25.8064516 L45.6296296,18.3907097 C46.8336296,17.9633548 47.7037037,16.827871 47.7037037,15.483871 C47.7037037,13.8632258 46.4416296,12.544 44.8466667,12.4129032 C42.5931852,5.06941935 35.785037,0 28,0 C20.2128889,0 13.4068148,5.0683871 11.1543704,12.4129032 C9.55837037,12.5429677 8.2962963,13.8621935 8.2962963,15.483871 C8.2962963,16.827871 9.16637037,17.9633548 10.3703704,18.3907097 L10.3703704,25.8064516 C10.3703704,28.6523871 12.6964444,30.9677419 15.5555556,30.9677419 L15.8054815,30.9677419 C17.1868148,34.5507097 19.6238519,37.6464516 22.8148148,39.8410323 L22.8148148,40.5821935 C22.8148148,41.8456774 22.0567407,42.9698065 20.8817778,43.4487742 L10.2428148,47.7811613 C4.02059259,50.3153548 0,56.2756129 0,62.9677419 L0,64 L56,64 L56,62.9677419 C56,56.2756129 51.9794074,50.3153548 45.7571852,47.7821935 L45.7571852,47.7821935 Z M19.4382222,51.6129032 L20.2554074,53.6774194 L12.1302222,53.6774194 L11.3617778,51.6129032 L19.4382222,51.6129032 Z M11.3814815,49.5483871 L17.6171852,47.0090323 L18.621037,49.5483871 L11.3814815,49.5483871 Z M20.7407407,57.8064516 L12.4444444,57.8064516 L12.4444444,55.7419355 L20.7407407,55.7419355 L20.7407407,57.8064516 Z M12.4444444,59.8709677 L20.7407407,59.8709677 L20.7407407,61.9354839 L12.4444444,61.9354839 L12.4444444,59.8709677 Z M19.5367407,46.2276129 L20.972,45.6433548 C22.4736296,48.0392258 25.1294815,49.5483871 28,49.5483871 C30.8715556,49.5483871 33.5263704,48.0392258 35.028,45.6423226 L36.4632593,46.2265806 L33.1851852,54.5135484 L33.1851852,61.9354839 L22.8148148,61.9354839 L22.8148148,54.5135484 L19.5367407,46.2276129 Z M38.3828148,47.0090323 L44.6174815,49.5483871 L37.378963,49.5483871 L38.3828148,47.0090323 Z M43.5555556,57.8064516 L35.2592593,57.8064516 L35.2592593,55.7419355 L43.5555556,55.7419355 L43.5555556,57.8064516 Z M35.2592593,59.8709677 L43.5555556,59.8709677 L43.5555556,61.9354839 L35.2592593,61.9354839 L35.2592593,59.8709677 Z M43.8708148,53.6774194 L35.7456296,53.6774194 L36.5628148,51.6129032 L44.6402963,51.6129032 L43.8708148,53.6774194 Z M14.3328889,20.8051613 C13.636,20.9744516 12.9992593,21.2851613 12.4444444,21.7032258 L12.4444444,19.0606452 C13.0397037,19.6872258 13.664,20.2756129 14.3328889,20.8051613 L14.3328889,20.8051613 Z M14.9125926,18.5806452 L41.0874074,18.5806452 C38.1287407,21.2170323 34.3051852,22.7096774 30.2700741,22.7096774 L25.7288889,22.7096774 C21.6937778,22.7096774 17.8712593,21.2170323 14.9125926,18.5806452 L14.9125926,18.5806452 Z M43.5555556,19.0616774 L43.5555556,21.7042581 C42.9997037,21.2861935 42.364,20.9754839 41.6671111,20.8061935 C42.336,20.2756129 42.9602963,19.6872258 43.5555556,19.0616774 L43.5555556,19.0616774 Z M40.8737778,28.859871 C41.2668148,27.3300645 41.4814815,25.7372903 41.4814815,24.1042581 L41.4814815,22.8996129 C42.6854815,23.3269677 43.5555556,24.4624516 43.5555556,25.8064516 C43.5555556,27.3672258 42.3847407,28.6492903 40.8737778,28.859871 L40.8737778,28.859871 Z M18.649037,5.17677419 L19.7244444,10.5249032 L21.7580741,10.1192258 L20.5219259,3.968 C21.6180741,3.37032258 22.790963,2.90374194 24.0188148,2.58064516 L24.8961481,10.4350968 L26.9577778,10.2069677 L26.0628148,2.1956129 C26.6995556,2.11819355 27.3445926,2.06451613 28,2.06451613 C28.6554074,2.06451613 29.2994074,2.11819355 29.9371852,2.19767742 L29.0432593,10.2090323 L31.1048889,10.4371613 L31.9811852,2.58270968 C33.209037,2.90580645 34.3819259,3.3723871 35.4780741,3.97109677 L34.2419259,10.1212903 L36.2755556,10.5269677 L37.3499259,5.17987097 C39.7517037,6.97703226 41.6308148,9.45651613 42.6688889,12.3891613 L13.3300741,12.3891613 C14.3681481,9.45445161 16.2472593,6.97393548 18.649037,5.17677419 L18.649037,5.17677419 Z M11.4074074,14.4516129 L44.5925926,14.4516129 C45.165037,14.4516129 45.6296296,14.9150968 45.6296296,15.483871 C45.6296296,16.0526452 45.165037,16.516129 44.5925926,16.516129 L11.4074074,16.516129 C10.834963,16.516129 10.3703704,16.0526452 10.3703704,15.483871 C10.3703704,14.9150968 10.834963,14.4516129 11.4074074,14.4516129 Z M12.4444444,25.8064516 C12.4444444,24.4624516 13.3145185,23.3269677 14.5185185,22.8996129 L14.5185185,24.1042581 C14.5185185,25.7372903 14.7331852,27.3300645 15.1262222,28.859871 C13.6152593,28.6492903 12.4444444,27.3672258 12.4444444,25.8064516 Z M16.5925926,24.1042581 L16.5925926,22.3298065 C19.3386667,23.9050323 22.4725926,24.7741935 25.7299259,24.7741935 L30.2711111,24.7741935 C33.5284444,24.7741935 36.6613333,23.9050323 39.4084444,22.3298065 L39.4084444,24.1042581 C39.4084444,31.3538065 34.8392593,37.7785806 28.001037,40.1981935 C21.1617778,37.7785806 16.5925926,31.3538065 16.5925926,24.1042581 Z M27.6722963,42.2699355 L28,42.3783226 L28.3277037,42.2699355 C29.3097778,41.9437419 30.2514074,41.5452903 31.1474074,41.0797419 C31.2874074,42.5362581 32.0299259,43.8379355 33.1841481,44.6988387 C32.0423704,46.4144516 30.0958519,47.483871 28,47.483871 C25.9041481,47.483871 23.9576296,46.4144516 22.8158519,44.6988387 C23.969037,43.8379355 24.7115556,42.5352258 24.8515556,41.0797419 C25.7475556,41.5442581 26.6902222,41.9437419 27.6722963,42.2699355 Z M8.85007407,50.8087742 L10.3703704,54.8944516 L10.3703704,61.9354839 L2.11037037,61.9354839 C2.43911111,57.3243871 4.96014815,53.2190968 8.85007407,50.8087742 Z M45.6296296,61.9354839 L45.6296296,54.8944516 L47.1499259,50.8087742 C51.0398519,53.2180645 53.5608889,57.3243871 53.8896296,61.9354839 L45.6296296,61.9354839 Z" id="Shape" fill="#000000"></path>
            </g>
        </g>
        <g id="Group-3-Copy" transform="translate(56.000000, 118.000000)">
            <circle id="Oval" fill="#063A50" cx="36" cy="36" r="33.2307692"></circle>
            <circle id="Oval-Copy-11" stroke="#063A50" stroke-width="1.38461538" cx="36" cy="36" r="36"></circle>
            <g id="electrician" transform="translate(16.615385, 12.461538)" fill-rule="nonzero">
                <g id="Group" transform="translate(6.461538, 35.017370)" fill="#F5BB26">
                    <polygon id="Path" points="7.48102564 0 8.61538462 2.85856079 1.43589744 2.85856079 0.373333333 0"></polygon>
                    <polygon id="Path" points="1.43589744 5.71712159 8.61538462 5.71712159 8.61538462 8.57568238 1.43589744 8.57568238"></polygon>
                    <polygon id="Path" points="17.2307692 5.71712159 24.4102564 5.71712159 24.4102564 8.57568238 17.2307692 8.57568238"></polygon>
                    <polygon id="Path" points="18.3651282 0 25.4728205 0 24.4102564 2.85856079 17.2307692 2.85856079"></polygon>
                </g>
                <polygon id="Path" fill="#F5BB26" points="23.6923077 37.8759305 30.8717949 37.8759305 30.8717949 40.7344913 23.6923077 40.7344913"></polygon>
                <path d="M31.4030769,33.7381638 C31.6974359,33.8596526 31.9846154,33.9882878 32.2646154,34.1383623 L31.934359,35.0173697 L24.8266667,35.0173697 L26.1692308,31.608536 L31.4030769,33.7381638 Z" id="Path" fill="#F5BB26"></path>
                <polygon id="Path" fill="#F5BB26" points="7.8974359 37.8759305 15.0769231 37.8759305 15.0769231 40.7344913 7.8974359 40.7344913"></polygon>
                <path d="M7.36615385,33.7381638 L12.6,31.608536 L13.9425641,35.0173697 L6.83487179,35.0173697 L6.50461538,34.1383623 C6.78461538,33.9882878 7.07179487,33.8596526 7.36615385,33.7381638 Z" id="Path" fill="#F5BB26"></path>
                <path d="M7.8974359,40.7344913 L7.8974359,43.5930521 L0.717948718,43.5930521 C0.717948718,39.5839206 2.97230769,35.946402 6.50461538,34.1383623 L6.83487179,35.0173697 L7.8974359,37.8759305 L7.8974359,40.7344913 Z" id="Path" fill="#0E5776"></path>
                <path d="M19.3846154,33.5880893 C21.4020513,33.5880893 23.1394872,32.4017866 23.9364103,30.6937965 C23.9723077,30.7152357 24.0082051,30.7295285 24.0441026,30.7438213 L26.1692308,31.608536 L24.8266667,35.0173697 L23.6923077,37.8759305 L23.6923077,40.7344913 L23.6923077,43.5930521 L15.0769231,43.5930521 L15.0769231,40.7344913 L15.0769231,37.8759305 L13.9425641,35.0173697 L12.6,31.608536 L14.7251282,30.7438213 C14.7610256,30.7295285 14.7969231,30.7152357 14.8328205,30.6937965 C15.6297436,32.4017866 17.3671795,33.5880893 19.3846154,33.5880893 L19.3846154,33.5880893 Z" id="Path" fill="#0E5776"></path>
                <path d="M38.0512821,43.5930521 L30.8717949,43.5930521 L30.8717949,40.7344913 L30.8717949,37.8759305 L31.934359,35.0173697 L32.2646154,34.1383623 C33.894359,34.9744913 35.2512821,36.1893797 36.2348718,37.6615385 C37.3907692,39.3766749 38.0512821,41.4348387 38.0512821,43.5930521 Z" id="Path" fill="#0E5776"></path>
                <path d="M6.88512821,9.7119603 C7.14358974,9.44754342 7.5025641,9.29032258 7.8974359,9.29032258 L8.26358974,9.29032258 L30.5128205,9.29032258 L30.8717949,9.29032258 C31.6615385,9.29032258 32.3076923,9.93349876 32.3076923,10.719603 C32.3076923,11.1126551 32.1497436,11.4699752 31.8841026,11.7272457 C31.625641,11.9916625 31.2666667,12.1488834 30.8717949,12.1488834 L30.1538462,12.1488834 L8.61538462,12.1488834 L7.8974359,12.1488834 C7.10769231,12.1488834 6.46153846,11.5057072 6.46153846,10.719603 C6.46153846,10.3265509 6.61948718,9.96923077 6.88512821,9.7119603 Z" id="Path" fill="#F5BB26"></path>
                <path d="M26.4779487,3.15156328 C28.4307692,4.6808933 29.8738462,6.8248139 30.5128205,9.29032258 L8.26358974,9.29032258 C9.01025641,6.38173697 10.8912821,3.91622829 13.4041026,2.39404467 C14.5671795,1.67940447 15.8666667,1.17200993 17.2523077,0.914739454 C17.9415385,0.778957816 18.6523077,0.714640199 19.3846154,0.714640199 C20.1169231,0.714640199 20.8276923,0.778957816 21.5169231,0.914739454 C25.745641,2.61558313 26.1189744,2.8728536 26.4779487,3.15156328 L26.4779487,3.15156328 Z" id="Path" fill="#F5BB26"></path>
                <path d="M8.61538462,12.1488834 L30.1538462,12.1488834 C29.5148718,12.9135484 28.7897436,13.5853102 27.9928205,14.1498759 C25.9682051,15.6220347 23.5128205,16.4367246 20.9569231,16.4367246 L17.8123077,16.4367246 C15.2564103,16.4367246 12.8010256,15.6220347 10.7764103,14.1498759 C9.97948718,13.5853102 9.25435897,12.9135484 8.61538462,12.1488834 Z" id="Path" fill="#F5BB26"></path>
                <path d="M7.8974359,17.866005 L7.8974359,12.1488834 L8.61538462,12.1488834 C9.25435897,12.9135484 9.97948718,13.5853102 10.7764103,14.1498759 L10.7692308,14.1570223 L10.7692308,15.0074442 C9.1825641,15.0074442 7.8974359,16.2866501 7.8974359,17.866005 L7.8974359,17.866005 Z" id="Path" fill="#656D78"></path>
                <path d="M30.8717949,12.1488834 L30.8717949,17.866005 C30.8717949,17.0799007 30.5487179,16.3652605 30.0317949,15.8435732 C29.5076923,15.3290323 28.7897436,15.0074442 28,15.0074442 L28,14.1570223 L27.9928205,14.1498759 C28.7897436,13.5853102 29.5148718,12.9135484 30.1538462,12.1488834 L30.8717949,12.1488834 Z" id="Path" fill="#656D78"></path>
                <path d="M30.0317949,15.8435732 C30.5487179,16.3652605 30.8717949,17.0799007 30.8717949,17.866005 C30.8717949,19.4453598 29.5866667,20.7245658 28,20.7245658 L27.3251282,20.7245658 C27.7630769,19.4453598 28,18.0875434 28,16.6868486 L28,15.0074442 C28.7897436,15.0074442 29.5076923,15.3290323 30.0317949,15.8435732 Z" id="Path" fill="#F0D0B4"></path>
                <path d="M22.2564103,28.0925062 C22.2564103,29.2144913 22.9097436,30.2292804 23.9364103,30.6937965 C23.1394872,32.4017866 21.4020513,33.5880893 19.3846154,33.5880893 C17.3671795,33.5880893 15.6297436,32.4017866 14.8328205,30.6937965 C15.8594872,30.2292804 16.5128205,29.2144913 16.5128205,28.0925062 L16.5128205,27.2063524 C17.3958974,27.7780645 18.3579487,28.2425806 19.3846154,28.5856079 C20.4112821,28.2425806 21.3733333,27.7780645 22.2564103,27.2063524 L22.2564103,28.0925062 Z" id="Path" fill="#F0D0B4"></path>
                <path d="M28,15.0074442 L28,16.6868486 C28,18.0875434 27.7630769,19.4453598 27.3251282,20.7245658 C26.4205128,23.3830273 24.64,25.6698759 22.2564103,27.2063524 C21.3733333,27.7780645 20.4112821,28.2425806 19.3846154,28.5856079 C18.3579487,28.2425806 17.3958974,27.7780645 16.5128205,27.2063524 C15.1917949,26.3559305 14.0574359,25.2696774 13.145641,24.0190571 C12.4205128,23.0185608 11.8461538,21.9037221 11.4441026,20.7245658 C11.0061538,19.4453598 10.7692308,18.0875434 10.7692308,16.6868486 L10.7692308,15.0074442 L10.7692308,14.1570223 L10.7764103,14.1498759 C12.8010256,15.6220347 15.2564103,16.4367246 17.8123077,16.4367246 L20.9569231,16.4367246 C23.5128205,16.4367246 25.9682051,15.6220347 27.9928205,14.1498759 L28,14.1570223 L28,15.0074442 Z" id="Path" fill="#F0D0B4"></path>
                <path d="M11.4441026,20.7245658 L10.7692308,20.7245658 C9.97948718,20.7245658 9.26153846,20.4029777 8.7374359,19.8884367 C8.22051282,19.3667494 7.8974359,18.6521092 7.8974359,17.866005 C7.8974359,16.2866501 9.1825641,15.0074442 10.7692308,15.0074442 L10.7692308,16.6868486 C10.7692308,18.0875434 11.0061538,19.4453598 11.4441026,20.7245658 Z" id="Path" fill="#F0D0B4"></path>
                <ellipse id="Oval" fill="#000000" cx="23.6923077" cy="17.866005" rx="1" ry="1"></ellipse>
                <ellipse id="Oval" fill="#000000" cx="15.0769231" cy="17.866005" rx="1" ry="1"></ellipse>
                <path d="M22.2564103,22.1538462 L20.8205128,22.1538462 C20.8205128,22.9420943 20.1765128,23.5831266 19.3846154,23.5831266 C18.5927179,23.5831266 17.9487179,22.9420943 17.9487179,22.1538462 L16.5128205,22.1538462 C16.5128205,23.7303424 17.8008205,25.0124069 19.3846154,25.0124069 C20.9684103,25.0124069 22.2564103,23.7303424 22.2564103,22.1538462 Z" id="Path" fill="#000000"></path>
                <path d="M31.6780513,33.0799801 L24.3126154,30.0799206 C23.4991795,29.7490422 22.974359,28.9700844 22.974359,28.0953648 L22.974359,27.5822531 C25.1834872,26.062928 26.8706667,23.9190074 27.8269744,21.439206 L28,21.439206 C29.9793846,21.439206 31.5897436,19.836268 31.5897436,17.866005 L31.5897436,12.7320298 C32.4232821,12.4361687 33.025641,11.6500645 33.025641,10.719603 C33.025641,9.59761787 32.1518974,8.68430769 31.0476923,8.59354839 C29.4875897,3.50959801 24.7742564,0 19.3846154,0 C13.9935385,0 9.28164103,3.50888337 7.72225641,8.59354839 C6.61733333,8.68359305 5.74358974,9.59690323 5.74358974,10.719603 C5.74358974,11.6500645 6.34594872,12.4361687 7.17948718,12.7320298 L7.17948718,17.866005 C7.17948718,19.836268 8.78984615,21.439206 10.7692308,21.439206 L10.9422564,21.439206 C11.8985641,23.9197221 13.5857436,26.062928 15.7948718,27.5822531 L15.7948718,28.0953648 C15.7948718,28.9700844 15.2700513,29.7483275 14.4566154,30.0799206 L7.09117949,33.0792655 C2.78348718,34.8337072 0,38.9600397 0,43.5930521 L0,44.3076923 L38.7692308,44.3076923 L38.7692308,43.5930521 C38.7692308,38.9600397 35.9857436,34.8337072 31.6780513,33.0799801 L31.6780513,33.0799801 Z M13.4572308,35.7320099 L14.0229744,37.1612903 L8.39784615,37.1612903 L7.86584615,35.7320099 L13.4572308,35.7320099 Z M7.87948718,34.3027295 L12.1965128,32.5447146 L12.8914872,34.3027295 L7.87948718,34.3027295 Z M14.3589744,40.0198511 L8.61538462,40.0198511 L8.61538462,38.5905707 L14.3589744,38.5905707 L14.3589744,40.0198511 Z M8.61538462,41.4491315 L14.3589744,41.4491315 L14.3589744,42.8784119 L8.61538462,42.8784119 L8.61538462,41.4491315 Z M13.5254359,32.003732 L14.5190769,31.5992457 C15.5586667,33.2579256 17.3973333,34.3027295 19.3846154,34.3027295 C21.3726154,34.3027295 23.2105641,33.2579256 24.2501538,31.598531 L25.2437949,32.0030174 L22.974359,37.7401489 L22.974359,42.8784119 L15.7948718,42.8784119 L15.7948718,37.7401489 L13.5254359,32.003732 Z M26.5727179,32.5447146 L30.8890256,34.3027295 L25.8777436,34.3027295 L26.5727179,32.5447146 Z M30.1538462,40.0198511 L24.4102564,40.0198511 L24.4102564,38.5905707 L30.1538462,38.5905707 L30.1538462,40.0198511 Z M24.4102564,41.4491315 L30.1538462,41.4491315 L30.1538462,42.8784119 L24.4102564,42.8784119 L24.4102564,41.4491315 Z M30.3721026,37.1612903 L24.7469744,37.1612903 L25.3127179,35.7320099 L30.9048205,35.7320099 L30.3721026,37.1612903 Z M9.92276923,14.4035732 C9.44030769,14.5207742 8.99948718,14.7358809 8.61538462,15.0253102 L8.61538462,13.1958313 C9.02748718,13.6296179 9.45969231,14.0369628 9.92276923,14.4035732 L9.92276923,14.4035732 Z M10.3241026,12.8635236 L28.4451282,12.8635236 C26.3968205,14.6887146 23.7497436,15.7220844 20.9562051,15.7220844 L17.8123077,15.7220844 C15.0187692,15.7220844 12.3724103,14.6887146 10.3241026,12.8635236 L10.3241026,12.8635236 Z M30.1538462,13.1965459 L30.1538462,15.0260248 C29.7690256,14.7365955 29.3289231,14.5214888 28.8464615,14.4042878 C29.3095385,14.0369628 29.7417436,13.6296179 30.1538462,13.1965459 L30.1538462,13.1965459 Z M28.2972308,19.9799107 C28.5693333,18.9208139 28.7179487,17.8181241 28.7179487,16.6875633 L28.7179487,15.8535782 C29.5514872,16.1494392 30.1538462,16.9355434 30.1538462,17.866005 C30.1538462,18.9465409 29.3432821,19.8341241 28.2972308,19.9799107 L28.2972308,19.9799107 Z M12.9108718,3.5839206 L13.6553846,7.28647146 L15.0632821,7.00561787 L14.2074872,2.74707692 C14.966359,2.33330025 15.778359,2.01028288 16.6284103,1.7866005 L17.2357949,7.22429777 L18.6630769,7.06636228 L18.0434872,1.5200397 C18.4843077,1.46644169 18.9308718,1.4292804 19.3846154,1.4292804 C19.838359,1.4292804 20.2842051,1.46644169 20.7257436,1.52146898 L20.1068718,7.06779156 L21.5341538,7.22572705 L22.1408205,1.78802978 C22.9908718,2.01171216 23.8028718,2.33472953 24.5617436,2.74922084 L23.7059487,7.00704715 L25.1138462,7.28790074 L25.857641,3.58606452 C27.5204103,4.8302531 28.8213333,6.54681886 29.54,8.57711166 L9.22851282,8.57711166 C9.94717949,6.54538958 11.2481026,4.82810918 12.9108718,3.5839206 L12.9108718,3.5839206 Z M7.8974359,10.0049628 L30.8717949,10.0049628 C31.2681026,10.0049628 31.5897436,10.3258362 31.5897436,10.719603 C31.5897436,11.1133697 31.2681026,11.4342432 30.8717949,11.4342432 L7.8974359,11.4342432 C7.50112821,11.4342432 7.17948718,11.1133697 7.17948718,10.719603 C7.17948718,10.3258362 7.50112821,10.0049628 7.8974359,10.0049628 Z M8.61538462,17.866005 C8.61538462,16.9355434 9.21774359,16.1494392 10.0512821,15.8535782 L10.0512821,16.6875633 C10.0512821,17.8181241 10.1998974,18.9208139 10.472,19.9799107 C9.42594872,19.8341241 8.61538462,18.9465409 8.61538462,17.866005 Z M11.4871795,16.6875633 L11.4871795,15.4590968 C13.3883077,16.5496377 15.5579487,17.1513648 17.8130256,17.1513648 L20.9569231,17.1513648 C23.212,17.1513648 25.3809231,16.5496377 27.2827692,15.4590968 L27.2827692,16.6875633 C27.2827692,21.7064814 24.1194872,26.154402 19.3853333,27.8295186 C14.6504615,26.154402 11.4871795,21.7064814 11.4871795,16.6875633 Z M19.1577436,29.2638015 L19.3846154,29.3388387 L19.6114872,29.2638015 C20.2913846,29.0379752 20.9432821,28.7621241 21.5635897,28.4398213 C21.6605128,29.4481787 22.1745641,30.34934 22.973641,30.9453499 C22.1831795,32.1330819 20.8355897,32.8734491 19.3846154,32.8734491 C17.933641,32.8734491 16.5860513,32.1330819 15.7955897,30.9453499 C16.5939487,30.34934 17.108,29.447464 17.2049231,28.4398213 C17.8252308,28.7614094 18.4778462,29.0379752 19.1577436,29.2638015 Z M6.12697436,35.1753052 L7.17948718,38.0038511 L7.17948718,42.8784119 L1.46102564,42.8784119 C1.68861538,39.6861141 3.43394872,36.8439901 6.12697436,35.1753052 Z M31.5897436,42.8784119 L31.5897436,38.0038511 L32.6422564,35.1753052 C35.3352821,36.8432754 37.0806154,39.6861141 37.3082051,42.8784119 L31.5897436,42.8784119 Z" id="Shape" fill="#000000"></path>
            </g>
        </g>
        <g id="Group-3-Copy-2" transform="translate(108.000000, 51.000000)">
            <circle id="Oval" fill="#063A50" cx="43.5" cy="43.5" r="40.5"></circle>
            <circle id="Oval-Copy-11" stroke="#063A50" stroke-width="1.38461538" cx="44" cy="44" r="44"></circle>
            <g id="electrician" transform="translate(20.000000, 15.000000)" fill-rule="nonzero">
                <g id="Group" transform="translate(7.833333, 42.677419)" fill="#F5BB26">
                    <polygon id="Path" points="9.06925926 0 10.4444444 3.48387097 1.74074074 3.48387097 0.452592593 0"></polygon>
                    <polygon id="Path" points="1.74074074 6.96774194 10.4444444 6.96774194 10.4444444 10.4516129 1.74074074 10.4516129"></polygon>
                    <polygon id="Path" points="20.8888889 6.96774194 29.5925926 6.96774194 29.5925926 10.4516129 20.8888889 10.4516129"></polygon>
                    <polygon id="Path" points="22.2640741 0 30.8807407 0 29.5925926 3.48387097 20.8888889 3.48387097"></polygon>
                </g>
                <polygon id="Path" fill="#F5BB26" points="28.7222222 46.1612903 37.4259259 46.1612903 37.4259259 49.6451613 28.7222222 49.6451613"></polygon>
                <path d="M38.07,41.1183871 C38.4268519,41.2664516 38.775,41.4232258 39.1144444,41.606129 L38.7140741,42.6774194 L30.0974074,42.6774194 L31.725,38.5229032 L38.07,41.1183871 Z" id="Path" fill="#F5BB26"></path>
                <polygon id="Path" fill="#F5BB26" points="9.57407407 46.1612903 18.2777778 46.1612903 18.2777778 49.6451613 9.57407407 49.6451613"></polygon>
                <path d="M8.93,41.1183871 L15.275,38.5229032 L16.9025926,42.6774194 L8.28592593,42.6774194 L7.88555556,41.606129 C8.225,41.4232258 8.57314815,41.2664516 8.93,41.1183871 Z" id="Path" fill="#F5BB26"></path>
                <path d="M9.57407407,49.6451613 L9.57407407,53.1290323 L0.87037037,53.1290323 C0.87037037,48.2429032 3.60333333,43.8096774 7.88555556,41.606129 L8.28592593,42.6774194 L9.57407407,46.1612903 L9.57407407,49.6451613 Z" id="Path" fill="#0E5776"></path>
                <path d="M23.5,40.9354839 C25.9457407,40.9354839 28.052037,39.4896774 29.0181481,37.4080645 C29.0616667,37.4341935 29.1051852,37.4516129 29.1487037,37.4690323 L31.725,38.5229032 L30.0974074,42.6774194 L28.7222222,46.1612903 L28.7222222,49.6451613 L28.7222222,53.1290323 L18.2777778,53.1290323 L18.2777778,49.6451613 L18.2777778,46.1612903 L16.9025926,42.6774194 L15.275,38.5229032 L17.8512963,37.4690323 C17.8948148,37.4516129 17.9383333,37.4341935 17.9818519,37.4080645 C18.947963,39.4896774 21.0542593,40.9354839 23.5,40.9354839 L23.5,40.9354839 Z" id="Path" fill="#0E5776"></path>
                <path d="M46.1296296,53.1290323 L37.4259259,53.1290323 L37.4259259,49.6451613 L37.4259259,46.1612903 L38.7140741,42.6774194 L39.1144444,41.606129 C41.0901852,42.6251613 42.7351852,44.1058065 43.9275926,45.9 C45.3288889,47.9903226 46.1296296,50.4987097 46.1296296,53.1290323 Z" id="Path" fill="#0E5776"></path>
                <path d="M8.34685185,11.8364516 C8.66018519,11.5141935 9.09537037,11.3225806 9.57407407,11.3225806 L10.017963,11.3225806 L36.9907407,11.3225806 L37.4259259,11.3225806 C38.3833333,11.3225806 39.1666667,12.1064516 39.1666667,13.0645161 C39.1666667,13.5435484 38.9751852,13.9790323 38.6531481,14.2925806 C38.3398148,14.6148387 37.9046296,14.8064516 37.4259259,14.8064516 L36.5555556,14.8064516 L10.4444444,14.8064516 L9.57407407,14.8064516 C8.61666667,14.8064516 7.83333333,14.0225806 7.83333333,13.0645161 C7.83333333,12.5854839 8.02481481,12.15 8.34685185,11.8364516 Z" id="Path" fill="#F5BB26"></path>
                <path d="M32.0992593,3.84096774 C34.4666667,5.70483871 36.2161111,8.31774194 36.9907407,11.3225806 L10.017963,11.3225806 C10.9231481,7.77774194 13.2035185,4.77290323 16.2498148,2.91774194 C17.6598148,2.04677419 19.2351852,1.4283871 20.915,1.11483871 C21.7505556,0.949354839 22.6122222,0.870967742 23.5,0.870967742 C24.3877778,0.870967742 25.2494444,0.949354839 26.085,1.11483871 C31.2114815,3.18774194 31.6640741,3.50129032 32.0992593,3.84096774 L32.0992593,3.84096774 Z" id="Path" fill="#F5BB26"></path>
                <path d="M10.4444444,14.8064516 L36.5555556,14.8064516 C35.7809259,15.7383871 34.9018519,16.5570968 33.9357407,17.2451613 C31.4812963,19.0393548 28.5046296,20.0322581 25.4061111,20.0322581 L21.5938889,20.0322581 C18.4953704,20.0322581 15.5187037,19.0393548 13.0642593,17.2451613 C12.0981481,16.5570968 11.2190741,15.7383871 10.4444444,14.8064516 Z" id="Path" fill="#F5BB26"></path>
                <path d="M9.57407407,21.7741935 L9.57407407,14.8064516 L10.4444444,14.8064516 C11.2190741,15.7383871 12.0981481,16.5570968 13.0642593,17.2451613 L13.0555556,17.253871 L13.0555556,18.2903226 C11.132037,18.2903226 9.57407407,19.8493548 9.57407407,21.7741935 L9.57407407,21.7741935 Z" id="Path" fill="#656D78"></path>
                <path d="M37.4259259,14.8064516 L37.4259259,21.7741935 C37.4259259,20.816129 37.0342593,19.9451613 36.4075926,19.3093548 C35.7722222,18.6822581 34.9018519,18.2903226 33.9444444,18.2903226 L33.9444444,17.253871 L33.9357407,17.2451613 C34.9018519,16.5570968 35.7809259,15.7383871 36.5555556,14.8064516 L37.4259259,14.8064516 Z" id="Path" fill="#656D78"></path>
                <path d="M36.4075926,19.3093548 C37.0342593,19.9451613 37.4259259,20.816129 37.4259259,21.7741935 C37.4259259,23.6990323 35.867963,25.2580645 33.9444444,25.2580645 L33.1262963,25.2580645 C33.6572222,23.6990323 33.9444444,22.0441935 33.9444444,20.3370968 L33.9444444,18.2903226 C34.9018519,18.2903226 35.7722222,18.6822581 36.4075926,19.3093548 Z" id="Path" fill="#F0D0B4"></path>
                <path d="M26.9814815,34.2377419 C26.9814815,35.6051613 27.7735185,36.8419355 29.0181481,37.4080645 C28.052037,39.4896774 25.9457407,40.9354839 23.5,40.9354839 C21.0542593,40.9354839 18.947963,39.4896774 17.9818519,37.4080645 C19.2264815,36.8419355 20.0185185,35.6051613 20.0185185,34.2377419 L20.0185185,33.1577419 C21.0890741,33.8545161 22.2553704,34.4206452 23.5,34.8387097 C24.7446296,34.4206452 25.9109259,33.8545161 26.9814815,33.1577419 L26.9814815,34.2377419 Z" id="Path" fill="#F0D0B4"></path>
                <path d="M33.9444444,18.2903226 L33.9444444,20.3370968 C33.9444444,22.0441935 33.6572222,23.6990323 33.1262963,25.2580645 C32.0296296,28.4980645 29.8711111,31.2851613 26.9814815,33.1577419 C25.9109259,33.8545161 24.7446296,34.4206452 23.5,34.8387097 C22.2553704,34.4206452 21.0890741,33.8545161 20.0185185,33.1577419 C18.417037,32.1212903 17.0418519,30.7974194 15.9364815,29.2732258 C15.0574074,28.053871 14.3611111,26.6951613 13.8737037,25.2580645 C13.3427778,23.6990323 13.0555556,22.0441935 13.0555556,20.3370968 L13.0555556,18.2903226 L13.0555556,17.253871 L13.0642593,17.2451613 C15.5187037,19.0393548 18.4953704,20.0322581 21.5938889,20.0322581 L25.4061111,20.0322581 C28.5046296,20.0322581 31.4812963,19.0393548 33.9357407,17.2451613 L33.9444444,17.253871 L33.9444444,18.2903226 Z" id="Path" fill="#F0D0B4"></path>
                <path d="M13.8737037,25.2580645 L13.0555556,25.2580645 C12.0981481,25.2580645 11.2277778,24.866129 10.5924074,24.2390323 C9.96574074,23.6032258 9.57407407,22.7322581 9.57407407,21.7741935 C9.57407407,19.8493548 11.132037,18.2903226 13.0555556,18.2903226 L13.0555556,20.3370968 C13.0555556,22.0441935 13.3427778,23.6990323 13.8737037,25.2580645 Z" id="Path" fill="#F0D0B4"></path>
                <ellipse id="Oval" fill="#000000" cx="28.7222222" cy="21.7741935" rx="1" ry="1"></ellipse>
                <ellipse id="Oval" fill="#000000" cx="18.2777778" cy="21.7741935" rx="1" ry="1"></ellipse>
                <path d="M26.9814815,27 L25.2407407,27 C25.2407407,27.9606774 24.4600185,28.7419355 23.5,28.7419355 C22.5399815,28.7419355 21.7592593,27.9606774 21.7592593,27 L20.0185185,27 C20.0185185,28.9213548 21.579963,30.483871 23.5,30.483871 C25.420037,30.483871 26.9814815,28.9213548 26.9814815,27 Z" id="Path" fill="#000000"></path>
                <path d="M38.4033519,40.3162258 L29.4742222,36.6599032 C28.4880926,36.2566452 27.8518519,35.3072903 27.8518519,34.2412258 L27.8518519,33.615871 C30.5299815,31.7641935 32.5753519,29.1512903 33.7346852,26.1290323 L33.9444444,26.1290323 C36.3440556,26.1290323 38.2962963,24.1754516 38.2962963,21.7741935 L38.2962963,15.5171613 C39.3067963,15.1565806 40.037037,14.1985161 40.037037,13.0645161 C40.037037,11.6970968 38.9777963,10.584 37.6391667,10.4733871 C35.7478519,4.27732258 30.0338704,0 23.5,0 C16.9643889,0 11.2521481,4.27645161 9.3617037,10.4733871 C8.0222037,10.583129 6.96296296,11.6962258 6.96296296,13.0645161 C6.96296296,14.1985161 7.6932037,15.1565806 8.7037037,15.5171613 L8.7037037,21.7741935 C8.7037037,24.1754516 10.6559444,26.1290323 13.0555556,26.1290323 L13.2653148,26.1290323 C14.4246481,29.1521613 16.4700185,31.7641935 19.1481481,33.615871 L19.1481481,34.2412258 C19.1481481,35.3072903 18.5119074,36.2557742 17.5257778,36.6599032 L8.59664815,40.3153548 C3.37442593,42.4535806 0,47.4825484 0,53.1290323 L0,54 L47,54 L47,53.1290323 C47,47.4825484 43.6255741,42.4535806 38.4033519,40.3162258 L38.4033519,40.3162258 Z M16.3142222,43.5483871 L17.0000741,45.2903226 L10.1807222,45.2903226 L9.53577778,43.5483871 L16.3142222,43.5483871 Z M9.55231481,41.8064516 L14.7858519,39.663871 L15.6283704,41.8064516 L9.55231481,41.8064516 Z M17.4074074,48.7741935 L10.4444444,48.7741935 L10.4444444,47.0322581 L17.4074074,47.0322581 L17.4074074,48.7741935 Z M10.4444444,50.516129 L17.4074074,50.516129 L17.4074074,52.2580645 L10.4444444,52.2580645 L10.4444444,50.516129 Z M16.3969074,39.0045484 L17.6015,38.5115806 C18.8617963,40.5330968 21.0908148,41.8064516 23.5,41.8064516 C25.9100556,41.8064516 28.1382037,40.5330968 29.3985,38.5107097 L30.6030926,39.0036774 L27.8518519,45.9958065 L27.8518519,52.2580645 L19.1481481,52.2580645 L19.1481481,45.9958065 L16.3969074,39.0045484 Z M32.2141481,39.663871 L37.4468148,41.8064516 L31.3716296,41.8064516 L32.2141481,39.663871 Z M36.5555556,48.7741935 L29.5925926,48.7741935 L29.5925926,47.0322581 L36.5555556,47.0322581 L36.5555556,48.7741935 Z M29.5925926,50.516129 L36.5555556,50.516129 L36.5555556,52.2580645 L29.5925926,52.2580645 L29.5925926,50.516129 Z M36.8201481,45.2903226 L30.0007963,45.2903226 L30.6866481,43.5483871 L37.465963,43.5483871 L36.8201481,45.2903226 Z M12.0293889,17.5543548 C11.4445,17.6971935 10.9100926,17.9593548 10.4444444,18.3120968 L10.4444444,16.0824194 C10.944037,16.6110968 11.468,17.1075484 12.0293889,17.5543548 L12.0293889,17.5543548 Z M12.5159259,15.6774194 L34.4840741,15.6774194 C32.0009074,17.901871 28.7918519,19.1612903 25.4052407,19.1612903 L21.5938889,19.1612903 C18.2072778,19.1612903 14.9990926,17.901871 12.5159259,15.6774194 L12.5159259,15.6774194 Z M36.5555556,16.0832903 L36.5555556,18.3129677 C36.089037,17.9602258 35.5555,17.6980645 34.9706111,17.5552258 C35.532,17.1075484 36.055963,16.6110968 36.5555556,16.0832903 L36.5555556,16.0832903 Z M34.3047778,24.3505161 C34.6346481,23.0597419 34.8148148,21.7158387 34.8148148,20.3379677 L34.8148148,19.3215484 C35.8253148,19.682129 36.5555556,20.6401935 36.5555556,21.7741935 C36.5555556,23.0910968 35.5729074,24.1728387 34.3047778,24.3505161 L34.3047778,24.3505161 Z M15.6518704,4.36790323 L16.5544444,8.8803871 L18.2612407,8.53809677 L17.2237593,3.348 C18.1437407,2.84370968 19.1281296,2.45003226 20.1586481,2.17741935 L20.8949815,8.8046129 L22.6252778,8.61212903 L21.8741481,1.85254839 C22.4085556,1.78722581 22.9499259,1.74193548 23.5,1.74193548 C24.0500741,1.74193548 24.5905741,1.78722581 25.1258519,1.85429032 L24.3755926,8.61387097 L26.1058889,8.80635484 L26.8413519,2.17916129 C27.8718704,2.45177419 28.8562593,2.84545161 29.7762407,3.3506129 L28.7387593,8.53983871 L30.4455556,8.88212903 L31.3472593,4.37051613 C33.363037,5.88687097 34.9401481,7.97893548 35.8113889,10.4533548 L11.1877407,10.4533548 C12.0589815,7.97719355 13.6360926,5.88425806 15.6518704,4.36790323 L15.6518704,4.36790323 Z M9.57407407,12.1935484 L37.4259259,12.1935484 C37.9063704,12.1935484 38.2962963,12.5846129 38.2962963,13.0645161 C38.2962963,13.5444194 37.9063704,13.9354839 37.4259259,13.9354839 L9.57407407,13.9354839 C9.09362963,13.9354839 8.7037037,13.5444194 8.7037037,13.0645161 C8.7037037,12.5846129 9.09362963,12.1935484 9.57407407,12.1935484 Z M10.4444444,21.7741935 C10.4444444,20.6401935 11.1746852,19.682129 12.1851852,19.3215484 L12.1851852,20.3379677 C12.1851852,21.7158387 12.3653519,23.0597419 12.6952222,24.3505161 C11.4270926,24.1728387 10.4444444,23.0910968 10.4444444,21.7741935 Z M13.9259259,20.3379677 L13.9259259,18.8407742 C16.2306667,20.169871 18.8609259,20.9032258 21.5947593,20.9032258 L25.4061111,20.9032258 C28.1399444,20.9032258 30.7693333,20.169871 33.0749444,18.8407742 L33.0749444,20.3379677 C33.0749444,26.4547742 29.2400926,31.8756774 23.5008704,33.9172258 C17.7607778,31.8756774 13.9259259,26.4547742 13.9259259,20.3379677 Z M23.224963,35.6652581 L23.5,35.7567097 L23.775037,35.6652581 C24.5992778,35.3900323 25.3895741,35.0538387 26.1415741,34.6610323 C26.2590741,35.8899677 26.8822593,36.9882581 27.8509815,37.7146452 C26.8927037,39.1621935 25.2590185,40.0645161 23.5,40.0645161 C21.7409815,40.0645161 20.1072963,39.1621935 19.1490185,37.7146452 C20.1168704,36.9882581 20.7400556,35.8890968 20.8575556,34.6610323 C21.6095556,35.0529677 22.4007222,35.3900323 23.224963,35.6652581 Z M7.42774074,42.8699032 L8.7037037,46.3171935 L8.7037037,52.2580645 L1.7712037,52.2580645 C2.04711111,48.3674516 4.16298148,44.9036129 7.42774074,42.8699032 Z M38.2962963,52.2580645 L38.2962963,46.3171935 L39.5722593,42.8699032 C42.8370185,44.9027419 44.9528889,48.3674516 45.2287963,52.2580645 L38.2962963,52.2580645 Z" id="Shape" fill="#000000"></path>
            </g>
        </g>
        <circle id="Oval" stroke="#F9F9F9" stroke-width="4" fill="#F5BB26" cx="100" cy="39" r="28"></circle>
        <polyline id="Shape" stroke="#063A50" stroke-width="4" stroke-linecap="round" stroke-linejoin="round" transform="translate(94.970563, 33.970563) rotate(-315.000000) translate(-94.970563, -33.970563) " points="106.970563 21.9705627 106.970563 45.9705627 95.1948931 45.9705627"></polyline>
    </g>
</svg>