<?xml version="1.0" encoding="UTF-8"?>
<svg width="200px" height="200px" viewBox="0 0 200 200" version="1.1" xmlns="http://www.w3.org/2000/svg" xmlns:xlink="http://www.w3.org/1999/xlink">
    <!-- Generator: Sketch 54.1 (76490) - https://sketchapp.com -->
    <title>4</title>
    <desc>Created with Sketch.</desc>
    <defs>
        <circle id="path-1" cx="77.5" cy="77.5" r="77.5"></circle>
    </defs>
    <g id="web" stroke="none" stroke-width="1" fill="none" fill-rule="evenodd">
        <g id="Group-28" transform="translate(8.000000, 19.000000)">
            <circle id="Mask-Copy-2" stroke="#063A50" stroke-width="2" cx="81" cy="81" r="81"></circle>
            <g id="icon" transform="translate(3.000000, 3.000000)">
                <mask id="mask-2" fill="white">
                    <use xlink:href="#path-1"></use>
                </mask>
                <use id="Mask" fill="#063A50" xlink:href="#path-1"></use>
                <g mask="url(#mask-2)" fill="#F5BB26" fill-rule="nonzero" id="Shape">
                    <g transform="translate(-1.000000, 32.111111)">
                        <path d="M130,11.5499468 L130,50.5498207 C130,50.5498207 121.613369,52.1942465 119.885634,52.4105226 C118.163384,52.6262787 112.751121,54.3655852 108.828654,50.6132478 C102.779623,44.8432005 81.287543,23.5709437 81.287543,23.5709437 C81.287543,23.5709437 77.5818588,19.9519592 71.6318171,23.0796436 C66.169929,25.9447813 58.0734739,30.1437079 54.6916583,31.7787756 C48.2986478,35.1653674 43,29.7922594 43,25.6993912 C43,22.5246564 44.9904863,20.3699543 47.8358291,18.7853163 C55.5470372,14.1327819 71.8000198,5.0530872 78.569397,1.47335473 C82.684096,-0.704742607 85.6488001,-0.891384675 91.2979574,3.84511271 C98.2553873,9.66870915 104.447025,14.9770903 104.447025,14.9770903 C104.447025,14.9770903 106.466502,16.6545294 109.687167,15.9789267 C117.595831,14.3147449 130,11.5499468 130,11.5499468 Z M43.6030869,78.3503576 C44.6387201,75.66504 44.2925561,72.6615654 42.307051,70.6010209 C40.5229551,68.7579141 37.9181492,68.2721543 35.4344486,68.8465679 C36.1291155,66.3603278 35.7455284,63.7140912 33.9518168,61.8465916 C32.1622634,60.008206 29.5623952,59.5127416 27.0789545,60.0924009 C27.7684238,57.6098328 27.3858762,54.9638586 25.5911251,53.101867 C22.7807518,50.1925543 17.9196427,50.317404 14.726202,53.3895983 C11.5496538,56.4659893 9.5147709,62.0396365 12.3498331,65.3203508 C15.1802174,68.5845409 18.4323916,66.5984864 20.9116742,66.0282696 C20.221945,68.5108376 18.1553565,70.8200324 20.7003894,74.0695343 C23.2430834,77.3206099 26.782688,75.3481945 29.2645694,74.7832234 C28.5725014,77.256349 26.5960921,79.7974076 29.0434091,82.8103245 C31.5128161,85.8324216 35.5573732,84.2222277 38.2287092,83.3847381 C37.1977538,86.0598264 34.9910884,88.9434348 37.8261506,92.1748387 C40.6567948,95.4295864 47.1983065,93.9237836 50.3935663,90.8468681 C53.5802501,87.7704771 53.8861322,82.8947817 51.0832955,79.9762889 C49.1482076,77.9739725 46.2635078,77.5081467 43.6030869,78.3503576 Z M103.23068,58.0266405 C79.8510653,34.8112874 90.847744,45.7352837 78.2659442,33.2151192 C78.2659442,33.2151192 74.484644,29.4771446 69.5009561,31.6484662 C66.0024313,33.1707159 61.498278,35.245395 58.1091808,36.8292869 C54.3849617,38.7684053 51.7047761,39.3686335 50.4463594,39.3602753 C43.2467637,39.3135212 37.4055427,33.5674725 37.4055427,26.4255929 C37.4055427,21.7924999 39.882656,17.7588516 43.5771507,15.4692083 C48.7723285,11.8994439 60.7304439,5.58372692 60.7304439,5.58372692 C60.7304439,5.58372692 57.0875063,1 49.1071873,1 C41.1292356,1 24.4610011,11.8427644 24.4610011,11.8427644 C24.4610011,11.8427644 19.7324687,14.850174 12.99189,12.1413113 L0,7.64900293 L0,52.4903322 C0,52.4903322 3.70975146,53.5565338 7.04308271,54.9084838 C7.79592315,52.7766029 9.01067407,50.8079693 10.695753,49.1820248 C16.2257895,43.9518381 25.3919243,43.8975093 30.4232238,49.0417626 C31.9389005,50.6055425 32.9966123,52.4710037 33.5363847,54.5331453 C35.5636877,55.1545304 37.4000187,56.2552099 38.8757122,57.7649223 C40.3958606,59.3182543 41.4496268,61.1941633 41.993871,63.2458571 C44.0188066,63.8677646 45.8525071,64.9726232 47.3331985,66.4833803 C49.0006532,68.190818 50.1115006,70.2532208 50.6302292,72.4877518 C52.7469682,73.099995 54.6598458,74.2390703 56.2005119,75.8031114 C59.2242369,78.8870514 60.2974685,83.0711486 59.6472164,87.1071477 C59.6524774,87.1071477 59.6624732,87.1071477 59.667208,87.1162896 C59.7166608,87.1805438 61.5406285,89.1995881 62.6780437,90.3384023 C64.9071037,92.5538659 68.5468847,92.5538659 70.782784,90.3384023 C73.0039526,88.1237222 73.0136853,84.5166067 70.782784,82.2906953 C70.7028177,82.2115529 62.7409119,73.9420906 63.3816943,73.3008546 C64.0177419,72.664059 74.1616223,83.1448059 74.3504901,83.3365237 C76.5766566,85.547547 80.2140701,85.547547 82.4502325,83.3365237 C84.6811338,81.1218436 84.676399,77.5147281 82.4502325,75.2940406 C82.3408049,75.190607 81.8841554,74.7562382 81.7147531,74.5833265 C81.7147531,74.5833265 71.6574151,65.686994 72.4228818,64.9269139 C73.1978182,64.1621323 85.6904451,75.7383348 85.7106997,75.7383348 C87.9563317,77.7464089 91.4153994,77.7315207 93.5758042,75.585274 C95.6778126,73.4983187 95.7227936,70.1970637 93.8593688,67.9724582 C93.8199118,67.8541364 84.3386467,58.0154091 85.0785978,57.2751799 C85.8293339,56.5252865 95.2109042,66.1174449 95.2306327,66.1372958 C97.4518013,68.3477967 101.094213,68.3477967 103.330375,66.1372958 C105.556542,63.9265336 105.556542,60.3149779 103.330375,58.084626 C103.300125,58.0658199 103.260405,58.045969 103.23068,58.0266405 Z"></path>
                    </g>
                </g>
            </g>
        </g>
        <g id="Group-27" transform="translate(107.000000, 34.000000)">
            <rect id="Rectangle" stroke="#F9F9F9" stroke-width="3.21428571" fill="#F5BB26" x="38.5714286" y="0" width="12.8571429" height="19.2857143" rx="6.42857143"></rect>
            <path d="M76.8198052,13.1801948 L76.8198052,13.1801948 C79.3303185,15.6907082 79.3303185,19.7610544 76.8198052,22.2715677 L72.2741187,26.8172542 C69.7636054,29.3277675 65.6932591,29.3277675 63.1827458,26.8172542 L63.1827458,26.8172542 C60.6722325,24.3067409 60.6722325,20.2363946 63.1827458,17.7258813 L67.7284323,13.1801948 C70.2389456,10.6696815 74.3092918,10.6696815 76.8198052,13.1801948 Z" id="Rectangle" stroke="#F9F9F9" stroke-width="3.21428571" fill="#F5BB26"></path>
            <rect id="Rectangle" stroke="#F9F9F9" stroke-width="3.21428571" fill="#F5BB26" transform="translate(80.357143, 45.000000) rotate(90.000000) translate(-80.357143, -45.000000) " x="73.9285714" y="35.3571429" width="12.8571429" height="19.2857143" rx="6.42857143"></rect>
            <path d="M76.8198052,76.8198052 L76.8198052,76.8198052 C74.3092918,79.3303185 70.2389456,79.3303185 67.7284323,76.8198052 L63.1827458,72.2741187 C60.6722325,69.7636054 60.6722325,65.6932591 63.1827458,63.1827458 L63.1827458,63.1827458 C65.6932591,60.6722325 69.7636054,60.6722325 72.2741187,63.1827458 L76.8198052,67.7284323 C79.3303185,70.2389456 79.3303185,74.3092918 76.8198052,76.8198052 Z" id="Rectangle" stroke="#F9F9F9" stroke-width="3.21428571" fill="#F5BB26"></path>
            <rect id="Rectangle" stroke="#F9F9F9" stroke-width="3.21428571" fill="#F5BB26" transform="translate(45.000000, 80.357143) rotate(180.000000) translate(-45.000000, -80.357143) " x="38.5714286" y="70.7142857" width="12.8571429" height="19.2857143" rx="6.42857143"></rect>
            <path d="M13.1801948,76.8198052 L13.1801948,76.8198052 C10.6696815,74.3092918 10.6696815,70.2389456 13.1801948,67.7284323 L17.7258813,63.1827458 C20.2363946,60.6722325 24.3067409,60.6722325 26.8172542,63.1827458 L26.8172542,63.1827458 C29.3277675,65.6932591 29.3277675,69.7636054 26.8172542,72.2741187 L22.2715677,76.8198052 C19.7610544,79.3303185 15.6907082,79.3303185 13.1801948,76.8198052 Z" id="Rectangle" stroke="#F9F9F9" stroke-width="3.21428571" fill="#F5BB26"></path>
            <rect id="Rectangle" stroke="#F9F9F9" stroke-width="3.21428571" fill="#F5BB26" transform="translate(9.642857, 45.000000) rotate(270.000000) translate(-9.642857, -45.000000) " x="3.21428571" y="35.3571429" width="12.8571429" height="19.2857143" rx="6.42857143"></rect>
            <path d="M13.1801948,13.1801948 L13.1801948,13.1801948 C15.6907082,10.6696815 19.7610544,10.6696815 22.2715677,13.1801948 L26.8172542,17.7258813 C29.3277675,20.2363946 29.3277675,24.3067409 26.8172542,26.8172542 L26.8172542,26.8172542 C24.3067409,29.3277675 20.2363946,29.3277675 17.7258813,26.8172542 L13.1801948,22.2715677 C10.6696815,19.7610544 10.6696815,15.6907082 13.1801948,13.1801948 Z" id="Rectangle" stroke="#F9F9F9" stroke-width="3.21428571" fill="#F5BB26"></path>
            <circle id="Oval-Copy-12" stroke="#F9F9F9" stroke-width="1.5" fill="#F5BB26" cx="45" cy="44.4642857" r="33.75"></circle>
            <circle id="Oval-Copy-13" fill="#063A50" cx="45" cy="44.4642857" r="9.64285714"></circle>
        </g>
    </g>
</svg>