<?xml version="1.0" encoding="UTF-8"?>
<svg width="80px" height="80px" viewBox="0 0 80 80" version="1.1" xmlns="http://www.w3.org/2000/svg" xmlns:xlink="http://www.w3.org/1999/xlink">
    <!-- Generator: Sketch 54.1 (76490) - https://sketchapp.com -->
    <title>ac_repair</title>
    <desc>Created with Sketch.</desc>
    <g id="web" stroke="none" stroke-width="1" fill="none" fill-rule="evenodd">
        <g id="ac_repair" transform="translate(-10.000000, 1.000000)">
            <path d="M22.6386609,11.8099157 L44.937579,16.9159155 C45.9658862,17.151377 47.0341138,17.151377 48.062421,16.9159155 L71.5255387,11.5433376 C75.2940006,10.6804363 79.0484623,13.0358586 79.9113637,16.8043205 C80.3013252,18.5073604 80.0403343,20.2946688 79.1796687,21.8150864 L72.1972383,34.1499704 C71.0205416,36.228676 70.9850426,38.763909 72.1030762,40.8747461 L78.6542415,53.2432853 C80.4004889,56.5401842 79.1434375,60.6284621 75.8465385,62.3747096 C74.1365261,63.2804409 72.120198,63.4093523 70.308766,62.7287601 L48.9620032,54.7083422 C47.3748328,54.1120097 45.6251672,54.1120097 44.0379968,54.7083422 L23.5770203,62.3959519 C20.1050048,63.7004596 16.2328677,61.9433473 14.92836,58.4713317 C14.2209375,56.5884895 14.3946708,54.4876976 15.4017857,52.7466459 L22.6359052,40.2406487 C23.9642611,37.944251 23.8803053,35.0942548 22.4190746,32.8800333 L15.4017857,22.2466459 C13.3207026,19.0931541 14.1900616,14.8496927 17.3435534,12.7686095 C18.9035239,11.7391386 20.816771,11.3927399 22.6386609,11.8099157 Z" id="Rectangle-Copy-2" fill="#484848" opacity="0.06" transform="translate(46.500000, 38.500000) rotate(-12.000000) translate(-46.500000, -38.500000) "></path>
            <g id="Group-13" transform="translate(12.000000, 12.000000)" fill-rule="nonzero">
                <path d="M72.1436032,-5.32907052e-14 L3.79698413,-5.32907052e-14 C1.64530952,-5.32907052e-14 -8.52651283e-14,1.6335678 -8.52651283e-14,3.76988701 L-8.52651283e-14,28.9028164 C-8.52651283e-14,31.0391356 1.64530952,32.6727034 3.79698413,32.6727034 L72.1436032,32.6727034 C74.2952778,32.6727034 75.9405873,31.0391356 75.9405873,28.9028164 L75.9405873,3.76988701 C75.9407381,1.6335678 74.2952778,-5.32907052e-14 72.1436032,-5.32907052e-14 Z" id="Path" fill="#063A50"></path>
                <path d="M73.4093651,28.9028164 C73.4093651,29.6567938 72.9031508,30.1593955 72.143754,30.1593955 L3.79698413,30.1593955 C3.0375873,30.1593955 2.53137302,29.6567938 2.53137302,28.9028164 L2.53137302,3.76988701 C2.53137302,3.0159096 3.16425397,2.51330791 3.79698413,2.51330791 L72.1436032,2.51330791 C72.903,2.51330791 73.4092143,3.0159096 73.4092143,3.76988701 L73.4092143,28.9028164 L73.4093651,28.9028164 Z" id="Path" fill="#FFFCFC"></path>
                <path d="M32.9075476,11.3098107 L43.0330397,11.3098107 C43.7924365,11.3098107 44.2986508,10.807209 44.2986508,10.0532316 C44.2986508,9.29925424 43.7924365,8.79665254 43.0330397,8.79665254 L32.9075476,8.79665254 C32.1481508,8.79665254 31.6419365,9.29925424 31.6419365,10.0532316 C31.6419365,10.807209 32.1481508,11.3098107 32.9075476,11.3098107 Z" id="Path" fill="#063A50"></path>
                <path d="M69.6122302,25.1329294 L6.32835714,25.1329294 C5.56896032,25.1329294 5.06274603,25.6355311 5.06274603,26.3895085 C5.06274603,27.1434859 5.56896032,27.6460876 6.32835714,27.6460876 L69.6122302,27.6460876 C70.371627,27.6460876 70.8778413,27.1434859 70.8778413,26.3895085 C70.8778413,25.6355311 70.371627,25.1329294 69.6122302,25.1329294 Z" id="Path" fill="#063A50"></path>
                <path d="M69.6122302,20.1063136 L6.32835714,20.1063136 C5.56896032,20.1063136 5.06274603,20.6089153 5.06274603,21.3628927 C5.06274603,22.1168701 5.56896032,22.6194718 6.32835714,22.6194718 L69.6122302,22.6194718 C70.371627,22.6194718 70.8778413,22.1168701 70.8778413,21.3628927 C70.8778413,20.6089153 70.371627,20.1063136 69.6122302,20.1063136 Z" id="Path" fill="#063A50"></path>
                <path d="M38.6031746,41.5949689 C37.3375635,40.9666045 36.7046825,40.2126271 36.7046825,39.5842627 C36.7046825,38.9558983 37.4640794,38.2019209 38.4766587,37.4479435 C39.1095397,37.1965678 39.2360556,36.4425904 38.982873,35.8143757 C38.7296905,35.1860113 37.9702937,34.9347853 37.3375635,35.311774 C35.3124048,36.4427401 34.1733095,37.9506949 34.1733095,39.5844124 C34.1733095,41.2179802 35.3124048,42.7260847 37.3375635,43.9826638 C38.6031746,44.6110282 39.2360556,45.3650056 39.2360556,45.9933701 C39.2360556,46.6217345 38.4766587,47.3757119 37.3375635,48.0039266 C36.7046825,48.2553023 36.4516508,49.0092797 36.8313492,49.6374944 C37.0845317,50.0144831 37.4642302,50.2658588 37.9704444,50.2658588 C38.223627,50.2658588 38.3501429,50.2658588 38.6033254,50.1402458 C40.6284841,49.0092797 41.7675794,47.5013249 41.7675794,45.8676073 C41.7675794,44.2338898 40.6283333,42.600322 38.6031746,41.5949689 Z" id="Path" fill="#063A50"></path>
                <path d="M24.6806984,44.1082768 C23.4150873,43.4799124 22.7822063,42.725935 22.7822063,42.0975706 C22.7822063,41.4692062 23.5416032,40.7152288 24.5541825,39.9612514 C25.1870635,39.7098757 25.4400952,38.9558983 25.0603968,38.3276836 C24.8072143,37.6993192 24.0478175,37.4480932 23.4150873,37.8250819 C21.3899286,38.956048 20.2508333,40.4640028 20.2508333,42.0977203 C20.2508333,43.7312881 21.3899286,45.2393927 23.4150873,46.4959718 C24.6806984,47.1243362 25.3135794,47.8783136 25.3135794,48.506678 C25.3135794,49.1350424 24.5541825,49.8890198 23.4150873,50.5173842 C22.7822063,50.7687599 22.5291746,51.5227373 22.908873,52.150952 C23.1620556,52.5279407 23.541754,52.7793164 24.0479683,52.7793164 C24.3011508,52.7793164 24.4276667,52.7793164 24.6808492,52.6537034 C26.7060079,51.5227373 27.8451032,50.0147825 27.8451032,48.381065 C27.8451032,46.7473475 26.7058571,45.1136299 24.6806984,44.1082768 Z" id="Path" fill="#063A50"></path>
                <path d="M52.5256508,44.1082768 C51.2600397,43.4799124 50.6271587,42.725935 50.6271587,42.0975706 C50.6271587,41.4692062 51.3865556,40.7152288 52.3991349,39.9612514 C53.0320159,39.7098757 53.1585317,38.9558983 52.9053492,38.3276836 C52.6521667,37.6993192 51.8927698,37.4480932 51.2600397,37.8250819 C49.234881,38.956048 48.0957857,40.4640028 48.0957857,42.0977203 C48.0957857,43.7312881 49.234881,45.2393927 51.2600397,46.4959718 C52.5256508,47.1243362 53.1585317,47.8783136 53.1585317,48.506678 C53.1585317,49.1350424 52.3991349,49.8890198 51.2600397,50.5173842 C50.6271587,50.7687599 50.374127,51.5227373 50.7538254,52.150952 C51.0070079,52.5279407 51.3867063,52.7793164 51.8929206,52.7793164 C52.1461032,52.7793164 52.272619,52.7793164 52.5258016,52.6537034 C54.5509603,51.5227373 55.6900556,50.0147825 55.6900556,48.381065 C55.6900556,46.7473475 54.5506587,45.1136299 52.5256508,44.1082768 Z" id="Path" fill="#063A50"></path>
            </g>
        </g>
    </g>
</svg>