<?xml version="1.0" encoding="UTF-8"?>
<svg width="22px" height="22px" viewBox="0 0 22 22" version="1.1" xmlns="http://www.w3.org/2000/svg" xmlns:xlink="http://www.w3.org/1999/xlink">
    <!-- Generator: Sketch 53.1 (72631) - https://sketchapp.com -->
    <title>bussiness_since</title>
    <desc>Created with Sketch.</desc>
    <g id="New-Designs" stroke="none" stroke-width="1" fill="none" fill-rule="evenodd">
        <g id="Seller_profile1" transform="translate(-1211.000000, -705.000000)" fill="#909090" fill-rule="nonzero">
            <g id="Group-13" transform="translate(1202.000000, 696.000000)">
                <g id="bussiness_since" transform="translate(9.000000, 9.000000)">
                    <path d="M20.167125,2.0625 L17.1875,2.0625 L17.1875,0.6875 C17.1875,0.3073125 16.8801875,0 16.5,0 C16.1198125,0 15.8125,0.3073125 15.8125,0.6875 L15.8125,2.0625 L11.6875,2.0625 L11.6875,0.6875 C11.6875,0.3073125 11.3795,0 11,0 C10.6205,0 10.3125,0.3073125 10.3125,0.6875 L10.3125,2.0625 L6.1875,2.0625 L6.1875,0.6875 C6.1875,0.3073125 5.8795,0 5.5,0 C5.1205,0 4.8125,0.3073125 4.8125,0.6875 L4.8125,2.0625 L1.8335625,2.0625 C0.820875,2.0625 0,2.8826875 0,3.895375 L0,20.1664375 C0,21.179125 0.820875,22 1.8335625,22 L20.167125,22 C21.1798125,22 22,21.179125 22,20.1664375 L22,3.895375 C22,2.8826875 21.1798125,2.0625 20.167125,2.0625 Z M20.625,20.1664375 C20.625,20.4194375 20.4194375,20.625 20.167125,20.625 L1.8335625,20.625 C1.5805625,20.625 1.375,20.4194375 1.375,20.1664375 L1.375,3.895375 C1.375,3.6430625 1.5805625,3.4375 1.8335625,3.4375 L4.8125,3.4375 L4.8125,4.8125 C4.8125,5.1926875 5.1205,5.5 5.5,5.5 C5.8795,5.5 6.1875,5.1926875 6.1875,4.8125 L6.1875,3.4375 L10.3125,3.4375 L10.3125,4.8125 C10.3125,5.1926875 10.6205,5.5 11,5.5 C11.3795,5.5 11.6875,5.1926875 11.6875,4.8125 L11.6875,3.4375 L15.8125,3.4375 L15.8125,4.8125 C15.8125,5.1926875 16.1198125,5.5 16.5,5.5 C16.8801875,5.5 17.1875,5.1926875 17.1875,4.8125 L17.1875,3.4375 L20.167125,3.4375 C20.4194375,3.4375 20.625,3.6430625 20.625,3.895375 L20.625,20.1664375 Z" id="Shape"></path>
                    <rect id="Rectangle" x="4.8125" y="8.25" width="2.75" height="2.0625"></rect>
                    <rect id="Rectangle" x="4.8125" y="11.6875" width="2.75" height="2.0625"></rect>
                    <rect id="Rectangle" x="4.8125" y="15.125" width="2.75" height="2.0625"></rect>
                    <rect id="Rectangle" x="9.625" y="15.125" width="2.75" height="2.0625"></rect>
                    <rect id="Rectangle" x="9.625" y="11.6875" width="2.75" height="2.0625"></rect>
                    <rect id="Rectangle" x="9.625" y="8.25" width="2.75" height="2.0625"></rect>
                    <rect id="Rectangle" x="14.4375" y="15.125" width="2.75" height="2.0625"></rect>
                    <rect id="Rectangle" x="14.4375" y="11.6875" width="2.75" height="2.0625"></rect>
                    <rect id="Rectangle" x="14.4375" y="8.25" width="2.75" height="2.0625"></rect>
                </g>
            </g>
        </g>
    </g>
</svg>