<?xml version="1.0" encoding="UTF-8"?>
<svg width="31px" height="22px" viewBox="0 0 31 22" version="1.1" xmlns="http://www.w3.org/2000/svg" xmlns:xlink="http://www.w3.org/1999/xlink">
    <!-- Generator: Sketch 53.1 (72631) - https://sketchapp.com -->
    <title>delivery-truck(8)</title>
    <desc>Created with Sketch.</desc>
    <g id="New-Designs" stroke="none" stroke-width="1" fill="none" fill-rule="evenodd">
        <g id="Seller_profile1" transform="translate(-607.000000, -705.000000)" fill="#909090" fill-rule="nonzero" stroke="#979797" stroke-width="0.2">
            <g id="Group-3" transform="translate(602.000000, 696.000000)">
                <g id="delivery-truck(8)" transform="translate(6.000000, 10.000000)">
                    <path d="M23.7090206,14.6236559 C23.0004072,14.6236559 22.3272246,14.9044205 21.8193851,15.4121864 C21.3115455,15.9259259 21.0281002,16.5949821 21.0281002,17.311828 C21.0281002,18.0286738 21.3056404,18.69773 21.8193851,19.2114695 C22.3331297,19.7192354 23.0004072,20 23.7090206,20 C25.1616779,20 26.3427001,18.7933094 26.3427001,17.311828 C26.3427001,15.8303465 25.1616779,14.6236559 23.7090206,14.6236559 Z M23.7090206,18.8052569 C22.8941153,18.8052569 22.2091224,18.1242533 22.2091224,17.311828 C22.2091224,16.4994026 22.8941153,15.818399 23.7090206,15.818399 C24.5121157,15.818399 25.1616779,16.4874552 25.1616779,17.311828 C25.1616779,18.1362007 24.5121157,18.8052569 23.7090206,18.8052569 Z M24.3940134,5.66905615 C24.2877214,5.56750299 24.1459988,5.51373955 23.998371,5.51373955 L20.9690491,5.51373955 C20.644268,5.51373955 20.378538,5.78255675 20.378538,6.11111111 L20.378538,11.0095579 C20.378538,11.3381123 20.644268,11.6069295 20.9690491,11.6069295 L25.7758094,11.6069295 C26.1005905,11.6069295 26.3663205,11.3381123 26.3663205,11.0095579 L26.3663205,7.72998805 C26.3663205,7.56272401 26.2954592,7.40143369 26.1714518,7.28793309 L24.3940134,5.66905615 Z M25.1852983,10.4121864 L21.5595602,10.4121864 L21.5595602,6.70250896 L23.7680717,6.70250896 L25.1852983,7.99283154 L25.1852983,10.4121864 Z M9.28873956,14.6236559 C8.58012625,14.6236559 7.9069436,14.9044205 7.39910405,15.4121864 C6.89126451,15.9259259 6.60781918,16.5949821 6.60781918,17.311828 C6.60781918,18.0286738 6.8853594,18.69773 7.39910405,19.2114695 C7.91284871,19.7192354 8.58012625,20 9.28873956,20 C10.7413969,20 11.9224191,18.7933094 11.9224191,17.311828 C11.9224191,15.8303465 10.7413969,14.6236559 9.28873956,14.6236559 Z M9.28873956,18.8052569 C8.47383425,18.8052569 7.78884138,18.1242533 7.78884138,17.311828 C7.78884138,16.4994026 8.47383425,15.818399 9.28873956,15.818399 C10.0918347,15.818399 10.7413969,16.4874552 10.7413969,17.311828 C10.7413969,18.1362007 10.0918347,18.8052569 9.28873956,18.8052569 Z M5.35003054,15.3584229 L4.16310324,15.3584229 L4.16310324,13.7694146 C4.16310324,13.4408602 3.89737324,13.172043 3.57259214,13.172043 C3.24781104,13.172043 2.98208104,13.4408602 2.98208104,13.7694146 L2.98208104,15.9557945 C2.98208104,16.2843489 3.24781104,16.5531661 3.57259214,16.5531661 L5.35003054,16.5531661 C5.67481165,16.5531661 5.94054164,16.2843489 5.94054164,15.9557945 C5.94054164,15.6272401 5.67481165,15.3584229 5.35003054,15.3584229 Z M8.34392181,12.1027479 C8.34392181,11.7741935 8.07819181,11.5053763 7.75341071,11.5053763 L0.590511098,11.5053763 C0.265729994,11.5053763 0,11.7741935 0,12.1027479 C0,12.4313023 0.265729994,12.7001195 0.590511098,12.7001195 L7.75341071,12.7001195 C8.07819181,12.7001195 8.34392181,12.437276 8.34392181,12.1027479 Z M1.78924863,9.94623656 L8.95214824,9.98805257 C9.27692934,9.98805257 9.54265934,9.72520908 9.54856445,9.39665472 C9.55446956,9.06212664 9.28873956,8.79330944 8.96395846,8.79330944 L1.80105885,8.75149343 C1.79515374,8.75149343 1.79515374,8.75149343 1.79515374,8.75149343 C1.47037263,8.75149343 1.20464264,9.01433692 1.20464264,9.34289128 C1.19873753,9.67741935 1.46446752,9.94623656 1.78924863,9.94623656 Z M2.99389126,7.23416965 L10.1567909,7.23416965 C10.481572,7.23416965 10.747302,6.96535245 10.747302,6.63679809 C10.747302,6.30824373 10.481572,6.03942652 10.1567909,6.03942652 L2.99389126,6.03942652 C2.66911016,6.03942652 2.40338017,6.30824373 2.40338017,6.63679809 C2.40338017,6.96535245 2.66911016,7.23416965 2.99389126,7.23416965 Z M28.7815109,6.42771804 L28.7815109,6.42771804 L24.5534514,2.88530466 C24.4471594,2.79569892 24.317247,2.7479092 24.1755243,2.7479092 L19.2034209,2.7479092 L19.2034209,0.597371565 C19.2034209,0.268817204 18.9376909,0 18.6129098,0 L3.57259214,0 C3.24781104,0 2.98208104,0.268817204 2.98208104,0.597371565 L2.98208104,4.97013142 C2.98208104,5.29868578 3.24781104,5.56750299 3.57259214,5.56750299 C3.89737324,5.56750299 4.16310324,5.29868578 4.16310324,4.97013142 L4.16310324,1.19474313 L18.0283038,1.19474313 L18.0283038,15.3584229 L13.1861128,15.3584229 C12.8613317,15.3584229 12.5956017,15.6272401 12.5956017,15.9557945 C12.5956017,16.2843489 12.8613317,16.5531661 13.1861128,16.5531661 L20.3962533,16.5531661 C20.7210344,16.5531661 20.9867644,16.2843489 20.9867644,15.9557945 C20.9867644,15.6272401 20.7210344,15.3584229 20.3962533,15.3584229 L19.209326,15.3584229 L19.209326,3.94265233 L23.9688454,3.94265233 L27.8189778,7.16845878 L27.777642,15.3464755 L27.1635105,15.3464755 C26.8387294,15.3464755 26.5729994,15.6152927 26.5729994,15.9438471 C26.5729994,16.2724014 26.8387294,16.5412186 27.1635105,16.5412186 L28.362248,16.5412186 C28.6870291,16.5412186 28.9527591,16.2783751 28.9527591,15.9498208 L29,6.89366786 C28.9940949,6.71445639 28.9173284,6.54121864 28.7815109,6.42771804 Z" id="Shape"></path>
                </g>
            </g>
        </g>
    </g>
</svg>