<?xml version="1.0" encoding="UTF-8"?>
<svg width="26px" height="27px" viewBox="0 0 26 27" version="1.1" xmlns="http://www.w3.org/2000/svg" xmlns:xlink="http://www.w3.org/1999/xlink">
    <!-- Generator: Sketch 53.1 (72631) - https://sketchapp.com -->
    <title>ic_night</title>
    <desc>Created with Sketch.</desc>
    <g id="Assets" stroke="none" stroke-width="1" fill="none" fill-rule="evenodd">
        <g id="Desktop-HD" transform="translate(-324.000000, -292.000000)" stroke="#909090">
            <g id="ic_night" transform="translate(320.000000, 290.000000)">
                <path d="M14.2258722,4 C12.2558297,4.52610129 10.3935914,5.56192166 8.84805196,7.10746112 C4.16176046,11.7937526 4.16176046,19.3917324 8.84805196,24.0780239 C13.5343435,28.7643154 21.1323232,28.7643154 25.8186147,24.0780239 C27.3641542,22.5324844 28.3999745,20.6702461 28.9260758,18.7002036 C24.9226743,19.7693149 20.4740854,18.7334945 17.3333333,15.5927425 C14.1925813,12.4519904 13.1567609,8.00340153 14.2258722,4 L14.2258722,4 Z" id="Combined-Shape" stroke-width="1.33333333"></path>
                <polygon id="Star" stroke-width="1.2" points="23.3333333 11 20.5903355 12.4420793 21.1142015 9.38770632 20.0046355 8.30614684 18.8950696 7.22458736 21.9618344 6.77896035 23.3333333 4 24.7048323 6.77896035 27.7715971 7.22458736 25.5524652 9.38770632 26.0763312 12.4420793"></polygon>
            </g>
        </g>
    </g>
</svg>