<?xml version="1.0" encoding="UTF-8"?>
<svg width="32px" height="32px" viewBox="0 0 32 32" version="1.1" xmlns="http://www.w3.org/2000/svg" xmlns:xlink="http://www.w3.org/1999/xlink">
    <!-- Generator: Sketch 54.1 (76490) - https://sketchapp.com -->
    <title>ic_popular</title>
    <desc>Created with Sketch.</desc>
    <g id="Page-1" stroke="none" stroke-width="1" fill="none" fill-rule="evenodd">
        <g id="Group-11" transform="translate(5.000000, 2.000000)">
            <path d="M11.5,27.2898746 L19.276678,19.4469394 C23.5744407,15.1125599 23.5744407,8.08339955 19.276678,3.7490201 C14.9812482,-0.583006699 8.01875179,-0.583006699 3.72332196,3.7490201 C-0.574440652,8.08339955 -0.574440652,15.1125599 3.72332196,19.4469394 L11.5,27.2898746 Z" id="Rectangle" stroke="#F42C30"></path>
            <path d="M17.9077843,5.63889619 C21.4225029,9.19762627 21.4225029,14.9674677 17.9077843,18.5261978 L11.5438232,24.9698486 L5.17986221,18.5261978 C1.66514359,14.9674677 1.66514359,9.19762627 5.17986221,5.63889619 C8.69458084,2.08016611 14.3930656,2.08016611 17.9077843,5.63889619 Z M11.5291748,16 C13.7383138,16 15.5291748,14.209139 15.5291748,12 C15.5291748,9.790861 13.7383138,8 11.5291748,8 C9.32003581,8 7.5291748,9.790861 7.5291748,12 C7.5291748,14.209139 9.32003581,16 11.5291748,16 Z" id="Combined-Shape" fill="#F42C30"></path>
        </g>
    </g>
</svg>