<?xml version="1.0" encoding="UTF-8"?>
<svg width="32px" height="32px" viewBox="0 0 32 32" version="1.1" xmlns="http://www.w3.org/2000/svg" xmlns:xlink="http://www.w3.org/1999/xlink">
    <!-- Generator: Sketch 54.1 (76490) - https://sketchapp.com -->
    <title>ic_re_password</title>
    <desc>Created with Sketch.</desc>
    <g id="Page-1" stroke="none" stroke-width="1" fill="none" fill-rule="evenodd">
        <g id="115298-OOYPPQ-191-3" transform="translate(4.000000, 2.000000)">
            <g id="115298-OOYPPQ-191-2"></g>
        </g>
        <circle id="Oval-Copy-2" fill="#37D5FF" opacity="0.200000003" cx="20.5" cy="11.5" r="11.5"></circle>
        <g id="115298-OOYPPQ-191" transform="translate(4.000000, 3.000000)" fill="#37D5FF">
            <path d="M8.07344549,4.4857377 C7.97363477,4.54434106 7.86964593,4.60593875 7.75962202,4.67138629 C7.57160649,4.806559 7.3687354,4.95242575 7.151473,5.10898655 C6.93653178,5.26554734 6.70673502,5.43194666 6.46533235,5.60775673 C6.22392969,5.78185576 6.00341764,6.00429186 5.75737261,6.2151784 C5.51689842,6.43119808 5.26110444,6.65106761 5.00948859,6.8893309 C4.7755137,7.14299361 4.53411104,7.40521155 4.2852806,7.67512921 C4.16272232,7.80987415 4.03784287,7.94675791 3.91203494,8.08449719 C3.80015409,8.23293051 3.68595206,8.38264712 3.57175003,8.5349303 C3.34613138,8.83992442 3.10890684,9.14620182 2.88421667,9.4661676 C2.48636651,10.1373258 2.04116429,10.8072006 1.7282693,11.5519338 C1.35688058,12.2692903 1.12476263,13.050811 0.86293359,13.8105158 C0.675382289,14.5933198 0.468797316,15.3662852 0.399626168,16.1478059 C0.345310569,16.5349303 0.294708856,16.9177771 0.298886979,17.3010516 C0.290994969,17.682615 0.274746713,18.0581898 0.275675185,18.4260649 C0.347167512,19.1622429 0.349952927,19.8736107 0.506400424,20.5327915 C0.569072269,20.8625958 0.629422935,21.1834171 0.688380894,21.4931166 C0.778442657,21.7968274 0.866647477,22.0898442 0.949281466,22.3708837 C1.09412306,22.9338181 1.31927747,23.4360104 1.50543607,23.8787438 C1.59828325,24.0986133 1.68509536,24.3047945 1.76540817,24.4951485 C1.8628977,24.6726696 1.952031,24.8347913 2.03280804,24.9819413 C2.35591622,25.5692582 2.53975364,25.9041956 2.53975364,25.9041956 L3.04252111,25.7044309 C3.04252111,25.7044309 2.90278611,25.3506719 2.66045497,24.7321285 C2.59917583,24.5772787 2.53186163,24.4057463 2.45851236,24.2196699 C2.40791064,24.032738 2.35359504,23.8308345 2.29510132,23.6156703 C2.17811388,23.1861975 2.03234381,22.7122375 1.96735078,22.1629915 C1.92417684,21.8930738 1.87868172,21.6120344 1.8317939,21.3215841 C1.81554564,21.0285673 1.79883315,20.725712 1.78165642,20.4138737 C1.71573493,19.7953303 1.80533245,19.138716 1.8252946,18.4696966 C1.87682478,18.1373258 1.9288192,17.799394 1.98220633,17.4571846 C2.02120214,17.1145475 2.11404932,16.7761879 2.20921768,16.4365451 C2.35916587,15.7499875 2.63910012,15.0861013 2.88885903,14.4226428 C3.21196721,13.7827113 3.49422263,13.1316579 3.90042904,12.5520408 C4.24721325,11.9441913 4.71191338,11.4184722 5.1144059,10.8914697 C5.34095302,10.6437957 5.57585638,10.4102378 5.79636843,10.1771076 C5.90732081,10.0620397 6.01734471,9.94739955 6.12551168,9.83404269 C6.24667725,9.7322354 6.36598587,9.63085587 6.48390179,9.53118738 C6.71648397,9.33227817 6.94349532,9.13850211 7.16261466,8.95157023 C7.39612532,8.78046553 7.63195715,8.62561579 7.85061226,8.4711938 C8.07483819,8.32276048 8.27074574,8.16021102 8.48800814,8.04343206 C8.70294936,7.92365878 8.90674892,7.81115744 9.09754987,7.70464477 C9.28695811,7.59855986 9.46429622,7.49974689 9.62817149,7.4069226 L9.6346708,7.40435603 L10.819865,9.61973406 L14.275637,3.25549494 L6.6923437,1.90419562 L8.07344549,4.4857377" id="Fill-27"></path>
            <path d="M23.9388324,5.57070031 C23.9049451,5.233161 23.8719157,4.90516649 23.8397442,4.58715066 C23.7788329,4.27434108 23.7196374,3.97237789 23.6621576,3.68212878 C23.5699327,3.10293214 23.3992094,2.57970281 23.2589417,2.11981633 C23.1894513,1.89074081 23.1242504,1.6759825 23.064197,1.47771069 C22.9874143,1.29202068 22.9166371,1.12194946 22.853152,0.967497017 C22.5979249,0.352290394 22.4525098,0 22.4525098,0 L21.974656,0.169203514 C21.974656,0.169203514 22.0776047,0.535811128 22.2573361,1.17835063 C22.3023762,1.33887704 22.3517058,1.51675766 22.4057539,1.71025706 C22.4387833,1.9024549 22.4743864,2.11027152 22.5125632,2.33197151 C22.5893458,2.77450378 22.688863,3.2638924 22.7098817,3.82443328 C22.7304714,4.09993131 22.7519191,4.38670957 22.7742246,4.68433421 C22.7677903,4.981525 22.7609271,5.28956217 22.7536349,5.60540873 C22.7703641,6.23623414 22.6403913,6.89352471 22.5739035,7.56990491 C22.5026973,7.90267182 22.4297753,8.240645 22.3564243,8.58295672 C22.295084,8.92743772 22.185272,9.26324162 22.0728862,9.60078094 C21.8850048,10.2849705 21.5787322,10.9374887 21.3011995,11.5921761 C20.9571791,12.2177953 20.6500487,12.8572978 20.2335352,13.4165371 C19.8702118,14.0078817 19.4035108,14.5076829 18.9951474,15.0144257 C18.7682312,15.2491413 18.5348807,15.4699736 18.3148277,15.6908059 C18.2037289,15.8001374 18.0943458,15.9081673 17.9862496,16.0153295 C17.8674296,16.1107777 17.7498965,16.2053581 17.6345081,16.2977693 C17.4054471,16.4834593 17.1828204,16.6643769 16.967057,16.8387867 C16.7392828,16.9967099 16.5110798,17.1368451 16.298319,17.2787158 C16.0812687,17.4136447 15.8886688,17.5641925 15.6801975,17.6683177 C15.4738711,17.7746122 15.2778395,17.8748328 15.0933896,17.9694132 C14.9115135,18.0639936 14.7407902,18.1529339 14.5829354,18.2344987 L14.5765011,18.2371018 L13.6448149,15.9164106 L10,22.121841 L16.8911323,24 L15.8050229,21.294913 C15.9011084,21.2424166 16.0014834,21.1868831 16.1078638,21.1287465 C16.2901689,21.0046639 16.4883453,20.8701688 16.6998192,20.7261289 C16.9091483,20.5825229 17.1326329,20.4298058 17.3676992,20.2684117 C17.6031945,20.1083192 17.8219606,19.8983333 18.0647481,19.7022307 C18.3019592,19.4991865 18.5533257,19.2935392 18.8025475,19.0696699 C19.035898,18.8288803 19.2778276,18.5798474 19.5261914,18.3238729 C19.649301,18.1958856 19.7741263,18.0657291 19.9006675,17.9342709 C20.0143401,17.7919664 20.1297285,17.6479265 20.2464038,17.5021512 C20.4767516,17.2084313 20.7169654,16.9147113 20.9468842,16.6066741 C21.3621109,15.954156 21.8210908,15.3064102 22.1629664,14.5736288 C22.5571743,13.8738205 22.8278438,13.0989551 23.1242504,12.347518 C23.3537403,11.5683141 23.5995305,10.8008243 23.7200663,10.0142449 C23.7977068,9.62637839 23.8723447,9.24241657 23.8955082,8.85455006 C23.9306823,8.46928667 23.9722908,8.09053111 23.9984569,7.71828338 C23.9860173,6.9681478 24.034489,6.24924979 23.9388324,5.57070031" id="Fill-28"></path>
        </g>
    </g>
</svg>