<?xml version="1.0" encoding="UTF-8"?>
<svg width="24px" height="24px" viewBox="0 0 24 24" version="1.1" xmlns="http://www.w3.org/2000/svg" xmlns:xlink="http://www.w3.org/1999/xlink">
    <!-- Generator: Sketch 52.5 (67469) - http://www.bohemiancoding.com/sketch -->
    <title>ic_settings</title>
    <desc>Created with Sketch.</desc>
    <g id="assets" stroke="none" stroke-width="1" fill="none" fill-rule="evenodd">
        <g id="Artboard" transform="translate(-216.000000, -72.000000)" fill="#FF3249" fill-rule="nonzero">
            <g id="settings-work-tool" transform="translate(217.000000, 73.000000)">
                <path d="M21.9116729,9.77004461 C21.8769145,9.4610632 21.5166543,9.22887732 21.2051375,9.22887732 C20.1979628,9.22887732 19.304223,8.63749442 18.9294052,7.72289963 C18.5464907,6.78614126 18.7933978,5.69366543 19.5440149,5.00512268 C19.78029,4.78913011 19.8089963,4.42756134 19.6108327,4.17640149 C19.0953457,3.52179926 18.5094424,2.93049814 17.8697249,2.41803717 C17.6192193,2.21701115 17.2516803,2.24498141 17.034461,2.48550929 C16.379368,3.21101859 15.2026543,3.48066171 14.2933755,3.10126394 C13.3471301,2.70321933 12.7504312,1.74437918 12.8088253,0.715122677 C12.8280446,0.391828996 12.5917695,0.110736059 12.2694572,0.073197026 C11.4485056,-0.0217546468 10.6203569,-0.0246988848 9.79695167,0.0666542751 C9.4783197,0.101821561 9.24204461,0.376289963 9.25275836,0.695494424 C9.28857993,1.71460967 8.68468401,2.65668401 7.74784387,3.04041636 C6.84944238,3.4073829 5.68098885,3.14002974 5.02720446,2.42098141 C4.81113011,2.18413383 4.44956134,2.15501859 4.197829,2.35121933 C3.53913755,2.86801487 2.94006691,3.45980669 2.41983643,4.10901115 C2.21692937,4.36139777 2.24678067,4.72721933 2.48542751,4.94435688 C3.25035688,5.63707063 3.49734572,6.73903346 3.09995539,7.68658736 C2.72055762,8.5899777 1.78249071,9.17220074 0.708579926,9.17220074 C0.360096654,9.16099628 0.111881041,9.39489963 0.0737695167,9.71173234 C-0.0228996283,10.5374275 -0.0240446097,11.3787435 0.0690260223,12.211145 C0.103539033,12.5214349 0.474758364,12.7515762 0.789710037,12.7515762 C1.74675093,12.7271227 2.66559851,13.3196506 3.05104833,14.2576357 C3.43527138,15.1943941 3.18828253,16.2862156 2.43652045,16.9753309 C2.20139033,17.1913234 2.17153903,17.5523197 2.3697026,17.8034796 C2.88036431,18.4539108 3.46634944,19.0457844 4.10835688,19.5624981 C4.360171,19.7654052 4.72656506,19.7367807 4.94484758,19.4962528 C5.60239405,18.7689442 6.77902602,18.4997918 7.68470632,18.8799257 C8.63332342,19.2767435 9.2300223,20.2355019 9.17162825,21.2653309 C9.15257249,21.5887881 9.38999257,21.8703717 9.71099628,21.9073383 C10.1309591,21.9563271 10.5534572,21.9807807 10.9771004,21.9807807 C11.3792342,21.9807807 11.7814498,21.9586989 12.1835836,21.9139628 C12.5022974,21.8787955 12.7384089,21.6043271 12.7276952,21.2845502 C12.6908104,20.2660074 13.2957695,19.3239331 14.2313829,18.940855 C15.1358364,18.5714349 16.2993829,18.8418141 16.9532491,19.5601264 C17.1705502,19.7964833 17.5295836,19.825026 17.7827063,19.6294796 C18.440171,19.1139108 19.0380149,18.5226097 19.5606989,17.8716059 C19.7635242,17.6197918 19.7348996,17.2533978 19.495026,17.036342 C18.7300967,16.3436283 18.481881,15.2415019 18.8792714,14.2946022 C19.2528625,13.4032342 20.1560892,12.8047361 21.1276059,12.8047361 L21.2635316,12.8082528 C21.5786468,12.8338513 21.8685725,12.5911152 21.9067658,12.2694572 C22.0035985,11.443026 22.0047435,10.6024461 21.9116729,9.77004461 Z M11.0077695,14.6795613 C8.98622305,14.6795613 7.34186617,13.0352045 7.34186617,11.013658 C7.34186617,8.99219331 8.98622305,7.34775465 11.0077695,7.34775465 C13.0292342,7.34775465 14.6735911,8.99219331 14.6735911,11.013658 C14.6735911,13.0352045 13.0292342,14.6795613 11.0077695,14.6795613 Z" id="Shape"></path>
            </g>
        </g>
    </g>
</svg>