<?xml version="1.0" encoding="UTF-8"?>
<svg width="24px" height="24px" viewBox="0 0 24 24" version="1.1" xmlns="http://www.w3.org/2000/svg" xmlns:xlink="http://www.w3.org/1999/xlink">
    <!-- Generator: Sketch 53.1 (72631) - https://sketchapp.com -->
    <title>min order</title>
    <desc>Created with Sketch.</desc>
    <g id="New-Designs" stroke="none" stroke-width="1" fill="none" fill-rule="evenodd">
        <g id="Seller_profile1" transform="translate(-410.000000, -704.000000)" fill="#909090" fill-rule="nonzero">
            <g id="Group-10" transform="translate(402.000000, 696.000000)">
                <g id="min-order" transform="translate(8.000000, 8.000000)">
                    <path d="M20.4853125,3.5146875 C18.2188125,1.2481875 15.2053125,0 12,0 C8.7946875,0 5.7811875,1.2481875 3.5146875,3.5146875 C1.24823438,5.7811875 0,8.7946875 0,12 C0,15.2053125 1.24823438,18.2188125 3.5146875,20.4853125 C5.7811875,22.7518125 8.7946875,24 12,24 C15.2053125,24 18.2188125,22.7518125 20.4853125,20.4853125 C22.7517656,18.2188125 24,15.2053125 24,12 C24,8.7946875 22.7517656,5.7811875 20.4853125,3.5146875 Z M12,22.59375 C6.15857813,22.59375 1.40625,17.8414219 1.40625,12 C1.40625,6.15857812 6.15857813,1.40625 12,1.40625 C17.8414219,1.40625 22.59375,6.15857812 22.59375,12 C22.59375,17.8414219 17.8414219,22.59375 12,22.59375 Z" id="Shape"></path>
                    <path d="M12.7531406,11.296875 L11.2468594,11.296875 C10.3887188,11.296875 9.69060938,10.5987656 9.69060938,9.74067188 C9.69060938,8.88253125 10.3887656,8.18442187 11.2468594,8.18442187 L14.259375,8.18442187 C14.6476875,8.18442187 14.9625,7.86960937 14.9625,7.48129687 C14.9625,7.09298438 14.6476875,6.77817187 14.259375,6.77817187 L12.703125,6.77817187 L12.703125,5.22192187 C12.703125,4.83360937 12.3883125,4.51879687 12,4.51879687 C11.6116875,4.51879687 11.296875,4.83360937 11.296875,5.22192187 L11.296875,6.77817187 L11.2469063,6.77817187 C9.61335938,6.77817187 8.28440625,8.10717188 8.28440625,9.74067188 C8.28440625,11.3741719 9.61340625,12.703125 11.2469062,12.703125 L12.7531875,12.703125 C13.6112812,12.703125 14.3093906,13.4012813 14.3093906,14.259375 C14.3093906,15.1174687 13.6112813,15.815625 12.7531875,15.815625 L9.74067188,15.815625 C9.35235938,15.815625 9.03754688,16.1304375 9.03754688,16.51875 C9.03754688,16.9070625 9.35235938,17.221875 9.74067188,17.221875 L11.296875,17.221875 L11.296875,18.7781719 C11.296875,19.1664844 11.6116875,19.4812969 12,19.4812969 C12.3883125,19.4812969 12.703125,19.1664844 12.703125,18.7781719 L12.703125,17.221875 L12.7531406,17.221875 C14.3866406,17.221875 15.7155938,15.892875 15.7155938,14.259375 C15.7155938,12.625875 14.3866406,11.296875 12.7531406,11.296875 Z" id="Path"></path>
                </g>
            </g>
        </g>
    </g>
</svg>