<?xml version="1.0" encoding="UTF-8"?>
<svg width="80px" height="80px" viewBox="0 0 80 80" version="1.1" xmlns="http://www.w3.org/2000/svg" xmlns:xlink="http://www.w3.org/1999/xlink">
    <!-- Generator: Sketch 54.1 (76490) - https://sketchapp.com -->
    <title>plumbers</title>
    <desc>Created with Sketch.</desc>
    <g id="web" stroke="none" stroke-width="1" fill="none" fill-rule="evenodd">
        <g id="plumbers" transform="translate(-7.000000, 2.000000)">
            <path d="M22.6386609,11.8099157 L44.937579,16.9159155 C45.9658862,17.151377 47.0341138,17.151377 48.062421,16.9159155 L71.5255387,11.5433376 C75.2940006,10.6804363 79.0484623,13.0358586 79.9113637,16.8043205 C80.3013252,18.5073604 80.0403343,20.2946688 79.1796687,21.8150864 L72.1972383,34.1499704 C71.0205416,36.228676 70.9850426,38.763909 72.1030762,40.8747461 L78.6542415,53.2432853 C80.4004889,56.5401842 79.1434375,60.6284621 75.8465385,62.3747096 C74.1365261,63.2804409 72.120198,63.4093523 70.308766,62.7287601 L48.9620032,54.7083422 C47.3748328,54.1120097 45.6251672,54.1120097 44.0379968,54.7083422 L23.5770203,62.3959519 C20.1050048,63.7004596 16.2328677,61.9433473 14.92836,58.4713317 C14.2209375,56.5884895 14.3946708,54.4876976 15.4017857,52.7466459 L22.6359052,40.2406487 C23.9642611,37.944251 23.8803053,35.0942548 22.4190746,32.8800333 L15.4017857,22.2466459 C13.3207026,19.0931541 14.1900616,14.8496927 17.3435534,12.7686095 C18.9035239,11.7391386 20.816771,11.3927399 22.6386609,11.8099157 Z" id="Rectangle-Copy-3" fill="#484848" opacity="0.06" transform="translate(46.500000, 38.500000) rotate(-12.000000) translate(-46.500000, -38.500000) "></path>
            <g id="Group-7" transform="translate(9.543716, 5.000000)" fill-rule="nonzero">
                <path d="M6.78589851,46.8965517 C6.31794271,47.7176724 2.21333333,54.9806034 2.21333333,58.4827586 C2.21333333,61.5296337 4.69090491,64 7.74666667,64 C10.8024284,64 13.28,61.5296337 13.28,58.4827586 C13.28,54.9806034 9.17539063,47.7176724 8.70743483,46.8965517 C8.49399092,46.5748923 8.13356771,46.3809268 7.74666667,46.3809268 C7.35976563,46.3809268 6.99934241,46.5748923 6.78589851,46.8965517 Z" id="Path" fill="#063A50"></path>
                <path d="M7.74666667,61.7931034 C5.91320967,61.7931034 4.42666667,60.3108836 4.42666667,58.4827586 C4.42666667,56.5317888 6.34982425,52.4261854 7.74666667,49.7591594 C9.14350908,52.4261854 11.0666667,56.5317888 11.0666667,58.4827586 C11.0666667,60.3108836 9.58012366,61.7931034 7.74666667,61.7931034 Z" id="Path" fill="#FFFCFC"></path>
                <path d="M65.2933333,13.2413793 L58.6533333,13.2413793 C58.042181,13.2413793 57.5466667,13.7354526 57.5466667,14.3448276 L57.5466667,17.6551724 L42.6742122,17.6551724 L41.0288021,11.8389008 C40.8942513,11.3631465 40.4587174,11.0344828 39.9626628,11.0344828 L36.52,11.0344828 L36.52,6.62068966 L44.2666667,6.62068966 C46.1001237,6.62068966 47.5866667,5.13846979 47.5866667,3.31034483 C47.5866667,1.48221986 46.1001237,-1.0658141e-14 44.2666667,-1.0658141e-14 L22.1333333,-1.0658141e-14 C20.2998763,-1.0658141e-14 18.8133333,1.48221986 18.8133333,3.31034483 C18.8133333,5.13846979 20.2998763,6.62068966 22.1333333,6.62068966 L29.88,6.62068966 L29.88,11.0344828 L26.4373372,11.0344828 C25.9412826,11.0344828 25.5057487,11.3631465 25.3711979,11.8389008 L23.7257878,17.6551724 L14.3866667,17.6551724 C6.44492842,17.6643319 0.009186191,24.0813578 -1.84741111e-13,32 L-1.84741111e-13,40.8275862 C-1.84741111e-13,41.4369612 0.495514288,41.9310345 1.10666667,41.9310345 L14.3866667,41.9310345 C14.997819,41.9310345 15.4933333,41.4369612 15.4933333,40.8275862 L15.4933333,36.4137931 C15.4933333,34.5856681 16.9798763,33.1034483 18.8133333,33.1034483 L20.1102083,33.1034483 C21.0898893,38.1099138 25.9758659,41.9310345 31.8474674,41.9310345 L34.5525326,41.9310345 C40.4262955,41.9310345 45.3101107,38.1099138 46.2897917,33.1034483 L57.5466667,33.1034483 L57.5466667,36.4137931 C57.5466667,37.0231681 58.042181,37.5172414 58.6533333,37.5172414 L65.2933333,37.5172414 C65.9044857,37.5172414 66.4,37.0231681 66.4,36.4137931 L66.4,14.3448276 C66.4,13.7354526 65.9044857,13.2413793 65.2933333,13.2413793 Z" id="Path" fill="#063A50"></path>
                <path d="M21.0266667,3.31034483 C21.0266667,2.70096979 21.522181,2.20689655 22.1333333,2.20689655 L44.2666667,2.20689655 C44.877819,2.20689655 45.3733333,2.70096979 45.3733333,3.31034483 C45.3733333,3.91971986 44.877819,4.4137931 44.2666667,4.4137931 L22.1333333,4.4137931 C21.522181,4.4137931 21.0266667,3.91971986 21.0266667,3.31034483 Z" id="Path" fill="#FFFCFC"></path>
                <polygon id="Path" fill="#FFFCFC" points="32.0933333 6.62068966 34.3066667 6.62068966 34.3066667 11.0344828 32.0933333 11.0344828"></polygon>
                <path d="M13.28,36.4137931 L13.28,39.7241379 L2.21333333,39.7241379 L2.21333333,32 C2.22143884,25.299569 7.66669271,19.8701509 14.3866667,19.862069 L23.1016667,19.862069 L19.9810612,30.8965517 L18.8133333,30.8965517 C15.7586524,30.9003233 13.2837826,33.3679957 13.28,36.4137931 Z" id="Path" fill="#FFFCFC"></path>
                <path d="M34.5525326,39.7241379 L31.8474674,39.7241379 C26.5475716,39.7241379 22.2251952,36.0086207 22.134414,31.4116379 L27.2749024,13.2413793 L39.1250976,13.2413793 L44.2666667,31.4116379 C44.1748048,36.0086207 39.8524284,39.7241379 34.5525326,39.7241379 Z" id="Path" fill="#FFFCFC"></path>
                <polygon id="Path" fill="#FFFCFC" points="46.4189388 30.8965517 43.2983333 19.862069 57.5466667 19.862069 57.5466667 30.8965517"></polygon>
                <polygon id="Path" fill="#FFFCFC" points="64.1866667 35.3103448 59.76 35.3103448 59.76 15.4482759 64.1866667 15.4482759"></polygon>
            </g>
        </g>
    </g>
</svg>