<?xml version="1.0" encoding="UTF-8"?>
<svg width="120px" height="42px" viewBox="0 0 120 42" version="1.1" xmlns="http://www.w3.org/2000/svg" xmlns:xlink="http://www.w3.org/1999/xlink">
    <!-- Generator: Sketch 54.1 (76490) - https://sketchapp.com -->
    <title>royo_food_logo</title>
    <desc>Created with Sketch.</desc>
    <defs>
        <filter x="-71.3%" y="-75.0%" width="242.6%" height="250.0%" filterUnits="objectBoundingBox" id="filter-1">
            <feGaussianBlur stdDeviation="0.149253731 0" in="SourceGraphic"></feGaussianBlur>
        </filter>
        <filter x="-56.0%" y="-56.0%" width="211.9%" height="211.9%" filterUnits="objectBoundingBox" id="filter-2">
            <feGaussianBlur stdDeviation="0.149253731 0" in="SourceGraphic"></feGaussianBlur>
        </filter>
    </defs>
    <g id="Page-1" stroke="none" stroke-width="1" fill="none" fill-rule="evenodd">
        <g id="Group-3-Copy" transform="translate(-3.000000, 0.000000)">
            <g id="Group-2" transform="translate(28.437806, 0.000000)">
                <polygon id="Path-4" fill="#FFA7A7" points="29.3886504 18.2150855 31.2242129 15.9138962 29.3886504 14.3976007 27.3207036 16.639759"></polygon>
                <ellipse id="Oval" stroke="#F76164" stroke-width="0.5" fill="#F42C30" cx="19.5863877" cy="27.5198313" rx="14.0241935" ry="14.0298507"></ellipse>
                <circle id="Oval-Copy-10" fill="#F76164" cx="19.5863877" cy="27.5198313" r="12"></circle>
                <g id="Group" transform="translate(22.284961, 33.661138) rotate(-40.000000) translate(-22.284961, -33.661138) translate(17.284961, 29.161138)">
                    <path d="M6.34264287,2.1272006 C7.56143515,1.97842058 7.46769074,1.0050647 8.60466275,1.70352552 C9.74163476,2.40198634 10.5932327,4.79492886 8.68981871,6.61111647 C6.78640472,8.42730409 6.07302706,8.96645404 3.80199698,8.69687907 C1.5309669,8.42730409 -1.65895153e-12,5.49666918 -1.65911729e-12,3.47401876 C-1.65911729e-12,1.45136834 0.745814377,-0.369920722 3.55086166,0.0647953457 C6.35590895,0.499511414 5.12385059,2.27598063 6.34264287,2.1272006 Z" id="Path-3" fill="#FFFFFF"></path>
                    <g id="Group-17" transform="translate(4.026140, 4.214603)">
                        <ellipse id="Oval" fill="#FFB248" cx="1.5704584" cy="1.49253731" rx="1.5704584" ry="1.49253731"></ellipse>
                        <ellipse id="Oval-Copy-5" fill="#F9FFFF" filter="url(#filter-1)" cx="1.09932088" cy="0.746268657" rx="1" ry="1"></ellipse>
                    </g>
                </g>
                <g id="Group-Copy" transform="translate(11.562194, 18.000000)">
                    <path d="M7.7558893,2.67045701 C9.24624879,2.48368071 9.13161657,1.26174376 10.5219249,2.13858142 C11.9122332,3.01541908 12.9535813,6.01948466 10.626055,8.29950044 C8.29852868,10.5795162 7.4261986,11.2563573 4.6491452,10.9179368 C1.87209181,10.5795162 2.02694227e-16,6.90043935 0,4.36123314 C0,1.82202692 0.911994237,-0.464393149 4.34205276,0.0813431441 C7.77211128,0.627079437 6.26552981,2.85723332 7.7558893,2.67045701 Z" id="Path-3" fill="#FFFFFF"></path>
                    <g id="Group-17" transform="translate(5.000000, 5.000000)">
                        <circle id="Oval" fill="#FFB248" cx="2" cy="2" r="2"></circle>
                        <circle id="Oval-Copy-5" fill="#F9FFFF" filter="url(#filter-2)" cx="1.4" cy="1" r="1"></circle>
                    </g>
                </g>
                <path d="M35.3715263,1.32420787 L35.3715263,1.32420787 C36.6442961,1.32446203 37.6758739,2.35645192 37.6756198,3.62922179 C37.6756144,3.65638327 37.6751287,3.68354253 37.6741632,3.71068683 L37.1912044,17.2877075 L33.6243369,17.2968407 L33.0796476,3.7093263 C33.0289162,2.44380957 34.0136943,1.37677964 35.279211,1.32604825 C35.3099673,1.3248153 35.3407453,1.32420172 35.3715263,1.32420787 Z" id="Rectangle" fill="#F42C30" transform="translate(35.376696, 9.310524) rotate(41.000000) translate(-35.376696, -9.310524) "></path>
                <path d="M35.1128579,2.02518112 L35.1128579,2.02518112 C36.3856277,2.02543528 37.4172055,3.05742517 37.4169514,4.33019504 C37.4169459,4.35735652 37.4164603,4.38451578 37.4154947,4.41166008 L36.932536,17.9886808 L34.9526104,17.891524 C35.8591789,13.8431357 36.2589232,10.483363 36.1518432,7.81220582 C36.0447632,5.14104866 35.6984348,3.21204042 35.1128579,2.02518112 Z" id="Rectangle-Copy-11" fill="#FA4D50" transform="translate(36.184781, 10.006931) rotate(41.000000) translate(-36.184781, -10.006931) "></path>
                <path d="M9.39601718,9.71414601 L9.39601718,9.71414601 C10.5005867,9.71414601 11.3960172,8.81871551 11.3960172,7.71414601" id="Path" stroke="#B5DC6D" stroke-linecap="round" stroke-linejoin="round" transform="translate(10.396017, 8.714146) rotate(-58.000000) translate(-10.396017, -8.714146) "></path>
                <path d="M12.0322748,10.4700807 C10.9277053,10.4700807 10.0322748,11.3655112 10.0322748,12.4700807" id="Path" stroke="#B5DC6D" stroke-linecap="round" stroke-linejoin="round" transform="translate(11.032275, 11.470081) rotate(-58.000000) translate(-11.032275, -11.470081) "></path>
                <path d="M3,9 L3,9 C4.1045695,9 5,8.1045695 5,7" id="Path" stroke="#B5DC6D" stroke-linecap="round" stroke-linejoin="round" transform="translate(4.000000, 8.000000) rotate(-58.000000) translate(-4.000000, -8.000000) "></path>
                <path d="M5.63625766,9.75593472 C4.53168816,9.75593472 3.63625766,10.6513652 3.63625766,11.7559347" id="Path" stroke="#B5DC6D" stroke-linecap="round" stroke-linejoin="round" transform="translate(4.636258, 10.755935) rotate(-58.000000) translate(-4.636258, -10.755935) "></path>
                <path d="M13,3 L13,3 C14.1045695,3 15,2.1045695 15,1" id="Path" stroke="#B5DC6D" stroke-linecap="round" stroke-linejoin="round" transform="translate(14.000000, 2.000000) rotate(-58.000000) translate(-14.000000, -2.000000) "></path>
                <path d="M15.6362577,3.75593472 C14.5316882,3.75593472 13.6362577,4.65136522 13.6362577,5.75593472" id="Path" stroke="#B5DC6D" stroke-linecap="round" stroke-linejoin="round" transform="translate(14.636258, 4.755935) rotate(-58.000000) translate(-14.636258, -4.755935) "></path>
                <path d="M20,6 L20,6 C21.1045695,6 22,5.1045695 22,4" id="Path" stroke="#B5DC6D" stroke-linecap="round" stroke-linejoin="round" transform="translate(21.000000, 5.000000) rotate(-58.000000) translate(-21.000000, -5.000000) "></path>
                <path d="M22.6362577,6.75593472 C21.5316882,6.75593472 20.6362577,7.65136522 20.6362577,8.75593472" id="Path" stroke="#B5DC6D" stroke-linecap="round" stroke-linejoin="round" transform="translate(21.636258, 7.755935) rotate(-58.000000) translate(-21.636258, -7.755935) "></path>
                <path d="M1,18 L1,18 C2.1045695,18 3,17.1045695 3,16" id="Path" stroke="#B5DC6D" stroke-linecap="round" stroke-linejoin="round" transform="translate(2.000000, 17.000000) rotate(-58.000000) translate(-2.000000, -17.000000) "></path>
                <path d="M3.63625766,18.7559347 C2.53168816,18.7559347 1.63625766,19.6513652 1.63625766,20.7559347" id="Path" stroke="#B5DC6D" stroke-linecap="round" stroke-linejoin="round" transform="translate(2.636258, 19.755935) rotate(-58.000000) translate(-2.636258, -19.755935) "></path>
            </g>
            <ellipse id="Oval" fill="#FFA7A7" transform="translate(66.040703, 5.077710) rotate(42.000000) translate(-66.040703, -5.077710) " cx="66.040703" cy="5.07771013" rx="1" ry="1"></ellipse>
            <path d="M11.0328947,28.2470326 L8.98026316,28.2470326 L8.98026316,37.5430853 C8.98026316,38.7667756 8.71052901,39.6680824 8.17105263,40.2470326 C7.63157625,40.8259829 6.92763592,41.1154537 6.05921053,41.1154537 C5.12499533,41.1154537 4.40131836,40.8128251 3.88815789,40.207559 C3.37499743,39.6022928 3.11842105,38.7141438 3.11842105,37.5430853 L3.11842105,15.2799274 C3.11842105,14.0167632 3.40131296,13.1022986 3.96710526,12.5365063 C4.53289757,11.970714 5.44736211,11.6878221 6.71052632,11.6878221 L16.2434211,11.6878221 C17.5592171,11.6878221 18.6842059,11.7437426 19.6184211,11.8555853 C20.5526363,11.9674279 21.3947331,12.1943994 22.1447368,12.5365063 C23.0526361,12.9180872 23.8552597,13.4641344 24.5526316,14.1746642 C25.2500035,14.8851941 25.7796035,15.7108437 26.1414474,16.6516379 C26.5032913,17.5924321 26.6842105,18.5891326 26.6842105,19.6417695 C26.6842105,21.799675 26.075664,23.523342 24.8585526,24.8128221 C23.6414413,26.1023022 21.796065,27.0167668 19.3223684,27.5562432 C20.3618473,28.1088775 21.3552584,28.9246588 22.3026316,30.0036116 C23.2500047,31.0825644 24.095391,32.2305792 24.8388158,33.4476905 C25.5822406,34.6648019 26.1611821,35.7634751 26.5756579,36.7437432 C26.9901337,37.7240112 27.1973684,38.3983466 27.1973684,38.7667695 C27.1973684,39.1483503 27.0756591,39.526636 26.8322368,39.9016379 C26.5888146,40.2766398 26.2565811,40.5726894 25.8355263,40.7897958 C25.4144716,41.0069021 24.9276343,41.1154537 24.375,41.1154537 C23.717102,41.1154537 23.1644759,40.96085 22.7171053,40.6516379 C22.2697346,40.3424258 21.88487,39.9509824 21.5625,39.4772958 C21.24013,39.0036092 20.8026343,38.3062478 20.25,37.3851905 L17.9013158,33.4772958 C17.0592063,32.0430781 16.3059244,30.9509838 15.6414474,30.20098 C14.9769704,29.4509763 14.302635,28.9378235 13.6184211,28.6615063 C12.9342071,28.3851892 12.0723736,28.2470326 11.0328947,28.2470326 Z M14.3881579,16.0891379 L8.98026316,16.0891379 L8.98026316,24.0430853 L14.2302632,24.0430853 C15.6381649,24.0430853 16.8223636,23.921376 17.7828947,23.6779537 C18.7434259,23.4345314 19.4769712,23.0200619 19.9835526,22.4345326 C20.4901341,21.8490034 20.7434211,21.0430904 20.7434211,20.0167695 C20.7434211,19.2141339 20.5394757,18.5069041 20.1315789,17.895059 C19.7236822,17.2832138 19.1578984,16.8259815 18.4342105,16.5233484 C17.7499966,16.2338733 16.4013259,16.0891379 14.3881579,16.0891379 Z" id="R" fill="#FFFFFF" fill-rule="nonzero"></path>
            <path d="M76.5065789,37.5430853 L76.5065789,28.3654537 L69.4407895,17.4115063 C68.8223653,16.4246593 68.3848697,15.6549301 68.1282895,15.1022958 C67.8717092,14.5496615 67.7434211,14.0694031 67.7434211,13.6615063 C67.7434211,12.9904503 68.0032869,12.4115088 68.5230263,11.9246642 C69.0427658,11.4378197 69.6842067,11.1944011 70.4473684,11.1944011 C71.250004,11.1944011 71.8585506,11.4213725 72.2730263,11.8753221 C72.6875021,12.3292718 73.3092064,13.233868 74.1381579,14.5891379 L79.5460526,23.3720326 L85.0131579,14.5891379 C85.3421069,14.0496615 85.6184199,13.5957187 85.8421053,13.2272958 C86.0657906,12.8588729 86.3124987,12.5134816 86.5822368,12.1911116 C86.851975,11.8687416 87.1513141,11.6220335 87.4802632,11.45098 C87.8092122,11.2799265 88.2105239,11.1944011 88.6842105,11.1944011 C89.4210563,11.1944011 90.0361817,11.4345302 90.5296053,11.9147958 C91.0230288,12.3950614 91.2697368,12.9509769 91.2697368,13.582559 C91.2697368,14.0957194 91.1447381,14.6088722 90.8947368,15.1220326 C90.6447356,15.6351931 90.2171083,16.3457123 89.6118421,17.2536116 L82.3684211,28.3654537 L82.3684211,37.5430853 C82.3684211,38.7404597 82.092108,39.6351876 81.5394737,40.2272958 C80.9868393,40.819404 80.282899,41.1154537 79.4276316,41.1154537 C78.5592062,41.1154537 77.8552659,40.8226935 77.3157895,40.2371642 C76.7763131,39.651635 76.5065789,38.7536176 76.5065789,37.5430853 Z M108.046053,11.1944011 C111.046068,11.1944011 113.6217,11.8029476 115.773026,13.020059 C117.924353,14.2371703 119.552626,15.9674162 120.657895,18.2108484 C121.763163,20.4542807 122.315789,23.0891228 122.315789,26.1154537 C122.315789,28.352307 122.013161,30.3851814 121.407895,32.2141379 C120.802629,34.0430944 119.894743,35.6286049 118.684211,36.9707169 C117.473678,38.3128288 115.986851,39.3391344 114.223684,40.0496642 C112.460517,40.7601941 110.440801,41.1154537 108.164474,41.1154537 C105.901304,41.1154537 103.875009,40.7503258 102.085526,40.020059 C100.296044,39.2897921 98.8026376,38.2601972 97.6052632,36.9312432 C96.4078887,35.6022892 95.5032925,34.0036209 94.8914474,32.1351905 C94.2796022,30.2667601 93.9736842,28.2470435 93.9736842,26.07598 C93.9736842,23.8522847 94.29276,21.8128314 94.9309211,19.957559 C95.5690821,18.1022865 96.493415,16.5233549 97.7039474,15.2207169 C98.9144797,13.9180788 100.388149,12.9213782 102.125,12.2305853 C103.861851,11.5397923 105.835515,11.1944011 108.046053,11.1944011 Z M116.375,26.07598 C116.375,23.9575484 116.032898,22.1220404 115.348684,20.5694011 C114.66447,19.0167617 113.687506,17.8424314 112.417763,17.0463747 C111.14802,16.2503181 109.690798,15.8522958 108.046053,15.8522958 C106.874994,15.8522958 105.792768,16.0726883 104.799342,16.51348 C103.805916,16.9542717 102.950661,17.5957126 102.233553,18.4378221 C101.516444,19.2799316 100.95066,20.3555787 100.536184,21.6647958 C100.121708,22.9740129 99.9144737,24.4443929 99.9144737,26.07598 C99.9144737,27.7207251 100.121708,29.2075523 100.536184,30.5365063 C100.95066,31.8654603 101.53618,32.967423 102.292763,33.8424274 C103.049346,34.7174318 103.917758,35.3720305 104.898026,35.8062432 C105.878294,36.2404559 106.953942,36.457559 108.125,36.457559 C109.625007,36.457559 111.003283,36.0825627 112.259868,35.332559 C113.516454,34.5825552 114.516444,33.424672 115.259868,31.8588747 C116.003293,30.2930774 116.375,28.3654651 116.375,26.07598 Z" id="YO" fill="#FFFFFF" fill-rule="nonzero"></path>
        </g>
    </g>
</svg>