<?xml version="1.0" encoding="UTF-8"?>
<svg width="120px" height="35px" viewBox="0 0 120 35" version="1.1" xmlns="http://www.w3.org/2000/svg" xmlns:xlink="http://www.w3.org/1999/xlink">
    <!-- Generator: Sketch 54.1 (76490) - https://sketchapp.com -->
    <title>royo_ecomerce_logo</title>
    <desc>Created with Sketch.</desc>
    <g id="Page-1" stroke="none" stroke-width="1" fill="none" fill-rule="evenodd">
        <g id="Group-5-Copy" transform="translate(0.000000, -7.000000)">
            <path d="M8.03289474,25.625 L5.98026316,25.625 L5.98026316,34.9210526 C5.98026316,36.144743 5.71052901,37.0460497 5.17105263,37.625 C4.63157625,38.2039503 3.92763592,38.4934211 3.05921053,38.4934211 C2.12499533,38.4934211 1.40131836,38.1907925 0.888157895,37.5855263 C0.374997434,36.9802601 0.118421053,36.0921111 0.118421053,34.9210526 L0.118421053,12.6578947 C0.118421053,11.3947305 0.401312961,10.480266 0.967105263,9.91447368 C1.53289757,9.34868138 2.44736211,9.06578947 3.71052632,9.06578947 L13.2434211,9.06578947 C14.5592171,9.06578947 15.6842059,9.12170997 16.6184211,9.23355263 C17.5526363,9.3453953 18.3947331,9.57236671 19.1447368,9.91447368 C20.0526361,10.2960545 20.8552597,10.8421017 21.5526316,11.5526316 C22.2500035,12.2631614 22.7796035,13.0888111 23.1414474,14.0296053 C23.5032913,14.9703994 23.6842105,15.9671 23.6842105,17.0197368 C23.6842105,19.1776424 23.075664,20.9013093 21.8585526,22.1907895 C20.6414413,23.4802696 18.796065,24.3947341 16.3223684,24.9342105 C17.3618473,25.4868449 18.3552584,26.3026262 19.3026316,27.3815789 C20.2500047,28.4605317 21.095391,29.6085465 21.8388158,30.8256579 C22.5822406,32.0427692 23.1611821,33.1414425 23.5756579,34.1217105 C23.9901337,35.1019786 24.1973684,35.7763139 24.1973684,36.1447368 C24.1973684,36.5263177 24.0756591,36.9046034 23.8322368,37.2796053 C23.5888146,37.6546071 23.2565811,37.9506568 22.8355263,38.1677632 C22.4144716,38.3848695 21.9276343,38.4934211 21.375,38.4934211 C20.717102,38.4934211 20.1644759,38.3388173 19.7171053,38.0296053 C19.2697346,37.7203932 18.88487,37.3289497 18.5625,36.8552632 C18.24013,36.3815766 17.8026343,35.6842151 17.25,34.7631579 L14.9013158,30.8552632 C14.0592063,29.4210455 13.3059244,28.3289511 12.6414474,27.5789474 C11.9769704,26.8289436 11.302635,26.3157909 10.6184211,26.0394737 C9.93420711,25.7631565 9.07237362,25.625 8.03289474,25.625 Z M11.3881579,13.4671053 L5.98026316,13.4671053 L5.98026316,21.4210526 L11.2302632,21.4210526 C12.6381649,21.4210526 13.8223636,21.2993433 14.7828947,21.0559211 C15.7434259,20.8124988 16.4769712,20.3980292 16.9835526,19.8125 C17.4901341,19.2269708 17.7434211,18.4210578 17.7434211,17.3947368 C17.7434211,16.5921012 17.5394757,15.8848715 17.1315789,15.2730263 C16.7236822,14.6611812 16.1578984,14.2039489 15.4342105,13.9013158 C14.7499966,13.6118407 13.4013259,13.4671053 11.3881579,13.4671053 Z" id="R" fill="#484848" fill-rule="nonzero"></path>
            <path d="M73.5065789,34.9210526 L73.5065789,25.7434211 L66.4407895,14.7894737 C65.8223653,13.8026266 65.3848697,13.0328975 65.1282895,12.4802632 C64.8717092,11.9276288 64.7434211,11.4473705 64.7434211,11.0394737 C64.7434211,10.3684177 65.0032869,9.78947612 65.5230263,9.30263158 C66.0427658,8.81578704 66.6842067,8.57236842 67.4473684,8.57236842 C68.250004,8.57236842 68.8585506,8.79933984 69.2730263,9.25328947 C69.6875021,9.70723911 70.3092064,10.6118353 71.1381579,11.9671053 L76.5460526,20.75 L82.0131579,11.9671053 C82.3421069,11.4276289 82.6184199,10.9736861 82.8421053,10.6052632 C83.0657906,10.2368403 83.3124987,9.89144898 83.5822368,9.56907895 C83.851975,9.24670891 84.1513141,9.00000086 84.4802632,8.82894737 C84.8092122,8.65789388 85.2105239,8.57236842 85.6842105,8.57236842 C86.4210563,8.57236842 87.0361817,8.8124976 87.5296053,9.29276316 C88.0230288,9.77302872 88.2697368,10.3289442 88.2697368,10.9605263 C88.2697368,11.4736868 88.1447381,11.9868395 87.8947368,12.5 C87.6447356,13.0131605 87.2171083,13.7236797 86.6118421,14.6315789 L79.3684211,25.7434211 L79.3684211,34.9210526 C79.3684211,36.118427 79.092108,37.0131549 78.5394737,37.6052632 C77.9868393,38.1973714 77.282899,38.4934211 76.4276316,38.4934211 C75.5592062,38.4934211 74.8552659,38.2006608 74.3157895,37.6151316 C73.7763131,37.0296023 73.5065789,36.131585 73.5065789,34.9210526 Z M105.046053,8.57236842 C108.046068,8.57236842 110.6217,9.18091497 112.773026,10.3980263 C114.924353,11.6151377 116.552626,13.3453835 117.657895,15.5888158 C118.763163,17.8322481 119.315789,20.4670901 119.315789,23.4934211 C119.315789,25.7302743 119.013161,27.7631487 118.407895,29.5921053 C117.802629,31.4210618 116.894743,33.0065722 115.684211,34.3486842 C114.473678,35.6907962 112.986851,36.7171017 111.223684,37.4276316 C109.460517,38.1381614 107.440801,38.4934211 105.164474,38.4934211 C102.901304,38.4934211 100.875009,38.1282931 99.0855263,37.3980263 C97.2960437,36.6677595 95.8026376,35.6381645 94.6052632,34.3092105 C93.4078887,32.9802565 92.5032925,31.3815883 91.8914474,29.5131579 C91.2796022,27.6447275 90.9736842,25.6250109 90.9736842,23.4539474 C90.9736842,21.230252 91.29276,19.1907987 91.9309211,17.3355263 C92.5690821,15.4802539 93.493415,13.9013223 94.7039474,12.5986842 C95.9144797,11.2960461 97.3881492,10.2993456 99.125,9.60855263 C100.861851,8.9177597 102.835515,8.57236842 105.046053,8.57236842 Z M113.375,23.4539474 C113.375,21.3355157 113.032898,19.5000078 112.348684,17.9473684 C111.66447,16.3947291 110.687506,15.2203987 109.417763,14.4243421 C108.14802,13.6282855 106.690798,13.2302632 105.046053,13.2302632 C103.874994,13.2302632 102.792768,13.4506557 101.799342,13.8914474 C100.805916,14.332239 99.9506615,14.97368 99.2335526,15.8157895 C98.5164438,16.6578989 97.95066,17.7335461 97.5361842,19.0427632 C97.1217085,20.3519802 96.9144737,21.8223603 96.9144737,23.4539474 C96.9144737,25.0986924 97.1217085,26.5855197 97.5361842,27.9144737 C97.95066,29.2434277 98.5361804,30.3453904 99.2927632,31.2203947 C100.049346,32.0953991 100.917758,32.7499978 101.898026,33.1842105 C102.878294,33.6184232 103.953942,33.8355263 105.125,33.8355263 C106.625007,33.8355263 108.003283,33.4605301 109.259868,32.7105263 C110.516454,31.9605226 111.516444,30.8026394 112.259868,29.2368421 C113.003293,27.6710448 113.375,25.7434325 113.375,23.4539474 Z" id="YO" fill="#484848" fill-rule="nonzero"></path>
            <g id="Group-4" transform="translate(28.000000, 9.000000)">
                <g id="Group-3" transform="translate(5.000000, 0.000000)">
                    <circle id="Combined-Shape" fill="#2169CE" cx="13" cy="13" r="13"></circle>
                    <ellipse id="Oval" stroke="#FFFFFF" stroke-width="1.44444444" cx="13" cy="13" rx="5.77777778" ry="13.7222222"></ellipse>
                    <ellipse id="Oval-Copy" stroke="#FFFFFF" stroke-width="1.44444444" transform="translate(13.000000, 13.000000) rotate(-270.000000) translate(-13.000000, -13.000000) " cx="13" cy="13" rx="5.77777778" ry="13.7222222"></ellipse>
                </g>
                <path d="M5,17.8984375 L18.5874902,17.8984375 C19.1397749,17.8984375 19.5874902,18.3461528 19.5874902,18.8984375 C19.5874902,18.9961402 19.5731718,19.0933156 19.5449916,19.1868661 L16.5889771,29 L6.17211914,22.90625 L5,17.8984375 Z" id="Path-7" fill="#FFFFFF"></path>
                <g id="ic_cart" transform="translate(0.000000, 14.000000)">
                    <g id="Group" transform="translate(0.316667, 0.625000)">
                        <g id="Group-2" transform="translate(0.000000, 0.669643)">
                            <ellipse id="Oval-Copy" fill="#2169CE" cx="14.1075838" cy="15" rx="2.16472663" ry="2.14285714"></ellipse>
                            <ellipse id="Oval-Copy-2" fill="#2169CE" cx="6.50758377" cy="15" rx="2.16472663" ry="2.14285714"></ellipse>
                            <polyline id="Rectangle-2" stroke="#2169CE" stroke-linecap="round" stroke-linejoin="round" points="6.50758377 3.86160714 17.7333333 3.86160714 15.67039 10.7142857 4.69262601 10.7142857 2.72982584 1.07359492 0 0"></polyline>
                        </g>
                    </g>
                    <path d="M6.6513916,9.83300781 L11.4906006,9.83300781" id="Line" stroke="#2169CE" stroke-linecap="round" stroke-linejoin="round" fill-rule="nonzero"></path>
                    <path d="M6.6513916,7.83300781 L8.94660645,7.83300781" id="Line-Copy" stroke="#2169CE" stroke-linecap="round" stroke-linejoin="round" fill-rule="nonzero"></path>
                </g>
            </g>
        </g>
    </g>
</svg>