<?xml version="1.0" encoding="UTF-8"?>
<svg width="30px" height="26px" viewBox="0 0 30 26" version="1.1" xmlns="http://www.w3.org/2000/svg" xmlns:xlink="http://www.w3.org/1999/xlink">
    <!-- Generator: Sketch 61 (89581) - https://sketch.com -->
    <title>send (6)</title>
    <desc>Created with Sketch.</desc>
    <g id="Page-1" stroke="none" stroke-width="1" fill="none" fill-rule="evenodd">
        <g id="send-(6)" fill="#323949" fill-rule="nonzero">
            <path d="M28.2133594,10.2735938 L4.00863281,0.230039063 C2.98892578,-0.193125 1.83691406,-0.00697265625 1.00224609,0.715605469 C0.167578125,1.43830078 -0.181523437,2.55181641 0.0912890625,3.6215625 L2.24572266,12.0703125 L12.7941211,12.0703125 C13.2795117,12.0703125 13.6730859,12.4638281 13.6730859,12.9492773 C13.6730859,13.434668 13.2795703,13.8282422 12.7941211,13.8282422 L2.24572266,13.8282422 L0.0912890625,22.2769336 C-0.181523437,23.3467383 0.167519531,24.4602539 1.00224609,25.1828906 C1.83861328,25.9069336 2.99074219,26.0908008 4.00869141,25.668457 L28.213418,15.6249609 C29.3154492,15.1676953 30,14.1424219 30,12.9492773 C30,11.7561328 29.3154492,10.7308008 28.2133594,10.2735938 Z" id="Path"></path>
        </g>
    </g>
</svg>