<?xml version="1.0" encoding="UTF-8"?>
<svg width="16px" height="16px" viewBox="0 0 16 16" version="1.1" xmlns="http://www.w3.org/2000/svg" xmlns:xlink="http://www.w3.org/1999/xlink">
    <!-- Generator: Sketch 55 (78076) - https://sketchapp.com -->
    <title>star</title>
    <desc>Created with Sketch.</desc>
    <g id="Page-1" stroke="none" stroke-width="1" fill="none" fill-rule="evenodd">
        <g id="Restaurant" transform="translate(-435.000000, -840.000000)" fill="#ED8A19" fill-rule="nonzero">
            <g id="Group-14" transform="translate(435.000000, 600.000000)">
                <g id="Group-8" transform="translate(0.000000, 56.000000)">
                    <g id="Group-7">
                        <g id="Group-6" transform="translate(0.000000, 184.000000)">
                            <g id="star">
                                <path d="M8.76166667,0.516869565 L10.564,4.32765217 C10.6893333,4.59269565 10.9316667,4.77634783 11.212,4.81878261 L15.2423333,5.42991304 C15.9483333,5.53704348 16.23,6.44208696 15.7193333,6.9613913 L12.803,9.92765217 C12.6003333,10.133913 12.5076667,10.4313043 12.5556667,10.7224348 L13.244,14.9109565 C13.3646667,15.6445217 12.6266667,16.2038261 11.9953333,15.8577391 L8.39066667,13.8803478 C8.14,13.7429565 7.84033333,13.7429565 7.58966667,13.8803478 L3.985,15.8577391 C3.35366667,16.2041739 2.61566667,15.6445217 2.73633333,14.9109565 L3.42466667,10.7224348 C3.47266667,10.4313043 3.38,10.133913 3.17733333,9.92765217 L0.261,6.9613913 C-0.249666667,6.44173913 0.032,5.53669565 0.738,5.42991304 L4.76833333,4.81878261 C5.04866667,4.77634783 5.291,4.59269565 5.41633333,4.32765217 L7.21866667,0.516869565 C7.534,-0.150608696 8.446,-0.150608696 8.76166667,0.516869565 Z" id="Path"></path>
                            </g>
                        </g>
                    </g>
                </g>
            </g>
        </g>
    </g>
</svg>