<?xml version="1.0" encoding="UTF-8"?>
<svg width="200px" height="200px" viewBox="0 0 200 200" version="1.1" xmlns="http://www.w3.org/2000/svg" xmlns:xlink="http://www.w3.org/1999/xlink">
    <!-- Generator: Sketch 54.1 (76490) - https://sketchapp.com -->
    <title>1</title>
    <desc>Created with Sketch.</desc>
    <defs>
        <circle id="path-1" cx="90" cy="90" r="90"></circle>
        <polygon id="path-3" points="0.16734375 0.316949153 36.1792749 0.316949153 36.1792749 24.2717514 0.16734375 24.2717514"></polygon>
    </defs>
    <g id="web" stroke="none" stroke-width="1" fill="none" fill-rule="evenodd">
        <g id="commercial-delivery-symbol-of-a-list-on-clipboard-on-a-box-package" transform="translate(10.000000, 10.000000)">
            <g id="Group-25">
                <mask id="mask-2" fill="white">
                    <use xlink:href="#path-1"></use>
                </mask>
                <use id="Mask" fill="#063A50" xlink:href="#path-1"></use>
                <g id="commercial-delivery-symbol-of-a-list-on-clipboard-on-a-box-package" mask="url(#mask-2)" fill="#657880" fill-rule="nonzero">
                    <g transform="translate(100.000000, 154.000000)" id="Shape">
                        <path d="M42.0384573,6.78 L37.3453545,0.91034965 C36.9020968,0.355874126 36.2295992,0.0328671329 35.5182404,0.0328671329 L11.2621017,0.0328671329 C10.5508831,0.0328671329 9.87838554,0.355874126 9.43505765,0.91027972 L4.74202502,6.78 C4.25176891,7.39321678 3.85059925,8.5365035 3.85059925,9.39958042 L3.85059925,13.699021 C4.22335944,13.1144056 4.76818979,12.6755944 5.42153726,12.4511189 C5.45808375,11.9597902 5.60749647,11.4832867 5.86304134,11.0493706 C6.30573791,10.2976224 7.0159043,9.76307692 7.86236597,9.54356643 C8.16582111,9.46454545 8.44367266,9.42874126 8.72145406,9.42874126 C9.84064656,9.42874126 10.8548293,9.99629371 11.4486922,10.8879021 C11.6255324,10.8572028 11.8039859,10.8412587 11.9831408,10.8412587 C12.532671,10.8412587 13.0519679,10.9918881 13.5043448,11.2514685 L16.1039157,10.5774126 C16.4296776,10.4926573 16.7644182,10.4500699 17.0998603,10.4500699 C18.8977934,10.4500699 20.4693627,11.6624476 20.9223007,13.3986014 L26.0168537,32.9185315 C26.28264,33.9369231 26.1343497,34.9974825 25.6003921,35.9051049 C25.0658733,36.8127273 24.2085389,37.4581119 23.1869206,37.7231469 L20.9132518,38.3127273 L40.0092501,38.3127273 C41.6222762,38.3127273 42.9298831,37.0091608 42.9298831,35.4011888 L42.929813,9.3206993 C42.929813,8.5365035 42.5287134,7.39321678 42.0384573,6.78 Z M6.27564492,6.73034965 L7.82981784,4.7865035 L18.4336319,4.7865035 L19.480012,3.0713986 L9.20118815,3.0713986 L10.3485797,1.63629371 C10.5715063,1.35748252 10.9044932,1.19755245 11.2621017,1.19755245 L35.5183105,1.19755245 C35.8759891,1.19755245 36.2089761,1.35748252 36.4318325,1.63629371 L37.579224,3.0713986 L27.117317,3.0713986 L27.7014296,4.7865035 L38.9505944,4.7865035 L40.5046971,6.73034965 L6.27564492,6.73034965 Z M6.74969713,13.9022378 L6.0941751,14.0722378 C5.39600382,14.2533566 4.97722731,14.9644056 5.15883742,15.6604196 L5.16550137,15.6858741 C5.34718163,16.381958 6.06043448,16.7993706 6.75867592,16.6183217 L12.3179516,15.1765035 C13.016193,14.9954545 13.4348994,14.2844056 13.2532893,13.5882517 L13.2466253,13.5627972 C13.0649451,12.8667832 12.3516922,12.4493007 11.6535209,12.6303497 L10.9979989,12.8003497 C10.6477559,12.8911888 10.2898668,12.6817483 10.1987461,12.3325874 L10.1931343,12.3113287 C9.98150137,11.5004196 9.1506123,11.0140559 8.33718979,11.225035 L8.30316858,11.2338462 C7.48974607,11.4448252 7.00194509,12.2731469 7.21350789,13.0840559 L7.21911964,13.1053147 C7.31010006,13.4546853 7.10001034,13.8113986 6.74969713,13.9022378 Z M8.54159762,12.0783916 C8.89422568,11.9869231 9.25449974,12.1978322 9.34618163,12.5493007 C9.43793367,12.9008392 9.22644101,13.26 8.8737428,13.3513986 C8.52111475,13.4427972 8.16091083,13.231958 8.06915879,12.8804895 C7.9774769,12.528951 8.18896956,12.1697902 8.54159762,12.0783916 Z M16.7346058,32.1542657 C16.7957738,32.3886713 16.6547787,32.628042 16.4197167,32.689021 L8.33185863,34.7865035 C8.09679664,34.8474825 7.85661393,34.7068531 7.7954459,34.4725175 L7.68468408,34.0482517 C7.62351605,33.8137762 7.76451116,33.5744056 7.99964329,33.5134965 L16.0874312,31.416014 C16.3225634,31.355035 16.5626759,31.4956643 16.6238439,31.7299301 L16.7346058,32.1542657 Z M17.7210103,23.7430769 L17.8317722,24.1674126 C17.8929402,24.4018182 17.7519451,24.6411888 17.516813,24.7020979 L6.44932845,27.5725175 C6.21419631,27.6334965 5.97408375,27.4928671 5.91291572,27.2586014 L5.8021539,26.8341958 C5.74098587,26.5997902 5.88198098,26.3604196 6.11711311,26.2995105 L17.1845976,23.4292308 C17.4197298,23.3681818 17.6598423,23.5086713 17.7210103,23.7430769 Z M16.5201669,20.883007 L5.45268245,23.7532867 C5.21755031,23.8141958 4.97743775,23.6736364 4.91626972,23.4393007 L4.80550789,23.014965 C4.74433987,22.7805594 4.88533497,22.5412587 5.12046711,22.4802797 L16.1879516,19.61 C16.4230838,19.549021 16.6631963,19.6895804 16.7243643,19.9239161 L16.8351262,20.3483217 C16.8962942,20.5825874 16.7552991,20.822028 16.5201669,20.883007 Z M16.2743725,28.649021 L7.33521262,30.9673427 C7.10008049,31.0282517 6.85996793,30.8876923 6.7987999,30.6533566 L6.68803807,30.229021 C6.62687005,29.9946154 6.76786515,29.7552448 7.00299729,29.6942657 L15.942087,27.3760839 C16.1772191,27.315035 16.4173317,27.4556643 16.4784997,27.69 L16.5892616,28.1143357 C16.6504997,28.3486713 16.5095046,28.5881119 16.2743725,28.649021 Z M24.3204932,33.3584615 L19.2265715,13.837972 C18.9208015,12.6661538 17.7199581,11.9633566 16.5445079,12.2681818 L13.948795,12.9413986 C14.0101735,13.0677622 14.0611001,13.2011888 14.0979271,13.342028 C14.4080462,14.5305594 13.7059467,15.7227972 12.5392648,16.0253846 L7.06171018,17.4459441 C5.94356988,17.7359441 4.73964003,17.161958 4.3642844,16.0726573 C4.29357641,15.8674825 4.25534639,15.6612587 4.24440349,15.4581119 L1.64602502,16.132028 C0.470574778,16.4368531 -0.234400752,17.633986 0.0713692313,18.8057343 L5.16529093,38.3262238 C5.47113106,39.4981119 6.6719043,40.2009091 7.84735455,39.896014 L22.7459777,36.0321678 C23.9213578,35.7273427 24.6263333,34.5302797 24.3204932,33.3584615 Z M7.29361556,37.7742657 L2.86412453,20.8 L17.7626776,16.9361538 L22.1922387,33.9104196 L7.29361556,37.7742657 Z"></path>
                    </g>
                </g>
                <g mask="url(#mask-2)" id="Group-6">
                    <g transform="translate(30.000000, 7.000000)">
                        <g>
                            <polyline id="Fill-5" fill="#657880" points="27.5535 161.755367 53.474625 146.792655 52.860375 122.200565 25.8778125 131.299435 27.5535 161.755367"></polyline>
                            <path d="M28.82475,159.325989 C28.82475,160.954802 27.4989375,162.285876 25.8778125,162.285876 L4.9725,162.285876 C3.3519375,162.285876 2.026125,160.954802 2.026125,159.325989 L2.026125,134.259887 C2.026125,132.631073 3.3519375,131.299435 4.9725,131.299435 L25.8778125,131.299435 C27.4989375,131.299435 28.82475,132.631073 28.82475,134.259887 L28.82475,159.325989" id="Fill-6" fill="#657880"></path>
                            <polyline id="Fill-7" fill="#42616E" points="2.026125 136.725989 28.82475 136.725989 54.7025625 124.762712 28.5226875 124.577966 2.118375 133.642373 2.026125 136.725989"></polyline>
                            <path d="M19.256625,102.517514 L19.8151875,112.112429 C19.8151875,112.112429 18.56475,113.537288 18.2885625,115.29435 C18.012375,117.052542 19.3483125,121.60791 20.6375625,121.7 C21.9268125,121.79209 28.062,121.132203 28.5226875,120.854802 C28.983375,120.577401 28.216125,117.750282 28.216125,117.750282 C28.216125,117.750282 27.56475,113.39887 26.5516875,112.381356 C25.538625,111.363842 26.5516875,102.517514 26.5516875,102.517514 L19.256625,102.517514" id="Fill-8" fill="#F1B08C"></path>
                            <path d="M25.354125,130.676271 L3.4509375,130.676271 C3.1618125,130.676271 2.8828125,130.718644 2.6195625,130.799435 C1.4445,131.157627 0.588375,132.253672 0.588375,133.550847 L28.216125,133.550847 C28.216125,131.963277 26.93475,130.676271 25.354125,130.676271" id="Fill-9" fill="#ED992D"></path>
                            <polyline id="Fill-10" fill="#ED992D" points="31.863375 121.310169 2.6195625 130.799435 28.82475 134.661017 54.4258125 122.912994 31.863375 121.310169"></polyline>
                            <path d="M29.34675,133.889266 C29.34675,134.314689 29.0030625,134.661017 28.5789375,134.661017 L0.76725,134.661017 C0.343125,134.661017 1.42108547e-14,134.314689 1.42108547e-14,133.889266 C1.42108547e-14,133.463277 0.343125,133.118644 0.76725,133.118644 L28.5789375,133.118644 C29.0030625,133.118644 29.34675,133.463277 29.34675,133.889266" id="Fill-11" fill="#ED992D"></path>
                            <path d="M19.1075625,129.660452 L16.160625,129.660452 L16.160625,122.442373 C16.160625,120.154802 17.877375,117.875706 20.068875,117.253107 L35.1928125,112.959322 L35.1928125,123.733898 L32.245875,123.733898 L32.245875,116.871751 L20.8704375,120.101695 C19.9310625,120.368362 19.1075625,121.461582 19.1075625,122.442373 L19.1075625,129.660452" id="Fill-12" fill="#6B675E"></path>
                            <path d="M23.241375,49.779096 C20.1515625,54.1706215 14.4275625,77.5892655 15.532875,84.4344633 C16.6381875,91.279096 18.5090625,104.59887 18.5090625,104.59887 L27.5090625,104.580791 C27.5090625,104.580791 25.822125,81.1576271 28.216125,78.1977401 C30.6106875,75.2378531 31.6524375,73.5011299 31.6524375,73.5011299 L40.615875,103.303955 L59.7706875,106.078531 C59.7706875,106.078531 64.1300625,75.4322034 75.4261875,65.3186441 C75.4261875,65.3186441 76.5315,46.140678 67.6906875,45.4011299 C58.849875,44.6610169 28.27575,42.6259887 23.241375,49.779096" id="Fill-13" fill="#4FA2C5"></path>
                            <path d="M65.111625,196.046893 C65.111625,196.046893 62.656875,124.270056 62.16525,106.757062 C61.673625,89.2440678 71.742375,70.559887 71.742375,70.559887 C71.742375,70.559887 69.532875,67.4152542 59.58675,61.4954802 L28.902375,61.9062147 L28.216125,78.1977401 C28.216125,78.1977401 31.959,94.6700565 31.2226875,119.336158 C30.4858125,144.00226 28.5215625,194.812429 28.5215625,194.812429 L34.9065,194.072881 C34.9065,194.072881 42.017625,113.663842 46.929375,118.102825 C51.8405625,122.542938 59.7099375,196.046893 59.7099375,196.046893 L66.0943125,196.046893 L65.111625,196.046893" id="Fill-14" fill="#F5BB26"></path>
                            <path d="M38.3715,44.559887 C38.993625,43.1242938 31.3149375,43.6920904 30.20625,45.1542373 C27.9613125,48.1146893 29.1706875,68.7728814 29.1706875,68.7728814 L36.2570625,64.5785311 C36.2570625,64.5785311 34.9335,52.4926554 38.3715,44.559887" id="Fill-15" fill="#F5BB26"></path>
                            <path d="M54.2525625,44.9050847 C54.2525625,44.9050847 46.3775625,49.8112994 40.0635,45.1864407 L40.6603125,38.4305085 L40.7413125,37.4615819 L41.043375,34.0276836 L53.2726875,34.0276836 L54.2525625,44.9050847" id="Fill-16" fill="#F1B08C"></path>
                            <path d="M44.5719375,47.1700565 L40.2193125,42.9067797 L38.6746875,44.9220339 C38.6746875,44.9220339 38.923875,46.6152542 44.5719375,47.1700565" id="Fill-17" fill="#0E5776"></path>
                            <path d="M54.0725625,42.9067797 L44.5719375,47.1700565 C44.5719375,47.1700565 50.58675,48.4124294 55.684125,44.6870056 L54.0725625,42.9067797" id="Fill-18" fill="#0E5776"></path>
                            <path d="M53.79525,39.8146893 L50.4658125,40.0361582 C44.425125,40.2581921 41.720625,39.1112994 40.6603125,38.4305085 C40.2255,38.1491525 40.0635,37.9423729 40.0635,37.9423729 C40.0635,37.9423729 40.3138125,37.7644068 40.7413125,37.4615819 C41.7358125,36.7435028 43.7248125,35.359887 45.8319375,34.0276836 L53.2726875,34.0276836 L53.79525,39.8146893" id="Fill-19" fill="#E49C75"></path>
                            <path d="M35.9645625,13.1016949 C35.9645625,13.1016949 36.9804375,23.759322 36.9804375,26.820339 C36.9804375,29.8819209 34.723125,34.1898305 36.9804375,36.5706215 C39.23775,38.9514124 55.1064375,40.1180791 57.2990625,35.3519774 C58.888125,31.8966102 59.67,22.1717514 57.2990625,11.2870056 C54.928125,0.402824859 35.9645625,13.1016949 35.9645625,13.1016949" id="Fill-20" fill="#F1B08C"></path>
                            <path d="M61.9689375,24.4050847 C61.4559375,26.5666667 59.697,27.9983051 58.039875,27.6016949 C56.38275,27.2050847 55.4540625,25.1316384 55.967625,22.9700565 C56.4795,20.8084746 58.2384375,19.3774011 59.896125,19.7734463 C61.5526875,20.1700565 62.4819375,22.2435028 61.9689375,24.4050847" id="Fill-21" fill="#F1B08C"></path>
                            <g id="Group-26" transform="translate(23.683500, 0.000000)">
                                <mask id="mask-4" fill="white">
                                    <use xlink:href="#path-3"></use>
                                </mask>
                                <g id="Clip-23"></g>
                                <path d="M27.3358125,11.639548 C27.3358125,11.639548 30.711375,14.3531073 31.7244375,17.0050847 C32.430375,18.8519774 32.536125,24.2717514 32.536125,24.2717514 L33.550875,24.2717514 C33.550875,24.2717514 33.631875,19.8768362 35.114625,19.7672316 C35.114625,19.7672316 35.8531875,15.1548023 35.66925,12.8887006 C35.48475,10.6225989 27.3358125,11.639548 27.3358125,11.639548" id="Fill-22" fill="#484840" mask="url(#mask-4)"></path>
                                <path d="M35.66925,15.5045198 C35.66925,15.5045198 37.895625,5.71694915 33.0451875,3.92881356 C28.195875,2.14067797 14.59575,0.23220339 13.4296875,4.24011299 C12.2630625,8.24858757 11.925,15.5045198 11.925,15.5045198 C11.925,15.5045198 19.2189375,2.62542373 35.66925,15.5045198" id="Fill-24" fill="#4FA2C5" mask="url(#mask-4)"></path>
                                <path d="M34.3085625,14.9615819 C34.3085625,14.9615819 34.3085625,14.9615819 34.3085625,14.9559322 C29.581875,13.1502825 14.117625,7.93107345 12.576375,16.3672316 C12.576375,16.3672316 12.5465625,16.3548023 12.4869375,16.3310734 C12.457125,16.319209 12.4273125,16.3073446 12.38625,16.2892655 C12.373875,16.2892655 12.3676875,16.2830508 12.3620625,16.2774011 C12.33225,16.2649718 12.3024375,16.2531073 12.267,16.2412429 C12.249,16.2355932 12.231,16.2237288 12.207375,16.2175141 C12.1595625,16.1937853 12.0999375,16.1694915 12.040875,16.1457627 C12.022875,16.139548 11.99925,16.1338983 11.98125,16.1220339 C9.754875,15.1711864 1.9153125,11.6621469 0.4156875,8.69039548 L0.4156875,8.68418079 C0.0945,8.05084746 0.0646875,7.43502825 0.4455,6.87909605 C2.898,3.28587571 16.9036875,-0.67740113 20.98125,0.54180791 C27.576,2.51468927 35.451,15.1468927 35.6653125,15.5 C35.6056875,15.4762712 35.1118125,15.2666667 34.3085625,14.9615819" id="Fill-25" fill="#0E5776" mask="url(#mask-4)"></path>
                            </g>
                            <path d="M47.15775,18.9870056 C47.15775,18.9870056 49.269375,18.339548 52.3389375,19.6039548 C52.3389375,19.6039548 53.2794375,19.1361582 53.3818125,18.8548023 C53.56575,18.3519774 51.0451875,15.9141243 47.6116875,16.4892655 C45.631125,16.820904 46.7083125,19.079661 47.15775,18.9870056" id="Fill-27" fill="#484840"></path>
                            <path d="M41.23575,19.2474576 C41.23575,19.2474576 39.1815,18.740678 36.5878125,20.0045198 C36.5878125,20.0045198 35.7935625,19.5361582 35.7069375,19.2548023 C35.551125,18.7531073 37.6576875,16.3909605 40.5826875,16.8898305 C42.339375,17.1898305 41.4545625,19.1446328 41.23575,19.2474576" id="Fill-28" fill="#484840"></path>
                            <path d="M44.01675,20.3276836 C44.01675,20.3276836 43.956,24.3050847 43.6179375,25.3841808 C43.6179375,25.3841808 41.653125,26.1242938 42.267375,27.9435028 C42.8810625,29.7627119 45.3915,28.6531073 45.4595625,28.5909605 C46.0119375,28.0898305 46.184625,23.5259887 45.275625,20.3276836 C44.7845625,18.6011299 44.01675,20.3276836 44.01675,20.3276836" id="Fill-29" fill="#ED9D70"></path>
                            <path d="M50.3634375,30.1875706 L50.3634375,30.1949153 C50.3415,30.6384181 50.259375,31.0751412 50.112,31.4824859 C50.10525,31.5045198 50.097375,31.5265537 50.090625,31.5485876 C50.0754375,31.600565 50.0540625,31.6525424 50.0315625,31.6966102 C49.633875,32.6881356 48.8671875,33.4949153 47.7253125,33.7016949 C45.92025,34.020339 44.512875,33.3762712 43.5628125,32.6661017 C42.642,31.9779661 42.1486875,31.2305085 42.1486875,31.2305085 C42.1486875,31.2305085 42.5165625,31.2378531 43.1060625,31.2011299 C43.223625,31.1932203 43.3490625,31.1864407 43.4818125,31.1711864 C45.1693125,31.0310734 48.09375,30.5423729 50.1935625,28.8926554 C50.1935625,28.8926554 50.4225,28.9734463 50.3634375,30.1875706" id="Fill-30" fill="#65472E"></path>
                            <path d="M51.476625,22.2649718 C51.476625,22.920339 51.046875,23.4514124 50.517,23.4514124 C49.9876875,23.4514124 49.5579375,22.920339 49.5579375,22.2649718 C49.5579375,21.6101695 49.9876875,21.0785311 50.517,21.0785311 C51.046875,21.0785311 51.476625,21.6101695 51.476625,22.2649718" id="Fill-31" fill="#B37452"></path>
                            <path d="M41.601375,22.2649718 C41.601375,22.920339 41.171625,23.4514124 40.6411875,23.4514124 C40.111875,23.4514124 39.682125,22.920339 39.682125,22.2649718 C39.682125,21.6101695 40.111875,21.0785311 40.6411875,21.0785311 C41.171625,21.0785311 41.601375,21.6101695 41.601375,22.2649718" id="Fill-32" fill="#B37452"></path>
                            <path d="M58.798125,25.079096 C58.798125,25.079096 59.64075,24.6169492 59.2261875,23.7033898 C58.8121875,22.7898305 58.73175,22.3966102 58.73175,22.3966102 C58.73175,22.3966102 59.5485,20.4542373 60.4231875,21.460452 C61.2984375,22.4666667 60.8034375,24.8367232 60.0778125,25.3338983 C59.35275,25.8310734 58.7041875,25.9813559 58.798125,25.079096" id="Fill-33" fill="#ED9D70"></path>
                            <path d="M35.9645625,65.9355932 L52.860375,65.9355932 C52.860375,65.9355932 43.0036875,69.080226 35.9645625,65.9355932" id="Fill-34" fill="#ED9C2D"></path>
                            <path d="M21.823875,121.70904 C21.823875,121.70904 23.698125,120.877966 22.7773125,116.99322 C22.393125,115.373446 27.8600625,114.992655 28.6700625,115.510734 C30.1865625,116.480791 29.4800625,120.474576 28.216125,121.077966 C26.9521875,121.680226 21.823875,121.70904 21.823875,121.70904" id="Fill-35" fill="#F1B08C"></path>
                            <path d="M57.045375,44.1073446 C58.766625,42.4073446 67.1698125,44.2711864 65.2185,45.2762712 C61.25175,47.319774 61.71075,66.8734463 61.71075,66.8734463 L54.343125,67.860452 C54.343125,67.860452 53.5055625,47.6011299 57.045375,44.1073446" id="Fill-36" fill="#F5BB26"></path>
                            <path d="M11.2123125,162.251977 C11.2123125,162.775706 10.7893125,163.199435 10.267875,163.199435 C9.747,163.199435 9.3245625,162.775706 9.3245625,162.251977 C9.3245625,161.728249 9.747,161.303955 10.267875,161.303955 C10.7893125,161.303955 11.2123125,161.728249 11.2123125,162.251977" id="Fill-39" fill="#6B675E"></path>
                            <path d="M16.3693125,162.251977 C16.3693125,162.775706 15.946875,163.199435 15.424875,163.199435 C14.904,163.199435 14.4815625,162.775706 14.4815625,162.251977 C14.4815625,161.728249 14.904,161.303955 15.424875,161.303955 C15.946875,161.303955 16.3693125,161.728249 16.3693125,162.251977" id="Fill-40" fill="#6B675E"></path>
                            <path d="M21.5263125,162.251977 C21.5263125,162.775706 21.103875,163.199435 20.5824375,163.199435 C20.061,163.199435 19.6385625,162.775706 19.6385625,162.251977 C19.6385625,161.728249 20.061,161.303955 20.5824375,161.303955 C21.103875,161.303955 21.5263125,161.728249 21.5263125,162.251977" id="Fill-41" fill="#6B675E"></path>
                            <polygon id="Fill-42" fill="#42616E" points="5.725125 156.828249 25.1251875 156.828249 25.1251875 140.488136 5.725125 140.488136"></polygon>
                            <path d="M50.3634375,30.1875706 L50.3634375,30.1949153 C50.3415,30.6384181 50.259375,31.0751412 50.112,31.4824859 C50.10525,31.5045198 50.097375,31.5265537 50.090625,31.5485876 C49.2136875,31.7559322 48.2338125,31.8672316 47.194875,31.8672316 C45.6553125,31.8672316 44.240625,31.6225989 43.1060625,31.2011299 C43.223625,31.1932203 43.3490625,31.1864407 43.4818125,31.1711864 C45.1693125,31.0310734 48.09375,30.5423729 50.1935625,28.8926554 C50.1935625,28.8926554 50.4225,28.9734463 50.3634375,30.1875706" id="Fill-43" fill="#FFFFFE"></path>
                            <path d="M35.9645625,67.3333333 C35.9645625,67.3333333 35.485875,80.1180791 37.634625,81.2898305 C39.783375,82.4615819 51.2026875,83.0779661 52.06275,81.5983051 C52.92225,80.1180791 52.860375,66.6338983 52.860375,66.6338983 C52.860375,66.6338983 52.19325,81.1050847 50.4084375,81.4135593 C48.6241875,81.7214689 37.2414375,81.8039548 35.9645625,67.3333333" id="Fill-44" fill="#ED9C2D"></path>
                            <path d="M18.5090625,105.307345 C18.5090625,105.307345 28.3753125,105.215819 28.216125,104.536723 C28.0569375,103.858757 28.8050625,97.3841808 28.216125,97.3841808 C27.6271875,97.3841808 16.392375,96.7056497 16.392375,97.8158192 C16.392375,98.9259887 17.67825,105.319209 18.5090625,105.307345" id="Fill-45" fill="#459BBF"></path>
                            <path d="M21.364875,115.618079 C21.364875,115.618079 23.895,120.10678 22.419,121.173446 C21.6815625,121.70678 26.249625,122.433898 25.8778125,119.59435 C25.687125,118.137853 25.2489375,115.89322 24.6886875,114.263277 C24.154875,112.714124 22.8358125,111.548023 22.419,111.315254 C21.5634375,110.837853 20.5104375,113.754802 21.364875,115.618079" id="Fill-46" fill="#F1B08C"></path>
                            <path d="M47.1583125,118.357062 C47.1583125,118.357062 42.991875,114.881356 42.892875,115.29435 C42.793875,115.708475 33.91425,192.470056 33.91425,192.470056 L35.224875,192.470056 C35.224875,192.470056 44.5573125,122.840678 46.8253125,118.501695 L47.1583125,118.357062" id="Fill-47" fill="#ED9C2D"></path>
                            <path d="M64.990125,192.470056 C64.990125,192.470056 59.1170625,113.216384 59.88375,109.828814 C60.651,106.441243 61.63425,62.7423729 61.63425,62.7423729 C61.63425,62.7423729 67.61925,72.9864407 68.4770625,77.6525424 C68.954625,80.2514124 63.6699375,91.6887006 63.351,100.659322 C63.0315,109.629944 65.788875,192.660452 65.788875,192.660452 L64.990125,192.470056" id="Fill-48" fill="#ED9C2D"></path>
                            <polyline id="Fill-49" fill="#F9F9F9" points="61.1415 121.041243 60.6375 118.124859 89.800875 113.037853 90.3043125 115.953672 61.1415 121.041243"></polyline>
                            <path d="M74.0413125,101.870056 L73.9794375,110.215254 C73.9794375,110.215254 71.4009375,114.377966 71.12475,116.135593 C70.849125,117.892655 73.1503125,122.148023 74.4395625,122.240113 C75.7288125,122.332203 81.13725,121.132203 81.597375,120.854802 C82.0575,120.577401 83.0401875,116.967797 83.0401875,116.967797 C83.0401875,116.967797 82.7285625,113.267797 81.7155,112.250847 C80.701875,111.233333 81.777375,101.978531 81.777375,101.978531 L74.0413125,101.870056" id="Fill-50" fill="#F1B08C"></path>
                            <path d="M61.63425,62.7423729 C61.63425,62.7423729 69.46425,74.8225989 71.1016875,87.5175141 C72.657,99.5762712 72.732375,101.978531 72.732375,101.978531 L82.605375,101.978531 C82.605375,101.978531 83.8951875,93.5079096 81.6091875,78.1152542 C79.486875,63.819774 76.0539375,49.3237288 70.71075,46.5853107 C59.6143125,40.899435 61.63425,62.7423729 61.63425,62.7423729" id="Fill-51" fill="#4FA2C5"></path>
                            <path d="M60.2094375,121.472881 C59.7538125,122.230508 58.9156875,122.738418 57.9650625,122.738418 C56.5081875,122.738418 55.3269375,121.551977 55.3269375,120.089266 C55.3269375,119.676271 55.4225625,119.287006 55.5913125,118.941808 C56.0131875,118.054802 56.9188125,117.438983 57.9650625,117.438983 C58.2069375,117.438983 58.4375625,117.473446 58.6569375,117.535028 C59.2250625,117.681921 59.7144375,118.026554 60.0575625,118.478531 C60.4006875,118.924859 60.6031875,119.484181 60.6031875,120.089266 C60.6031875,120.597175 60.4625625,121.071751 60.2094375,121.472881 Z M63.0219375,117.70452 C62.8644375,117.376836 62.6844375,117.060452 62.4706875,116.772316 C61.8294375,115.897175 60.9350625,115.213559 59.9000625,114.823164 C59.2981875,114.60339 58.6456875,114.478531 57.9650625,114.478531 C57.6275625,114.478531 57.2956875,114.507345 56.9750625,114.568927 C55.8219375,114.772316 54.7925625,115.337288 54,116.139548 C52.9981875,117.156497 52.3794375,118.546328 52.3794375,120.089266 C52.3794375,120.845763 52.5313125,121.569492 52.8013125,122.224294 C52.8181875,122.275706 52.8406875,122.326554 52.8688125,122.376836 C52.9306875,122.529379 53.0038125,122.676836 53.0881875,122.818079 C53.1894375,123.010169 53.3075625,123.19661 53.4375,123.371186 C54.4494375,124.783616 56.1031875,125.69887 57.9650625,125.69887 C58.8481875,125.69887 59.6806875,125.49548 60.4175625,125.128814 C61.3456875,124.670621 62.1275625,123.970621 62.6731875,123.100565 C63.140625,122.371751 63.4381875,121.529379 63.5225625,120.625424 C63.5394375,120.450282 63.5506875,120.269492 63.5506875,120.089266 C63.5506875,119.235593 63.3594375,118.427684 63.0219375,117.70452 L63.0219375,117.70452 Z" id="Fill-52" fill="#F9F9F9"></path>
                            <path d="M93.1550625,108.885876 C90.4438125,108.885876 88.171875,110.835028 87.6706875,113.410734 C87.5975625,113.761017 87.5638125,114.122599 87.5638125,114.49548 C87.5638125,115.156497 87.6763125,115.789266 87.890625,116.376836 C88.6606875,118.551977 90.7306875,120.10565 93.1550625,120.10565 C93.5881875,120.10565 94.0156875,120.054802 94.4206875,119.958757 L92.8125,117.123164 C91.5181875,116.953107 90.5113125,115.840113 90.5113125,114.49548 C90.5113125,113.032203 91.6981875,111.846328 93.1550625,111.846328 C94.6063125,111.846328 95.7931875,113.032203 95.7931875,114.49548 C95.7931875,114.783616 95.7481875,115.054802 95.6638125,115.314689 L97.3175625,118.230508 C98.2063125,117.235593 98.7406875,115.930508 98.7406875,114.49548 C98.7406875,111.4 96.2319375,108.885876 93.1550625,108.885876" id="Fill-53" fill="#F9F9F9"></path>
                            <polyline id="Fill-54" fill="#F5BB26" points="59.063625 118.249153 56.1425625 119.919774 52.2118125 112.986441 55.1323125 111.315254 59.063625 118.249153"></polyline>
                            <path d="M72.732375,103.39548 C72.732375,103.39548 71.2906875,96.8214689 71.742375,96.7293785 C72.19575,96.6372881 83.9266875,94.6559322 84.1719375,96.1067797 C84.4171875,97.5576271 83.8035,103.846328 82.51425,104.053672 C81.225,104.261582 72.732375,103.39548 72.732375,103.39548" id="Fill-55" fill="#459BBF"></path>
                            <path d="M30.66075,95.8 C30.66075,95.8 44.0735625,101.437853 64.4945625,95.8 C64.4945625,95.8 64.6846875,102.988136 63.6395625,103.20452 C62.595,103.422034 49.92075,108.191525 30.66075,102.563277 C30.66075,102.563277 29.59425,94.7920904 30.66075,95.8" id="Fill-56" fill="#459BBF"></path>
                            <path d="M42.6931875,104.088701 C42.3275625,104.088701 42.0294375,103.840113 41.9563125,103.49548 C41.9394375,103.445198 41.9338125,103.382486 41.9338125,103.326554 L41.9338125,100.179096 C41.9338125,99.7553672 42.2713125,99.4163842 42.6931875,99.4163842 L48.7625625,99.4163842 C49.1844375,99.4163842 49.5219375,99.7553672 49.5219375,100.179096 L49.5219375,103.326554 C49.5219375,103.750282 49.1844375,104.088701 48.7625625,104.088701 L42.6931875,104.088701 Z M49.9325625,98.2186441 C49.5950625,98.0101695 49.1900625,97.8909605 48.7625625,97.8909605 L42.6931875,97.8909605 C42.3556875,97.8909605 42.0294375,97.9644068 41.7425625,98.1 C40.9606875,98.4615819 40.4150625,99.2525424 40.4150625,100.179096 L40.4150625,103.326554 C40.4150625,103.862712 40.6006875,104.360452 40.9100625,104.749718 C41.3263125,105.275141 41.9675625,105.614124 42.6931875,105.614124 L48.7625625,105.614124 C49.1900625,105.614124 49.5894375,105.496045 49.9269375,105.29209 C50.1688125,105.150847 50.3825625,104.964407 50.5513125,104.744068 C50.8606875,104.354237 51.0406875,103.862712 51.0406875,103.326554 L51.0406875,100.179096 C51.0406875,99.3429379 50.5963125,98.6141243 49.9325625,98.2186441 L49.9325625,98.2186441 Z" id="Fill-57" fill="#063A50"></path>
                            <path d="M50.4376875,101.864972 C50.4376875,102.171751 50.189625,102.419774 49.8841875,102.419774 L48.3159375,102.419774 C48.0099375,102.419774 47.761875,102.171751 47.761875,101.864972 C47.761875,101.555932 48.0099375,101.307345 48.3159375,101.307345 L49.8841875,101.307345 C50.189625,101.307345 50.4376875,101.555932 50.4376875,101.864972" id="Fill-58" fill="#063A50"></path>
                            <path d="M57.9920625,14.9559322 C53.265375,13.1502825 37.801125,7.93107345 36.259875,16.3672316 C36.259875,16.3672316 36.2300625,16.3548023 36.1704375,16.3310734 C36.1468125,16.319209 36.1108125,16.3073446 36.06975,16.2892655 C36.057375,16.2892655 36.0511875,16.2830508 36.0455625,16.2774011 C36.01575,16.2649718 35.9859375,16.2531073 35.9505,16.2412429 C35.9325,16.2355932 35.9145,16.2237288 35.890875,16.2175141 C35.8430625,16.1937853 35.7834375,16.1694915 35.724375,16.1457627 C35.706375,16.139548 35.68275,16.1338983 35.66475,16.1220339 C33.3489375,15.159322 25.0515,11.5423729 24.0991875,8.69039548 L24.0991875,8.68418079 C23.004,5.36666667 38.7,0.727118644 43.5155625,1.31920904 C48.259125,1.90508475 57.729375,14.6033898 57.9920625,14.9559322" id="Fill-59" fill="#4FA2C5"></path>
                        </g>
                    </g>
                </g>
            </g>
        </g>
        <circle id="Mask-Copy" stroke="#063A50" stroke-width="2" cx="100" cy="100" r="94"></circle>
    </g>
</svg>