<?xml version="1.0" encoding="UTF-8"?>
<svg width="200px" height="200px" viewBox="0 0 200 200" version="1.1" xmlns="http://www.w3.org/2000/svg" xmlns:xlink="http://www.w3.org/1999/xlink">
    <!-- Generator: Sketch 54.1 (76490) - https://sketchapp.com -->
    <title>2</title>
    <desc>Created with Sketch.</desc>
    <g id="web" stroke="none" stroke-width="1" fill="none" fill-rule="evenodd">
        <g id="signing-the-contract" transform="translate(19.000000, 13.000000)">
            <rect id="Rectangle" fill="#063A50" x="4.75675676" y="4.76470588" width="123.577598" height="152.470588" rx="28.2463082"></rect>
            <rect id="Rectangle-Copy-8" stroke="#063A50" stroke-width="3.80540541" x="0.902312622" y="0" width="131.286486" height="162" rx="28.2463082"></rect>
            <path d="M98.0192254,4.76470588 L100.088047,4.76470588 C115.688052,4.76470588 128.334355,17.4110088 128.334355,33.011014 L128.334355,128.988986 C128.334355,144.588991 115.688052,157.235294 100.088047,157.235294 L58.2572635,157.235294 C82.5215327,119.535253 95.77552,91.4764299 98.0192254,73.0588235 C100.262931,54.6412172 100.262931,31.8765113 98.0192254,4.76470588 Z" id="Rectangle-Copy-7" fill="#0E5776"></path>
            <g id="Group-24" transform="translate(20.929730, 49.552941)" fill="#F5BB26" fill-rule="nonzero">
                <path d="M33.1697715,0 L3.90350799,0 C1.74808477,0 0,2.38297545 0,5.31874145 C0,8.25450745 1.74808477,10.6374829 3.90350799,10.6374829 L33.1697715,10.6374829 C35.328848,10.6374829 37.0732795,8.25450745 37.0732795,5.31874145 C37.0714528,2.38297545 35.3270213,0 33.1697715,0 Z" id="Path-Copy-3"></path>
                <path d="M49.7546572,22.1614227 L5.85526199,22.1614227 C2.62212715,22.1614227 0,24.5443982 0,27.4801642 C0,30.4159302 2.62212715,32.7989056 5.85526199,32.7989056 L49.7546572,32.7989056 C52.9932719,32.7989056 55.6099192,30.4159302 55.6099192,27.4801642 C55.6071793,24.5443982 52.990532,22.1614227 49.7546572,22.1614227 Z" id="Path-Copy-4"></path>
            </g>
            <path d="M165.341851,66.4944321 C165.226023,65.9940173 164.03878,61.4954969 156.883732,57.4035634 C149.728684,53.3142363 145.200839,54.5444226 144.700671,54.6981959 C144.029391,54.9093084 143.463411,55.3575967 143.11066,55.9622645 L107.961949,116.236184 C107.743454,116.614101 107.614463,117.03372 107.588138,117.46637 L106.271904,139.216169 C106.208725,140.269126 106.751013,141.264743 107.669745,141.793827 C108.596373,142.320305 109.736232,142.283816 110.626006,141.707818 L128.992735,129.703076 C129.358648,129.468506 129.661381,129.147928 129.879876,128.775223 L165.03122,68.4908787 C165.383971,67.8862108 165.491902,67.1772898 165.341851,66.4944321 Z M116.580466,132.322025 C115.691023,131.546966 114.681318,130.815116 113.596448,130.137277 C112.506568,129.459438 111.414182,128.889621 110.346851,128.441329 L110.720166,121.684543 C112.115714,121.881683 114.185234,122.492008 116.813474,124.123143 C119.439209,125.756978 120.960031,127.388113 121.821913,128.58986 L116.580466,132.322025 Z" id="Shape" stroke="#F9F9F9" stroke-width="3.53078852" fill="#F5BB26" fill-rule="nonzero" transform="translate(135.837281, 98.285910) rotate(-345.000000) translate(-135.837281, -98.285910) "></path>
            <path d="M50.2592627,124.471859 C50.5130442,126.009115 52.3076423,126.4857 53.5076665,126.980202 C54.6678107,127.463954 56.0527329,126.546617 57.0171028,126.084365 C62.9265874,123.24277 70.9315826,126.582451 77.2616195,126.582451 C81.0067101,126.582451 81.0067101,120.841927 77.2616195,120.841927 C69.8802019,120.841927 63.7386884,118.996503 56.4225289,120.189758 C56.4225289,119.770506 56.2666345,119.204337 55.8098277,118.433917 C54.4430328,116.122658 52.7028165,115.466905 50.9589747,115.746406 C50.8429602,115.474072 50.7305713,115.201737 50.567426,114.92582 C50.1106192,114.18765 49.4725399,113.818565 48.7547006,113.664481 C50.7958294,110.138467 52.111868,106.408201 50.7740767,103.391022 C50.3644007,102.473685 49.2006311,102.004267 48.2652648,101.968433 C44.3860325,101.825099 41.0578688,105.849199 38.5635587,108.264376 C32.324158,114.309484 26.8279748,121.171595 21.5094386,128.001457 C19.2254047,130.936219 24.2756575,133.788564 26.5234369,130.903969 C31.2365228,124.855277 36.2287685,118.98217 41.6016864,113.488897 C40.3074005,115.588739 38.9333547,117.649164 37.4867999,119.634339 C35.4202929,122.791269 40.3545314,125.47878 42.5007982,122.533268 C43.0119867,121.762848 43.6609424,121.207429 44.3715307,120.730843 C44.2301382,121.085595 44.0851201,121.43318 43.9401021,121.791514 C43.947353,121.791514 43.9546039,121.795098 43.9618548,121.798681 C43.8494658,122.028015 43.7370769,122.25735 43.6464406,122.475934 C42.3485292,125.690197 47.1957568,127.162953 48.9577259,124.683276 C49.4036563,124.059774 49.8169577,123.393271 50.1903791,122.694518 C50.165001,123.174687 50.1541246,123.819689 50.2592627,124.471859 Z" id="Path" fill="#F9F9F9" fill-rule="nonzero"></path>
        </g>
    </g>
</svg>