<?xml version="1.0" encoding="UTF-8"?>
<svg width="24px" height="24px" viewBox="0 0 24 24" version="1.1" xmlns="http://www.w3.org/2000/svg" xmlns:xlink="http://www.w3.org/1999/xlink">
    <!-- Generator: Sketch 52.5 (67469) - http://www.bohemiancoding.com/sketch -->
    <title>ic_mail</title>
    <desc>Created with Sketch.</desc>
    <g id="assets" stroke="none" stroke-width="1" fill="none" fill-rule="evenodd">
        <g id="Artboard" transform="translate(-72.000000, -120.000000)" fill="#FFFFFF" fill-rule="nonzero">
            <g id="envelope-(2)" transform="translate(74.000000, 125.000000)">
                <path d="M17.5354336,0.030995935 C18.8827236,0.030995935 19.9779133,1.13031843 19.9737805,2.4776084 L19.9737805,12.7889228 C19.9737805,14.1362127 18.8785908,15.2314024 17.5313008,15.2314024 L2.44247967,15.2314024 C1.0951897,15.2314024 0,14.1362127 0,12.7889228 L0,2.47347561 C0,1.12618564 1.0951897,0.030995935 2.44247967,0.030995935 L17.5354336,0.030995935 Z M12.596748,7.50308266 L17.4817073,3.12232385 C17.7090108,2.91568428 17.7296748,2.56439702 17.5230352,2.3329607 C17.3163957,2.10565718 16.9651084,2.08499322 16.7336721,2.29163279 L9.99722222,8.3379065 L8.68299458,7.16419377 C8.67886179,7.16006098 8.674729,7.15592818 8.674729,7.15179539 C8.64579946,7.12286585 8.61686992,7.09806911 8.58380759,7.07327236 L3.23597561,2.2875 C3.0045393,2.08086043 2.65325203,2.10152439 2.44661247,2.3329607 C2.2399729,2.56439702 2.26063686,2.91568428 2.49207317,3.12232385 L7.4348916,7.54027778 L2.51273713,12.1483401 C2.2895664,12.3591125 2.27716802,12.7103997 2.48794038,12.9377033 C2.59952575,13.0534214 2.74830623,13.1154133 2.89708672,13.1154133 C3.03346883,13.1154133 3.16985095,13.0658198 3.27730352,12.9666328 L8.27384824,8.2924458 L9.62940379,9.50335366 C9.73685637,9.59840786 9.86910569,9.64386856 10.001355,9.64386856 C10.1336043,9.64386856 10.2699864,9.59427507 10.3733062,9.49922087 L11.7660569,8.25111789 L16.7336721,12.9707656 C16.8411247,13.0740854 16.9816396,13.1236789 17.1180217,13.1236789 C17.2668022,13.1236789 17.4114499,13.0658198 17.5230352,12.9501016 C17.7338076,12.7269309 17.725542,12.3715108 17.5023713,12.1607385 L12.596748,7.50308266 Z" id="Combined-Shape"></path>
            </g>
        </g>
    </g>
</svg>