<?xml version="1.0" encoding="UTF-8"?>
<svg width="23px" height="23px" viewBox="0 0 23 23" version="1.1" xmlns="http://www.w3.org/2000/svg" xmlns:xlink="http://www.w3.org/1999/xlink">
    <!-- Generator: Sketch 52.6 (67491) - http://www.bohemiancoding.com/sketch -->
    <title>close-(1)</title>
    <desc>Created with Sketch.</desc>
    <g id="Page-1" stroke="none" stroke-width="1" fill="none" fill-rule="evenodd">
        <g id="ic_cancel" transform="translate(-1.000000, -1.000000)" fill="#FFFFFF" stroke="#FFFFFF" stroke-width="1.5">
            <g id="close-(1)" transform="translate(2.000000, 2.000000)">
                <path d="M20.7515684,0.247988304 C20.4202852,-0.0826491228 19.8831855,-0.0826491228 19.5519023,0.247988304 L0.248472656,19.5137485 C-0.0828105469,19.844386 -0.0828105469,20.3804386 0.248472656,20.711076 C0.41409375,20.8764561 0.631230469,20.9590643 0.848326172,20.9590643 C1.06542188,20.9590643 1.28251758,20.8764152 1.44817969,20.7110351 L20.7515684,1.44527485 C21.0828105,1.11467836 21.0828105,0.578625731 20.7515684,0.247988304 Z" id="Path"></path>
                <path d="M20.7515273,19.5137895 L1.44809766,0.24802924 C1.11685547,-0.0826081871 0.579714844,-0.0826081871 0.248472656,0.24802924 C-0.0828105469,0.578625731 -0.0828105469,1.11467836 0.248472656,1.44531579 L19.5519023,20.711117 C19.7175234,20.8764561 19.9346602,20.9591053 20.1517559,20.9591053 C20.3688516,20.9591053 20.5859883,20.8764561 20.7515684,20.7111579 C21.0827695,20.3804795 21.0827695,19.8444269 20.7515273,19.5137895 Z" id="Path"></path>
            </g>
        </g>
    </g>
</svg>