<?xml version="1.0" encoding="UTF-8"?>
<svg width="23px" height="20px" viewBox="0 0 23 20" version="1.1" xmlns="http://www.w3.org/2000/svg" xmlns:xlink="http://www.w3.org/1999/xlink">
    <!-- Generator: Sketch 53.1 (72631) - https://sketchapp.com -->
    <title>wallet(3)</title>
    <desc>Created with Sketch.</desc>
    <g id="New-Designs" stroke="none" stroke-width="1" fill="none" fill-rule="evenodd">
        <g id="Seller_profile1" transform="translate(-811.000000, -706.000000)" fill="#909090" fill-rule="nonzero">
            <g id="Group-11" transform="translate(802.000000, 696.000000)">
                <g id="wallet(3)" transform="translate(9.000000, 10.000000)">
                    <path d="M21.6944672,8.69285714 L21.1477459,8.69285714 L21.1477459,5.37380952 C21.1477459,4.01666667 20.0543033,2.91666667 18.7157787,2.91666667 L18.2114754,2.91666667 L18.2161885,1.68333333 C18.2161885,0.769047619 17.4809426,0.0261904762 16.5760246,0.0261904762 L1.99364754,0.0261904762 C0.904918033,0.0261904762 0.0141393443,0.911904762 0,2.01190476 C0,2.02142857 0,2.03095238 0,2.04047619 L0,18.297619 C0,19.2119048 0.735245902,19.9547619 1.64016393,19.9547619 L18.7204918,19.9547619 C20.0637295,19.9547619 21.152459,18.85 21.152459,17.497619 L21.152459,14.1738095 L21.6991803,14.1738095 C22.4061475,14.1738095 22.9811475,13.5928571 22.9811475,12.8785714 L22.9811475,9.98809524 C22.9764344,9.27380952 22.4014344,8.69285714 21.6944672,8.69285714 Z M1.99364754,1.16904762 L16.5760246,1.16904762 C16.8540984,1.16904762 17.085041,1.39761905 17.085041,1.67857143 L17.0803279,2.91666667 L1.99364754,2.91666667 C1.51762295,2.91666667 1.13114754,2.52619048 1.13114754,2.0452381 C1.13114754,1.56428571 1.51762295,1.16904762 1.99364754,1.16904762 Z M20.0165984,17.4928571 C20.0165984,18.2166667 19.4321721,18.8071429 18.7157787,18.8071429 L1.63545082,18.8071429 C1.35737705,18.8071429 1.12643443,18.5785714 1.12643443,18.2928571 L1.12643443,3.85952381 C1.39036885,3.98809524 1.68258197,4.05952381 1.99364754,4.05952381 L18.7157787,4.05952381 C19.4321721,4.05952381 20.0165984,4.65 20.0165984,5.37380952 L20.0165984,8.69285714 L16.1565574,8.69285714 C15.4495902,8.69285714 14.8745902,9.27380952 14.8745902,9.98809524 L14.8745902,12.8785714 C14.8745902,13.5928571 15.4495902,14.1738095 16.1565574,14.1738095 L20.0165984,14.1738095 L20.0165984,17.4928571 Z M21.8452869,12.8785714 C21.8452869,12.9642857 21.7793033,13.0309524 21.6944672,13.0309524 L16.1612705,13.0309524 C16.0764344,13.0309524 16.0104508,12.9642857 16.0104508,12.8785714 L16.0104508,9.98809524 C16.0104508,9.90714286 16.0764344,9.83571429 16.1612705,9.83571429 L21.6944672,9.83571429 C21.7745902,9.83571429 21.8452869,9.90238095 21.8452869,9.98809524 L21.8452869,12.8785714 L21.8452869,12.8785714 Z" id="Shape"></path>
                </g>
            </g>
        </g>
    </g>
</svg>