<?xml version="1.0" encoding="UTF-8"?>
<svg width="80px" height="80px" viewBox="0 0 80 80" version="1.1" xmlns="http://www.w3.org/2000/svg" xmlns:xlink="http://www.w3.org/1999/xlink">
    <!-- Generator: Sketch 54.1 (76490) - https://sketchapp.com -->
    <title>cleaning services</title>
    <desc>Created with Sketch.</desc>
    <g id="web" stroke="none" stroke-width="1" fill="none" fill-rule="evenodd">
        <g id="cleaning-services" transform="translate(-7.000000, 2.000000)">
            <path d="M22.6386609,11.8099157 L44.937579,16.9159155 C45.9658862,17.151377 47.0341138,17.151377 48.062421,16.9159155 L71.5255387,11.5433376 C75.2940006,10.6804363 79.0484623,13.0358586 79.9113637,16.8043205 C80.3013252,18.5073604 80.0403343,20.2946688 79.1796687,21.8150864 L72.1972383,34.1499704 C71.0205416,36.228676 70.9850426,38.763909 72.1030762,40.8747461 L78.6542415,53.2432853 C80.4004889,56.5401842 79.1434375,60.6284621 75.8465385,62.3747096 C74.1365261,63.2804409 72.120198,63.4093523 70.308766,62.7287601 L48.9620032,54.7083422 C47.3748328,54.1120097 45.6251672,54.1120097 44.0379968,54.7083422 L23.5770203,62.3959519 C20.1050048,63.7004596 16.2328677,61.9433473 14.92836,58.4713317 C14.2209375,56.5884895 14.3946708,54.4876976 15.4017857,52.7466459 L22.6359052,40.2406487 C23.9642611,37.944251 23.8803053,35.0942548 22.4190746,32.8800333 L15.4017857,22.2466459 C13.3207026,19.0931541 14.1900616,14.8496927 17.3435534,12.7686095 C18.9035239,11.7391386 20.816771,11.3927399 22.6386609,11.8099157 Z" id="Rectangle-Copy-4" fill="#484848" opacity="0.06" transform="translate(46.500000, 38.500000) rotate(-12.000000) translate(-46.500000, -38.500000) "></path>
            <g id="Group-12" transform="translate(15.543716, 5.000000)" fill-rule="nonzero">
                <path d="M53.5714286,44.8 L51.8935714,44.8 C50.716875,44.8010667 49.5565179,45.0737333 48.5035714,45.5968 C46.9715625,46.3549333 45.1712946,46.3549333 43.6392857,45.5968 C43.0281696,45.2982667 42.3795536,45.0829333 41.7107143,44.9568 L43.7989286,28.8 L46.0714286,28.8 C46.663125,28.8 47.1428571,28.3224 47.1428571,27.7333333 L47.1428571,23.4666667 C47.1428571,22.8776 46.663125,22.4 46.0714286,22.4 L41.7857143,22.4 L41.7857143,19.2 C41.7857143,18.9170667 41.6726786,18.6458667 41.4717857,18.4458667 L36.4285714,13.4250667 L36.4285714,10.112 L38.0528571,8.8192 L40.8267857,14.3434667 L42.7446429,13.3898667 L39.7639286,7.456 L41.0892857,6.4 L45,6.4 C45.5916964,6.4 46.0714286,5.9224 46.0714286,5.33333333 L46.0714286,1.06666667 C46.0714286,0.4776 45.5916964,0 45,0 L34.2857143,0 C28.9628571,0.0064 24.6492857,4.3008 24.6428571,9.6 C24.6428571,10.1890667 25.1225893,10.6666667 25.7142857,10.6666667 L27.8571429,10.6666667 L27.8571429,13.4250667 L24.9567857,16.3125333 C24.7558929,16.5125333 24.6428571,16.7837333 24.6428571,17.0666667 L24.6428571,22.4 L22.5,22.4 L22.5,13.8666667 C22.4983929,13.7345333 22.471875,13.604 22.4217857,13.4816 C22.4022321,13.4401333 22.38,13.3998667 22.3553571,13.3610667 C22.3296429,13.3052 22.2995089,13.2513333 22.2653571,13.2 L18.2142857,8.16 L18.2142857,1.06666667 C18.2142857,0.4776 17.7345536,0 17.1428571,0 L10.7142857,0 C10.1225893,0 9.64285714,0.4776 9.64285714,1.06666667 L9.64285714,8.16 L5.59178571,13.2 C5.55763393,13.2513333 5.5275,13.3052 5.50178571,13.3610667 C5.47714286,13.3998667 5.45491071,13.4401333 5.43535714,13.4816 C5.38526786,13.604 5.35875,13.7345333 5.35714286,13.8666667 L5.35714286,22.4 L1.07142857,22.4 C0.479732143,22.4 0,22.8776 0,23.4666667 L0,27.7333333 C0,28.3224 0.479732143,28.8 1.07142857,28.8 L3.34392857,28.8 L7.50857143,60.9365333 C7.57754464,61.4685333 8.03263393,61.8668 8.57142857,61.8666667 L33.7928571,61.8666667 C35.0079911,63.2226667 36.7461161,63.9986667 38.5714286,64 L40.2492857,64 C41.4259821,63.9989333 42.5863393,63.7262667 43.6392857,63.2032 C45.1712946,62.4450667 46.9715625,62.4450667 48.5035714,63.2032 C49.5565179,63.7262667 50.716875,63.9989333 51.8935714,64 L53.5714286,64 C57.1204018,63.9965333 59.9965179,61.1332 60,57.6 L60,51.2 C59.9965179,47.6668 57.1204018,44.8034667 53.5714286,44.8 Z M41.7857143,2.13333333 L43.9285714,2.13333333 L43.9285714,4.26666667 L41.7857143,4.26666667 L41.7857143,2.13333333 Z M45,24.5333333 L45,26.6666667 L30,26.6666667 L30,24.5333333 L45,24.5333333 Z" id="Shape" fill="#063A50"></path>
                <path d="M26.8617857,8.53333333 C27.3992411,4.862 30.5590179,2.138 34.2857143,2.13333333 L39.6428571,2.13333333 L39.6428571,4.82133333 L34.9810714,8.53333333 L26.8617857,8.53333333 Z" id="Path" fill="#FFFCFC"></path>
                <polygon id="Path" fill="#FFFCFC" points="34.2857143 10.6666667 34.2857143 12.8 30 12.8 30 10.6666667"></polygon>
                <polygon id="Path" fill="#FFFCFC" points="26.7857143 17.5082667 29.3721429 14.9333333 34.9135714 14.9333333 39.6428571 19.6416 39.6428571 22.4 26.7857143 22.4"></polygon>
                <path d="M25.7142857,24.5333333 L27.8571429,24.5333333 L27.8571429,32 C27.8548661,32.4062667 28.0846875,32.7784 28.4496429,32.96 L34.8782143,36.16 C35.1917411,36.3138667 35.4293304,36.5873333 35.5371429,36.9184 C35.6481696,37.2737333 35.6095982,37.6586667 35.43,37.9850667 C35.1216964,38.6009333 34.3703571,38.8513333 33.7517411,38.5442667 C33.7508036,38.5438667 33.7498661,38.5433333 33.7489286,38.5429333 L29.3989286,36.3776 C28.8672321,36.1189333 28.2257143,36.3384 27.9658929,36.8677333 C27.8947768,37.0128 27.8575446,37.172 27.8571429,37.3333333 L27.8571429,48 C27.8571429,49.1782667 26.8978125,50.1333333 25.7142857,50.1333333 L25.7142857,40.5333333 L23.5714286,40.5333333 L23.5714286,50.1333333 L21.4285714,50.1333333 L21.4285714,40.5333333 L19.2857143,40.5333333 L19.2857143,50.1333333 L17.1428571,50.1333333 L17.1428571,40.5333333 L15,40.5333333 L15,50.1333333 C13.8164732,50.1333333 12.8571429,49.1782667 12.8571429,48 L12.8571429,24.5333333 L25.7142857,24.5333333 Z" id="Path" fill="#FFFCFC"></path>
                <polygon id="Path" fill="#FFFCFC" points="11.7857143 2.13333333 16.0714286 2.13333333 16.0714286 7.46666667 11.7857143 7.46666667"></polygon>
                <polygon id="Path" fill="#FFFCFC" points="11.2285714 9.6 16.6285714 9.6 19.2 12.8 8.65714286 12.8"></polygon>
                <polygon id="Path" fill="#FFFCFC" points="7.5 14.9333333 20.3571429 14.9333333 20.3571429 22.4 7.5 22.4"></polygon>
                <polygon id="Path" fill="#FFFCFC" points="2.14285714 26.6666667 2.14285714 24.5333333 10.7142857 24.5333333 10.7142857 26.6666667"></polygon>
                <path d="M32.1428571,51.2 L32.1428571,57.6 C32.1447321,58.3272 32.2715625,59.0486667 32.5178571,59.7333333 L9.51321429,59.7333333 L5.50392857,28.8 L10.7142857,28.8 L10.7142857,48 C10.7142857,50.3564 12.6330804,52.2666667 15,52.2666667 L25.7142857,52.2666667 C28.0812054,52.2666667 30,50.3564 30,48 L30,39.0592 L32.7985714,40.4522667 C34.4896875,41.2832 36.5371875,40.592 37.3718304,38.9084 C37.3753125,38.9014667 37.3786607,38.8944 37.3821429,38.8874667 C37.7971875,38.0684 37.8677679,37.1184 37.5782143,36.2474667 C37.2926786,35.3761333 36.6672321,34.6558667 35.8425,34.2485333 L30,31.3408 L30,28.8 L41.6389286,28.8 L39.5646429,44.8 L38.5714286,44.8 C35.0224554,44.8034667 32.1463393,47.6668 32.1428571,51.2 Z" id="Path" fill="#FFFCFC"></path>
                <path d="M57.8571429,57.6 C57.8571429,59.9564 55.9383482,61.8666667 53.5714286,61.8666667 L51.8935714,61.8666667 C51.0496875,61.8654667 50.2175893,61.6698667 49.4625,61.2949333 C47.3263393,60.2382667 44.8165179,60.2382667 42.6803571,61.2949333 C41.9252679,61.6698667 41.0931696,61.8654667 40.2492857,61.8666667 L38.5714286,61.8666667 C36.2045089,61.8666667 34.2857143,59.9564 34.2857143,57.6 L34.2857143,55.9573333 C35.4606696,57.0142667 36.9878571,57.5996 38.5714286,57.6 L40.2492857,57.6 C41.4259821,57.5989333 42.5863393,57.3262667 43.6392857,56.8032 C45.1712946,56.0450667 46.9715625,56.0450667 48.5035714,56.8032 C49.5565179,57.3262667 50.716875,57.5989333 51.8935714,57.6 L53.5714286,57.6 C55.155,57.5996 56.6821875,57.0142667 57.8571429,55.9573333 L57.8571429,57.6 Z" id="Path" fill="#FFFCFC"></path>
                <path d="M53.5714286,55.4666667 L51.8935714,55.4666667 C51.0496875,55.4654667 50.2175893,55.2698667 49.4625,54.8949333 C47.3263393,53.8382667 44.8165179,53.8382667 42.6803571,54.8949333 C41.9252679,55.2698667 41.0931696,55.4654667 40.2492857,55.4666667 L38.5714286,55.4666667 C36.2045089,55.4666667 34.2857143,53.5564 34.2857143,51.2 C34.2857143,48.8436 36.2045089,46.9333333 38.5714286,46.9333333 L40.2492857,46.9333333 C41.0931696,46.9345333 41.9252679,47.1301333 42.6803571,47.5050667 C44.8166518,48.5610667 47.3262054,48.5610667 49.4625,47.5050667 C50.2175893,47.1301333 51.0496875,46.9345333 51.8935714,46.9333333 L53.5714286,46.9333333 C55.9383482,46.9333333 57.8571429,48.8436 57.8571429,51.2 C57.8571429,53.5564 55.9383482,55.4666667 53.5714286,55.4666667 Z" id="Path" fill="#FFFCFC"></path>
                <rect id="Rectangle" fill="#545454" x="52.5" y="49.0666667" width="2.14285714" height="2.13333333"></rect>
                <rect id="Rectangle" fill="#545454" x="41.7857143" y="49.0666667" width="2.14285714" height="2.13333333"></rect>
                <rect id="Rectangle" fill="#545454" x="37.5" y="50.1333333" width="2.14285714" height="2.13333333"></rect>
                <rect id="Rectangle" fill="#545454" x="48.2142857" y="50.1333333" width="2.14285714" height="2.13333333"></rect>
            </g>
        </g>
    </g>
</svg>