<?xml version="1.0" encoding="UTF-8"?>
<svg width="32px" height="32px" viewBox="0 0 32 32" version="1.1" xmlns="http://www.w3.org/2000/svg" xmlns:xlink="http://www.w3.org/1999/xlink">
    <!-- Generator: Sketch 54.1 (76490) - https://sketchapp.com -->
    <title>ic_password</title>
    <desc>Created with Sketch.</desc>
    <g id="Page-1" stroke="none" stroke-width="1" fill="none" fill-rule="evenodd">
        <g id="Group-11" transform="translate(4.000000, 3.000000)">
            <g id="Group-9">
                <path d="M11,18.7324356 L11,23 L13,23 L13,18.7324356 C13.5978014,18.3866262 14,17.7402824 14,17 C14,15.8954305 13.1045695,15 12,15 C10.8954305,15 10,15.8954305 10,17 C10,17.7402824 10.4021986,18.3866262 11,18.7324356 Z M4,9 L20,9 C22.209139,9 24,10.790861 24,13 L24,23 C24,25.209139 22.209139,27 20,27 L4,27 C1.790861,27 2.705415e-16,25.209139 0,23 L0,13 C-2.705415e-16,10.790861 1.790861,9 4,9 Z" id="Combined-Shape" fill="#37D5FF"></path>
                <path d="M12,0 L12,0 C15.8659932,-7.10171439e-16 19,3.13400675 19,7 L19,14 L5,14 L5,7 C5,3.13400675 8.13400675,7.10171439e-16 12,0 Z" id="Rectangle" stroke="#37D5FF" stroke-width="2"></path>
            </g>
        </g>
        <circle id="Oval" fill="#37D5FF" opacity="0.200000003" cx="20.5" cy="11.5" r="11.5"></circle>
    </g>
</svg>