<?xml version="1.0" encoding="UTF-8"?>
<svg width="23px" height="25px" viewBox="0 0 23 25" version="1.1" xmlns="http://www.w3.org/2000/svg" xmlns:xlink="http://www.w3.org/1999/xlink">
    <!-- Generator: Sketch 53.1 (72631) - https://sketchapp.com -->
    <title>orders_done</title>
    <desc>Created with Sketch.</desc>
    <g id="New-Designs" stroke="none" stroke-width="1" fill="none" fill-rule="evenodd">
        <g id="Seller_profile1" transform="translate(-1011.000000, -704.000000)" fill="#909090" fill-rule="nonzero">
            <g id="Group-12" transform="translate(1002.000000, 696.000000)">
                <g id="orders_done" transform="translate(9.000000, 8.000000)">
                    <path d="M22.9894737,5.89135021 C22.9894737,5.7964135 22.9684211,5.70147679 22.9263158,5.61181435 C22.8421053,5.43248945 22.6789474,5.31118143 22.5,5.2742616 L11.7789474,0.0632911392 C11.6052632,-0.0210970464 11.4,-0.0210970464 11.2263158,0.0632911392 L0.4,5.32172996 C0.189473684,5.42194093 0.0526315789,5.63291139 0.0421052632,5.87025316 L0.0421052632,5.87552743 C0.0421052632,5.88080169 0.0421052632,5.88607595 0.0421052632,5.89662447 L0.0421052632,19.092827 C0.0421052632,19.335443 0.178947368,19.556962 0.4,19.6624473 L11.2263158,24.9208861 C11.2315789,24.9208861 11.2315789,24.9208861 11.2368421,24.9261603 C11.2526316,24.9314346 11.2684211,24.9367089 11.2842105,24.9472574 C11.2894737,24.9472574 11.2947368,24.9525316 11.3052632,24.9525316 C11.3210526,24.9578059 11.3368421,24.9630802 11.3526316,24.9683544 C11.3578947,24.9683544 11.3631579,24.9736287 11.3684211,24.9736287 C11.3842105,24.978903 11.4052632,24.978903 11.4210526,24.9841772 C11.4263158,24.9841772 11.4315789,24.9841772 11.4368421,24.9841772 C11.4578947,24.9841772 11.4842105,24.9894515 11.5052632,24.9894515 C11.5263158,24.9894515 11.5526316,24.9894515 11.5736842,24.9841772 C11.5789474,24.9841772 11.5842105,24.9841772 11.5894737,24.9841772 C11.6052632,24.9841772 11.6263158,24.978903 11.6421053,24.9736287 C11.6473684,24.9736287 11.6526316,24.9683544 11.6578947,24.9683544 C11.6736842,24.9630802 11.6894737,24.9578059 11.7052632,24.9525316 C11.7105263,24.9525316 11.7157895,24.9472574 11.7263158,24.9472574 C11.7421053,24.9419831 11.7578947,24.9367089 11.7736842,24.9261603 C11.7789474,24.9261603 11.7789474,24.9261603 11.7842105,24.9208861 L22.6421053,19.6466245 C22.8578947,19.5411392 23,19.3196203 23,19.0770042 L23,5.907173 C22.9894737,5.90189873 22.9894737,5.89662447 22.9894737,5.89135021 Z M11.5,1.33438819 L20.8894737,5.89662447 L17.4315789,7.57911392 L8.04210526,3.01687764 L11.5,1.33438819 Z M11.5,10.4588608 L2.11052632,5.89662447 L6.59473684,3.71835443 L15.9842105,8.28059072 L11.5,10.4588608 Z M1.30526316,6.91455696 L10.8684211,11.5611814 L10.8684211,23.3386076 L1.30526316,18.6919831 L1.30526316,6.91455696 Z M12.1315789,23.3386076 L12.1315789,11.5611814 L16.6210526,9.37763713 L16.6210526,12.4578059 C16.6210526,12.8059072 16.9052632,13.0907173 17.2526316,13.0907173 C17.6,13.0907173 17.8842105,12.8059072 17.8842105,12.4578059 L17.8842105,8.76054852 L21.7263158,6.89345992 L21.7263158,18.6708861 L12.1315789,23.3386076 Z" id="Shape"></path>
                </g>
            </g>
        </g>
    </g>
</svg>