<?xml version="1.0" encoding="UTF-8"?>
<svg width="80px" height="80px" viewBox="0 0 80 80" version="1.1" xmlns="http://www.w3.org/2000/svg" xmlns:xlink="http://www.w3.org/1999/xlink">
    <!-- Generator: Sketch 54.1 (76490) - https://sketchapp.com -->
    <title>pest control</title>
    <desc>Created with Sketch.</desc>
    <g id="web" stroke="none" stroke-width="1" fill="none" fill-rule="evenodd">
        <g id="pest-control" transform="translate(-7.000000, 2.000000)">
            <path d="M22.6386609,11.8099157 L44.937579,16.9159155 C45.9658862,17.151377 47.0341138,17.151377 48.062421,16.9159155 L71.5255387,11.5433376 C75.2940006,10.6804363 79.0484623,13.0358586 79.9113637,16.8043205 C80.3013252,18.5073604 80.0403343,20.2946688 79.1796687,21.8150864 L72.1972383,34.1499704 C71.0205416,36.228676 70.9850426,38.763909 72.1030762,40.8747461 L78.6542415,53.2432853 C80.4004889,56.5401842 79.1434375,60.6284621 75.8465385,62.3747096 C74.1365261,63.2804409 72.120198,63.4093523 70.308766,62.7287601 L48.9620032,54.7083422 C47.3748328,54.1120097 45.6251672,54.1120097 44.0379968,54.7083422 L23.5770203,62.3959519 C20.1050048,63.7004596 16.2328677,61.9433473 14.92836,58.4713317 C14.2209375,56.5884895 14.3946708,54.4876976 15.4017857,52.7466459 L22.6359052,40.2406487 C23.9642611,37.944251 23.8803053,35.0942548 22.4190746,32.8800333 L15.4017857,22.2466459 C13.3207026,19.0931541 14.1900616,14.8496927 17.3435534,12.7686095 C18.9035239,11.7391386 20.816771,11.3927399 22.6386609,11.8099157 Z" id="Rectangle-Copy-5" fill="#484848" opacity="0.06" transform="translate(46.500000, 38.500000) rotate(-12.000000) translate(-46.500000, -38.500000) "></path>
            <g id="sprays" transform="translate(19.543716, 5.000000)" fill-rule="nonzero">
                <g>
                    <path d="M62.75,1.25 C62.0600586,1.25 61.5,1.81005862 61.5,2.5 C61.5,3.18994138 62.0600586,3.75 62.75,3.75 C63.4399414,3.75 64,3.18994138 64,2.5 C64,1.81005862 63.4399414,1.25 62.75,1.25 Z" id="Path" fill="#545454"></path>
                    <path d="M62.75,6.25 C62.0600586,6.25 61.5,6.81005862 61.5,7.5 C61.5,8.18994138 62.0600586,8.75 62.75,8.75 C63.4399414,8.75 64,8.18994138 64,7.5 C64,6.81005862 63.4399414,6.25 62.75,6.25 Z" id="Path" fill="#545454"></path>
                    <path d="M57.75,3.75 C58.4399414,3.75 59,3.18994138 59,2.5 C59,1.81005862 58.4399414,1.25 57.75,1.25 C57.0600586,1.25 56.5,1.81005862 56.5,2.5 C56.5,3.18994138 57.0600586,3.75 57.75,3.75 Z" id="Path" fill="#545454"></path>
                    <path d="M57.75,8.75 C58.4399414,8.75 59,8.18994138 59,7.5 C59,6.81005862 58.4399414,6.25 57.75,6.25 C57.0600586,6.25 56.5,6.81005862 56.5,7.5 C56.5,8.18994138 57.0600586,8.75 57.75,8.75 Z" id="Path" fill="#545454"></path>
                    <path d="M52.75,1.25 C52.0600586,1.25 51.5,1.81005862 51.5,2.5 C51.5,3.18994138 52.0600586,3.75 52.75,3.75 C53.4399414,3.75 54,3.18994138 54,2.5 C54,1.81005862 53.4399414,1.25 52.75,1.25 Z" id="Path" fill="#545454"></path>
                    <path d="M54,7.5 C54,6.81005862 53.4399414,6.25 52.75,6.25 C52.0600586,6.25 51.5,6.81005862 51.5,7.5 C51.5,8.18994138 52.0600586,8.75 52.75,8.75 C53.4399414,8.75 54,8.18994138 54,7.5 Z" id="Path" fill="#545454"></path>
                    <path d="M22.5,35.75 L6.25,35.75 C5.55957025,35.75 5,36.3095703 5,37 L5,50.25 C5,50.9404297 5.55957025,51.5 6.25,51.5 L22.5,51.5 C23.1904297,51.5 23.75,50.9404297 23.75,50.25 L23.75,37 C23.75,36.3095703 23.1904297,35.75 22.5,35.75 Z" id="Shape" fill="#545454"></path>
                    <path d="M16.25,62.75 C16.25,63.4404297 15.6904297,64 15,64 C14.3095703,64 13.75,63.4404297 13.75,62.75 C13.75,62.0595703 14.3095703,61.5 15,61.5 C15.6904297,61.5 16.25,62.0595703 16.25,62.75 Z" id="Path" fill="#545454"></path>
                    <path d="M3.75,64 L9.375,64 C10.0654297,64 10.625,63.4404297 10.625,62.75 C10.625,62.0595703 10.0654297,61.5 9.375,61.5 L3.75,61.5 C3.06054688,61.5 2.5,60.9394531 2.5,60.25 L2.5,56.5 L26.25,56.5 L26.25,60.25 C26.25,60.9394531 25.6894531,61.5 25,61.5 L20.625,61.5 C19.9345703,61.5 19.375,62.0595703 19.375,62.75 C19.375,63.4404297 19.9345703,64 20.625,64 L25,64 C27.0678711,64 28.75,62.3178711 28.75,60.25 L28.75,27 C28.75,24.9321289 27.0678711,23.25 25,23.25 L25,19.5 C25,17.4321289 23.3178711,15.75 21.25,15.75 L21.25,6.25 L35.9082031,6.25 C36.4648438,8.40429688 38.4243164,10 40.75,10 L47.75,10 C48.4404297,10 49,9.44042975 49,8.75 L49,1.25 C49,0.55957025 48.4404297,0 47.75,0 L40.75,0 C38.4243164,0 36.4648438,1.59570312 35.9082031,3.75 L21.25,3.75 L21.25,1.25 C21.25,0.55957025 20.6904297,0 20,0 L16.25,0 C11.425293,0 7.5,3.925293 7.5,8.75 L7.5,15.75 C5.43212888,15.75 3.75,17.4321289 3.75,19.5 L3.75,23.25 C1.68212888,23.25 0,24.9321289 0,27 L0,60.25 C0,62.3178711 1.68212888,64 3.75,64 Z" id="Shape" fill="#063A50"></path>
                    <path d="M40.75,2.5 L46.5,2.5 L46.5,7.5 L40.75,7.5 C39.371582,7.5 38.25,6.378418 38.25,5 C38.25,3.621582 39.371582,2.5 40.75,2.5 Z" id="Path" fill="#FFFCFC"></path>
                    <polygon id="Path" fill="#FFFCFC" points="2.5 54 2.5 33.25 26.25 33.25 26.25 54"></polygon>
                    <path d="M10,8.75 C10,5.303711 12.803711,2.5 16.25,2.5 L18.75,2.5 L18.75,15.75 L10,15.75 L10,8.75 Z" id="Path" fill="#FFFCFC"></path>
                    <path d="M6.25,19.5 C6.25,18.8105469 6.81054688,18.25 7.5,18.25 L21.25,18.25 C21.9394531,18.25 22.5,18.8105469 22.5,19.5 L22.5,23.25 L6.25,23.25 L6.25,19.5 Z" id="Path" fill="#FFFCFC"></path>
                    <path d="M3.75,25.75 L25,25.75 C25.6894531,25.75 26.25,26.3105469 26.25,27 L26.25,30.75 L2.5,30.75 L2.5,27 C2.5,26.3105469 3.06054688,25.75 3.75,25.75 Z" id="Path" fill="#FFFCFC"></path>
                    <polygon id="Path" stroke="#063A50" stroke-width="2" points="21.25 49 7.5 49 7.5 38.25 21.25 38.25"></polygon>
                </g>
            </g>
        </g>
    </g>
</svg>