<?xml version="1.0" encoding="UTF-8"?>
<svg width="270px" height="176px" viewBox="0 0 270 176" version="1.1" xmlns="http://www.w3.org/2000/svg" xmlns:xlink="http://www.w3.org/1999/xlink">
    <!-- Generator: Sketch 54.1 (76490) - https://sketchapp.com -->
    <title>image</title>
    <desc>Created with Sketch.</desc>
    <g id="web" stroke="none" stroke-width="1" fill="none" fill-rule="evenodd">
        <rect id="Rectangle-Copy-6" fill="#E5E5E5" x="0" y="0" width="270" height="176"></rect>
        <g id="Group-10" transform="translate(96.000000, 56.000000)">
            <path d="M8,6 L64,6 C66.209139,6 68,7.790861 68,10 L68,50 C68,52.209139 66.209139,54 64,54 L8,54 C5.790861,54 4,52.209139 4,50 L4,10 C4,7.790861 5.790861,6 8,6 Z" id="Rectangle-Copy-17" stroke="#BBBBBB" stroke-width="2" fill="#E5E5E5" transform="translate(36.000000, 30.000000) rotate(-8.000000) translate(-36.000000, -30.000000) "></path>
            <rect id="Rectangle" stroke="#BBBBBB" stroke-width="2" fill="#E5E5E5" x="6.97126738" y="15.7800271" width="64" height="48" rx="4"></rect>
            <g id="Group-4" transform="translate(20.971267, 19.780027)">
                <g id="Group-3" transform="translate(5.806452, 0.000000)">
                    <ellipse id="Combined-Shape" fill="#BBBBBB" cx="15.0967742" cy="15.2941176" rx="15.0967742" ry="15.2941176"></ellipse>
                    <ellipse id="Oval" stroke="#E5E5E5" stroke-width="1.69934641" cx="15.0967742" cy="15.2941176" rx="6.72064094" ry="16.1437908"></ellipse>
                    <ellipse id="Oval-Copy" stroke="#E5E5E5" stroke-width="1.69934641" transform="translate(15.096774, 15.294118) rotate(-270.000000) translate(-15.096774, -15.294118) " cx="15.0967742" cy="15.2941176" rx="6.79738562" ry="15.9464474"></ellipse>
                </g>
                <path d="M5.80645161,21.0569853 L21.5709295,21.0569853 C22.2206763,21.0569853 22.7474001,21.5837091 22.7474001,22.2334559 C22.7474001,22.3469939 22.7309647,22.459934 22.6986051,22.568763 L19.2646185,34.1176471 L7.16762223,26.9485294 L5.80645161,21.0569853 Z" id="Path-7" fill="#E5E5E5"></path>
                <g id="ic_cart" transform="translate(0.000000, 16.470588)">
                    <g id="Group" transform="translate(0.367742, 0.735294)">
                        <g id="Group-2" transform="translate(0.000000, 0.787815)">
                            <ellipse id="Oval-Copy" fill="#BBBBBB" cx="16.3830005" cy="17.6470588" rx="2.51387609" ry="2.5210084"></ellipse>
                            <ellipse id="Oval-Copy-2" fill="#BBBBBB" cx="7.55719406" cy="17.6470588" rx="2.51387609" ry="2.5210084"></ellipse>
                            <polyline id="Rectangle-2" stroke="#BBBBBB" stroke-width="1.17647059" stroke-linecap="round" stroke-linejoin="round" points="7.55719406 4.54306723 20.5935484 4.54306723 18.1978722 12.605042 5.44950118 12.605042 3.17012033 1.26305285 0 0"></polyline>
                        </g>
                    </g>
                    <path d="M7.7241967,11.5682445 L13.3439233,11.5682445" id="Line" stroke="#BBBBBB" stroke-width="1.17647059" stroke-linecap="round" stroke-linejoin="round" fill-rule="nonzero"></path>
                    <path d="M7.7241967,9.21530331 L10.3896075,9.21530331" id="Line-Copy" stroke="#BBBBBB" stroke-width="1.17647059" stroke-linecap="round" stroke-linejoin="round" fill-rule="nonzero"></path>
                </g>
            </g>
        </g>
    </g>
</svg>