<?xml version="1.0" encoding="UTF-8"?>
<svg width="80px" height="80px" viewBox="0 0 80 80" version="1.1" xmlns="http://www.w3.org/2000/svg" xmlns:xlink="http://www.w3.org/1999/xlink">
    <!-- Generator: Sketch 54.1 (76490) - https://sketchapp.com -->
    <title>salon_at_home</title>
    <desc>Created with Sketch.</desc>
    <g id="web" stroke="none" stroke-width="1" fill="none" fill-rule="evenodd">
        <g id="salon_at_home" transform="translate(-7.000000, 2.000000)">
            <path d="M22.6386609,11.8099157 L44.937579,16.9159155 C45.9658862,17.151377 47.0341138,17.151377 48.062421,16.9159155 L71.5255387,11.5433376 C75.2940006,10.6804363 79.0484623,13.0358586 79.9113637,16.8043205 C80.3013252,18.5073604 80.0403343,20.2946688 79.1796687,21.8150864 L72.1972383,34.1499704 C71.0205416,36.228676 70.9850426,38.763909 72.1030762,40.8747461 L78.6542415,53.2432853 C80.4004889,56.5401842 79.1434375,60.6284621 75.8465385,62.3747096 C74.1365261,63.2804409 72.120198,63.4093523 70.308766,62.7287601 L48.9620032,54.7083422 C47.3748328,54.1120097 45.6251672,54.1120097 44.0379968,54.7083422 L23.5770203,62.3959519 C20.1050048,63.7004596 16.2328677,61.9433473 14.92836,58.4713317 C14.2209375,56.5884895 14.3946708,54.4876976 15.4017857,52.7466459 L22.6359052,40.2406487 C23.9642611,37.944251 23.8803053,35.0942548 22.4190746,32.8800333 L15.4017857,22.2466459 C13.3207026,19.0931541 14.1900616,14.8496927 17.3435534,12.7686095 C18.9035239,11.7391386 20.816771,11.3927399 22.6386609,11.8099157 Z" id="Rectangle" fill="#484848" opacity="0.06" transform="translate(46.500000, 38.500000) rotate(-12.000000) translate(-46.500000, -38.500000) "></path>
            <g id="Group-14" transform="translate(14.543716, 3.000000)" fill-rule="nonzero">
                <path d="M61.9354839,27.3718603 L61.9354839,23.206781 L59.8709677,23.206781 L59.8709677,27.3718603 L53.6774194,27.3718603 L53.6774194,23.206781 L51.6129032,23.206781 L51.6129032,27.3718603 C50.4743226,27.3718603 49.5483871,28.3058794 49.5483871,29.4544 L49.5483871,31.5369397 C49.5483871,32.6854603 50.4743226,33.6194794 51.6129032,33.6194794 L51.6129032,38.8258286 C51.6129032,41.339454 53.3894194,43.442819 55.7419355,43.9270095 L55.7419355,59.3992381 C55.7419355,61.2610286 54.2410323,62.7750349 52.3953548,62.7750349 C51.5014194,62.7750349 50.660129,62.424127 50.0283871,61.7868698 L44.4129032,56.1223619 C45.6856774,54.5188063 46.4516129,52.4893714 46.4516129,50.2797968 L46.4516129,49.8487111 L38.1935484,41.5185524 L38.1935484,39.5099429 C38.1935484,38.1188063 37.6557419,36.8109714 36.6812903,35.8280127 L34.1532903,33.2779429 L47.780129,12.6618413 L35.227871,-4.97379915e-14 L7.04722581,18.9521524 C2.63535484,21.9187302 0,26.8835048 0,32.2345905 C0,41.0364444 7.09883871,48.1972571 15.8245161,48.1972571 C18.5310968,48.1972571 21.1365161,47.5016889 23.4312258,46.232381 L36.7339355,59.6512254 L37.1612903,59.6512254 C39.3517419,59.6512254 41.3636129,58.8786032 42.9532903,57.5947175 L48.5687742,63.2592254 C49.5907097,64.2900825 50.9501935,64.8575746 52.3953548,64.8575746 C55.3785806,64.8575746 57.8064516,62.4085079 57.8064516,59.3992381 L57.8064516,43.9270095 C60.1589677,43.442819 61.9354839,41.3404952 61.9354839,38.8258286 L61.9354839,33.6194794 C63.0740645,33.6194794 64,32.6854603 64,31.5369397 L64,29.4544 C64,28.3058794 63.0740645,27.3718603 61.9354839,27.3718603 Z" id="Path" fill="#063A50"></path>
                <path d="M40.8629677,8.62900317 L37.8033548,11.715327 C36.9765161,11.5560127 36.324129,10.8979302 36.1661935,10.063873 L39.2258065,6.97754921 L40.8629677,8.62900317 Z" id="Path" fill="#FFFCFC"></path>
                <path d="M15.483871,27.3718603 C18.3298065,27.3718603 20.6451613,29.7074286 20.6451613,32.5782095 C20.6451613,35.4489905 18.3298065,37.7845587 15.483871,37.7845587 C12.6379355,37.7845587 10.3225806,35.4489905 10.3225806,32.5782095 C10.3225806,29.7074286 12.6379355,27.3718603 15.483871,27.3718603 Z" id="Path" fill="#FFFCFC"></path>
                <path d="M37.5762581,57.5561905 L25.2108387,45.082819 C26.6694194,43.9978159 27.9556129,42.6566603 28.992,41.0885079 L32.9858065,35.0449778 L35.2216774,37.3003683 C35.8069677,37.8907683 36.1290323,38.6748444 36.1290323,39.5099429 L36.1290323,42.3807238 L44.3747097,50.6983873 C44.1672258,54.3844825 41.2304516,57.3468952 37.5762581,57.5561905 Z" id="Path" fill="#FFFCFC"></path>
                <path d="M59.8709677,38.8258286 C59.8709677,40.5480889 58.4815484,41.9496381 56.7741935,41.9496381 C55.0668387,41.9496381 53.6774194,40.5480889 53.6774194,38.8258286 L53.6774194,33.6194794 L59.8709677,33.6194794 L59.8709677,38.8258286 Z" id="Path" fill="#FFFCFC"></path>
                <polygon id="Path" fill="#FFFCFC" points="61.9354839 31.5369397 51.6129032 31.5369397 51.6108387 29.4544 51.6129032 29.4544 61.9354839 29.4544"></polygon>
                <path d="M2.06451613,32.2345905 C2.06451613,29.0316444 3.17109677,26.0036317 5.09935484,23.5753905 L9.70529032,28.2215365 C8.80103226,29.438781 8.25806452,30.9434159 8.25806452,32.5782095 C8.25806452,36.5964698 11.5003871,39.8670984 15.483871,39.8670984 C17.1045161,39.8670984 18.596129,39.3193905 19.8028387,38.4072381 L24.4087742,43.0533841 C22.0025806,44.9984762 18.9997419,46.1147175 15.8245161,46.1147175 C8.2363871,46.1147175 2.06451613,39.8889651 2.06451613,32.2345905 Z" id="Path" fill="#FFFCFC"></path>
                <path d="M37.7661935,5.50519365 L34.0645161,9.2391873 L34.0645161,9.67027302 C34.0645161,11.9673143 35.9163871,13.8353524 38.1935484,13.8353524 L38.6209032,13.8353524 L42.3225806,10.1013587 L45.1230968,12.9263238 L39.684129,21.1554794 L26.8077419,8.16667937 L34.9656774,2.68022857 L37.7661935,5.50519365 Z" id="Path" fill="#FFFCFC"></path>
                <path d="M8.19303226,20.6848254 L25.056,9.34435556 L38.5166452,22.9225143 L27.2743226,39.9326984 C26.8696774,40.5449651 26.4082581,41.1030857 25.9220645,41.6351746 L21.2624516,36.9348825 C22.1667097,35.7176381 22.7096774,34.2130032 22.7096774,32.5782095 C22.7096774,28.5599492 19.4673548,25.2893206 15.483871,25.2893206 C13.8632258,25.2893206 12.3716129,25.8370286 11.1649032,26.749181 L6.50529032,22.0488889 C7.03174194,21.5584508 7.58503226,21.0930032 8.19303226,20.6848254 L8.19303226,20.6848254 Z" id="Path" fill="#FFFCFC"></path>
                <polygon id="Path" fill="#063A50" transform="translate(20.648951, 16.057458) rotate(-33.705957) translate(-20.648951, -16.057458) " points="15.6765698 15.038837 25.6296532 14.9988313 25.6213316 17.0760793 15.6682483 17.116085"></polygon>
                <polygon id="Path" fill="#063A50" transform="translate(13.425430, 20.917470) rotate(-33.705957) translate(-13.425430, -20.917470) " points="12.1853256 19.8838473 14.6738553 19.8738449 14.6655337 21.9510928 12.1770041 21.9610953"></polygon>
                <polygon id="Path" fill="#063A50" transform="translate(28.310364, 32.756467) rotate(-56.294043) translate(-28.310364, -32.756467) " points="27.2759007 31.7254653 29.3531486 31.7171438 29.3448271 33.7874679 27.2675791 33.7957894"></polygon>
                <polygon id="Path" fill="#063A50" transform="translate(30.601614, 29.289821) rotate(-56.294043) translate(-30.601614, -29.289821) " points="29.5671512 28.2588197 31.6443992 28.2504982 31.6360777 30.3208224 29.5588297 30.3291439"></polygon>
                <polygon id="Path" fill="#063A50" transform="translate(26.128520, 36.040465) rotate(-56.294043) translate(-26.128520, -36.040465) " points="25.2939917 35.0086628 26.9713694 35.0019432 26.9630478 37.0722673 25.2856701 37.078987"></polygon>
                <path d="M36.4676129,44.9838984 C35.867871,44.3789206 35.0379355,44.0321778 34.1894194,44.0321778 C32.4129032,44.0321778 30.9677419,45.4899556 30.9677419,47.281981 C30.9677419,48.1379048 31.3114839,48.9750857 31.9112258,49.5800635 L35.7904516,53.4931556 C36.3901935,54.0981333 37.220129,54.4448762 38.0686452,54.4448762 C39.8451613,54.4448762 41.2903226,52.9870984 41.2903226,51.195073 C41.2903226,50.3391492 40.9465806,49.5019683 40.3468387,48.8969905 L36.4676129,44.9838984 Z" id="Path" fill="#063A50"></path>
                <path d="M38.0686452,52.3623365 C37.764129,52.3623365 37.4658065,52.2384254 37.2500645,52.0208 L33.3708387,48.1077079 C33.1550968,47.8900825 33.0322581,47.5891556 33.0322581,47.281981 C33.0322581,46.6384762 33.5514839,46.1147175 34.1894194,46.1147175 C34.4939355,46.1147175 34.7922581,46.2386286 35.008,46.456254 L38.8872258,50.369346 C39.1029677,50.5869714 39.2258065,50.8878984 39.2258065,51.195073 C39.2258065,51.8385778 38.7065806,52.3623365 38.0686452,52.3623365 Z" id="Path" fill="#FFFCFC"></path>
                <path d="M15.483871,35.702019 C17.1912258,35.702019 18.5806452,34.3004698 18.5806452,32.5782095 C18.5806452,30.8559492 17.1912258,29.4544 15.483871,29.4544 C13.7765161,29.4544 12.3870968,30.8559492 12.3870968,32.5782095 C12.3870968,34.3004698 13.7765161,35.702019 15.483871,35.702019 Z" id="Path" fill="#FFFCFC"></path>
                <path d="M15.483871,31.5369397 C16.0536774,31.5369397 16.516129,32.0034286 16.516129,32.5782095 C16.516129,33.1529905 16.0536774,33.6194794 15.483871,33.6194794 C14.9140645,33.6194794 14.4516129,33.1529905 14.4516129,32.5782095 C14.4516129,32.0034286 14.9140645,31.5369397 15.483871,31.5369397 Z" id="Path" fill="#D3D3D3"></path>
            </g>
        </g>
    </g>
</svg>